<svg version="1.1" xmlns="http://www.w3.org/2000/svg" xmlns:xlink="http://www.w3.org/1999/xlink" width="698.50390625" height="290"><defs/><g><text fill="#eeeeee" stroke="none" font-family="Arial" font-size="24px" font-style="normal" font-weight="normal" text-decoration="none" x="0" y="0">UNREGISTERED</text><text fill="#eeeeee" stroke="none" font-family="Arial" font-size="24px" font-style="normal" font-weight="normal" text-decoration="none" x="0" y="30">UNREGISTERED</text><text fill="#eeeeee" stroke="none" font-family="Arial" font-size="24px" font-style="normal" font-weight="normal" text-decoration="none" x="0" y="60">UNREGISTERED</text><text fill="#eeeeee" stroke="none" font-family="Arial" font-size="24px" font-style="normal" font-weight="normal" text-decoration="none" x="0" y="90">UNREGISTERED</text><text fill="#eeeeee" stroke="none" font-family="Arial" font-size="24px" font-style="normal" font-weight="normal" text-decoration="none" x="0" y="120">UNREGISTERED</text><text fill="#eeeeee" stroke="none" font-family="Arial" font-size="24px" font-style="normal" font-weight="normal" text-decoration="none" x="0" y="150">UNREGISTERED</text><text fill="#eeeeee" stroke="none" font-family="Arial" font-size="24px" font-style="normal" font-weight="normal" text-decoration="none" x="0" y="180">UNREGISTERED</text><text fill="#eeeeee" stroke="none" font-family="Arial" font-size="24px" font-style="normal" font-weight="normal" text-decoration="none" x="0" y="210">UNREGISTERED</text><text fill="#eeeeee" stroke="none" font-family="Arial" font-size="24px" font-style="normal" font-weight="normal" text-decoration="none" x="0" y="240">UNREGISTERED</text><text fill="#eeeeee" stroke="none" font-family="Arial" font-size="24px" font-style="normal" font-weight="normal" text-decoration="none" x="0" y="270">UNREGISTERED</text><text fill="#eeeeee" stroke="none" font-family="Arial" font-size="24px" font-style="normal" font-weight="normal" text-decoration="none" x="200" y="0">UNREGISTERED</text><text fill="#eeeeee" stroke="none" font-family="Arial" font-size="24px" font-style="normal" font-weight="normal" text-decoration="none" x="200" y="30">UNREGISTERED</text><text fill="#eeeeee" stroke="none" font-family="Arial" font-size="24px" font-style="normal" font-weight="normal" text-decoration="none" x="200" y="60">UNREGISTERED</text><text fill="#eeeeee" stroke="none" font-family="Arial" font-size="24px" font-style="normal" font-weight="normal" text-decoration="none" x="200" y="90">UNREGISTERED</text><text fill="#eeeeee" stroke="none" font-family="Arial" font-size="24px" font-style="normal" font-weight="normal" text-decoration="none" x="200" y="120">UNREGISTERED</text><text fill="#eeeeee" stroke="none" font-family="Arial" font-size="24px" font-style="normal" font-weight="normal" text-decoration="none" x="200" y="150">UNREGISTERED</text><text fill="#eeeeee" stroke="none" font-family="Arial" font-size="24px" font-style="normal" font-weight="normal" text-decoration="none" x="200" y="180">UNREGISTERED</text><text fill="#eeeeee" stroke="none" font-family="Arial" font-size="24px" font-style="normal" font-weight="normal" text-decoration="none" x="200" y="210">UNREGISTERED</text><text fill="#eeeeee" stroke="none" font-family="Arial" font-size="24px" font-style="normal" font-weight="normal" text-decoration="none" x="200" y="240">UNREGISTERED</text><text fill="#eeeeee" stroke="none" font-family="Arial" font-size="24px" font-style="normal" font-weight="normal" text-decoration="none" x="200" y="270">UNREGISTERED</text><text fill="#eeeeee" stroke="none" font-family="Arial" font-size="24px" font-style="normal" font-weight="normal" text-decoration="none" x="400" y="0">UNREGISTERED</text><text fill="#eeeeee" stroke="none" font-family="Arial" font-size="24px" font-style="normal" font-weight="normal" text-decoration="none" x="400" y="30">UNREGISTERED</text><text fill="#eeeeee" stroke="none" font-family="Arial" font-size="24px" font-style="normal" font-weight="normal" text-decoration="none" x="400" y="60">UNREGISTERED</text><text fill="#eeeeee" stroke="none" font-family="Arial" font-size="24px" font-style="normal" font-weight="normal" text-decoration="none" x="400" y="90">UNREGISTERED</text><text fill="#eeeeee" stroke="none" font-family="Arial" font-size="24px" font-style="normal" font-weight="normal" text-decoration="none" x="400" y="120">UNREGISTERED</text><text fill="#eeeeee" stroke="none" font-family="Arial" font-size="24px" font-style="normal" font-weight="normal" text-decoration="none" x="400" y="150">UNREGISTERED</text><text fill="#eeeeee" stroke="none" font-family="Arial" font-size="24px" font-style="normal" font-weight="normal" text-decoration="none" x="400" y="180">UNREGISTERED</text><text fill="#eeeeee" stroke="none" font-family="Arial" font-size="24px" font-style="normal" font-weight="normal" text-decoration="none" x="400" y="210">UNREGISTERED</text><text fill="#eeeeee" stroke="none" font-family="Arial" font-size="24px" font-style="normal" font-weight="normal" text-decoration="none" x="400" y="240">UNREGISTERED</text><text fill="#eeeeee" stroke="none" font-family="Arial" font-size="24px" font-style="normal" font-weight="normal" text-decoration="none" x="400" y="270">UNREGISTERED</text><text fill="#eeeeee" stroke="none" font-family="Arial" font-size="24px" font-style="normal" font-weight="normal" text-decoration="none" x="600" y="0">UNREGISTERED</text><text fill="#eeeeee" stroke="none" font-family="Arial" font-size="24px" font-style="normal" font-weight="normal" text-decoration="none" x="600" y="30">UNREGISTERED</text><text fill="#eeeeee" stroke="none" font-family="Arial" font-size="24px" font-style="normal" font-weight="normal" text-decoration="none" x="600" y="60">UNREGISTERED</text><text fill="#eeeeee" stroke="none" font-family="Arial" font-size="24px" font-style="normal" font-weight="normal" text-decoration="none" x="600" y="90">UNREGISTERED</text><text fill="#eeeeee" stroke="none" font-family="Arial" font-size="24px" font-style="normal" font-weight="normal" text-decoration="none" x="600" y="120">UNREGISTERED</text><text fill="#eeeeee" stroke="none" font-family="Arial" font-size="24px" font-style="normal" font-weight="normal" text-decoration="none" x="600" y="150">UNREGISTERED</text><text fill="#eeeeee" stroke="none" font-family="Arial" font-size="24px" font-style="normal" font-weight="normal" text-decoration="none" x="600" y="180">UNREGISTERED</text><text fill="#eeeeee" stroke="none" font-family="Arial" font-size="24px" font-style="normal" font-weight="normal" text-decoration="none" x="600" y="210">UNREGISTERED</text><text fill="#eeeeee" stroke="none" font-family="Arial" font-size="24px" font-style="normal" font-weight="normal" text-decoration="none" x="600" y="240">UNREGISTERED</text><text fill="#eeeeee" stroke="none" font-family="Arial" font-size="24px" font-style="normal" font-weight="normal" text-decoration="none" x="600" y="270">UNREGISTERED</text><g transform="translate(48,-10) scale(1,1)"><rect fill="#C0C0C0" stroke="none" x="27" y="163" width="71.86083984375" height="24" opacity="0.2"/></g><g transform="translate(48,-10) scale(1,1)"><rect fill="#ffffff" stroke="none" x="20" y="156" width="71.86083984375" height="24"/></g><g transform="translate(48,-10) scale(1,1)"><path fill="none" stroke="#000000" d="M 20 156 L 91.86083984375 156 L 91.86083984375 180 L 20 180 L 20 156 Z Z" stroke-miterlimit="10"/></g><g transform="translate(48,-10) scale(1,1)"><g><path fill="none" stroke="none"/><text fill="#000000" stroke="none" font-family="Arial" font-size="13px" font-style="normal" font-weight="bold" text-decoration="none" x="24.5" y="174">Accesorio</text></g></g><g transform="translate(48,-10) scale(1,1)"><rect fill="#C0C0C0" stroke="none" x="351.43505859375" y="218" width="42.947265625" height="24" opacity="0.2"/></g><g transform="translate(48,-10) scale(1,1)"><rect fill="#ffffff" stroke="none" x="344.43505859375" y="211" width="42.947265625" height="24"/></g><g transform="translate(48,-10) scale(1,1)"><path fill="none" stroke="#000000" d="M 344.43505859375 211 L 387.38232421875 211 L 387.38232421875 235 L 344.43505859375 235 L 344.43505859375 211 Z Z" stroke-miterlimit="10"/></g><g transform="translate(48,-10) scale(1,1)"><g><path fill="none" stroke="none"/><text fill="#000000" stroke="none" font-family="Arial" font-size="13px" font-style="italic" font-weight="bold" text-decoration="none" x="348.93505859375" y="229">Actor</text></g></g><g transform="translate(48,-10) scale(1,1)"><rect fill="#C0C0C0" stroke="none" x="301.5888671875" y="33.5" width="58.11181640625" height="24" opacity="0.2"/></g><g transform="translate(48,-10) scale(1,1)"><rect fill="#ffffff" stroke="none" x="294.5888671875" y="26.5" width="58.11181640625" height="24"/></g><g transform="translate(48,-10) scale(1,1)"><path fill="none" stroke="#000000" d="M 294.5888671875 26.5 L 352.70068359375 26.5 L 352.70068359375 50.5 L 294.5888671875 50.5 L 294.5888671875 26.5 Z Z" stroke-miterlimit="10"/></g><g transform="translate(48,-10) scale(1,1)"><g><path fill="none" stroke="none"/><text fill="#000000" stroke="none" font-family="Arial" font-size="13px" font-style="italic" font-weight="bold" text-decoration="none" x="299.0888671875" y="44.5">Articulo</text></g></g><g transform="translate(48,-10) scale(1,1)"><rect fill="#C0C0C0" stroke="none" x="437.300048828125" y="273" width="81.96630859375" height="24" opacity="0.2"/></g><g transform="translate(48,-10) scale(1,1)"><rect fill="#ffffff" stroke="none" x="430.300048828125" y="266" width="81.96630859375" height="24"/></g><g transform="translate(48,-10) scale(1,1)"><path fill="none" stroke="#000000" d="M 430.300048828125 266 L 512.266357421875 266 L 512.266357421875 290 L 430.300048828125 290 L 430.300048828125 266 Z Z" stroke-miterlimit="10"/></g><g transform="translate(48,-10) scale(1,1)"><g><path fill="none" stroke="none"/><text fill="#000000" stroke="none" font-family="Arial" font-size="13px" font-style="normal" font-weight="bold" text-decoration="none" x="434.800048828125" y="284">Calificacion</text></g></g><g transform="translate(48,-10) scale(1,1)"><rect fill="#C0C0C0" stroke="none" x="472.872802734375" y="101.5" width="98.578125" height="24" opacity="0.2"/></g><g transform="translate(48,-10) scale(1,1)"><rect fill="#ffffff" stroke="none" x="465.872802734375" y="94.5" width="98.578125" height="24"/></g><g transform="translate(48,-10) scale(1,1)"><path fill="none" stroke="#000000" d="M 465.872802734375 94.5 L 564.450927734375 94.5 L 564.450927734375 118.5 L 465.872802734375 118.5 L 465.872802734375 94.5 Z Z" stroke-miterlimit="10"/></g><g transform="translate(48,-10) scale(1,1)"><g><path fill="none" stroke="none"/><text fill="#000000" stroke="none" font-family="Arial" font-size="13px" font-style="normal" font-weight="bold" text-decoration="none" x="470.372802734375" y="112.5">CamposOferta</text></g></g><g transform="translate(48,-10) scale(1,1)"><rect fill="#C0C0C0" stroke="none" x="250.0325927734375" y="218" width="58.1181640625" height="24" opacity="0.2"/></g><g transform="translate(48,-10) scale(1,1)"><rect fill="#ffffff" stroke="none" x="243.0325927734375" y="211" width="58.1181640625" height="24"/></g><g transform="translate(48,-10) scale(1,1)"><path fill="none" stroke="#000000" d="M 243.0325927734375 211 L 301.1507568359375 211 L 301.1507568359375 235 L 243.0325927734375 235 L 243.0325927734375 211 Z Z" stroke-miterlimit="10"/></g><g transform="translate(48,-10) scale(1,1)"><g><path fill="none" stroke="none"/><text fill="#000000" stroke="none" font-family="Arial" font-size="13px" font-style="normal" font-weight="bold" text-decoration="none" x="247.5325927734375" y="229">Compra</text></g></g><g transform="translate(48,-10) scale(1,1)"><rect fill="#C0C0C0" stroke="none" x="228.004638671875" y="273" width="79.05908203125" height="24" opacity="0.2"/></g><g transform="translate(48,-10) scale(1,1)"><rect fill="#ffffff" stroke="none" x="221.004638671875" y="266" width="79.05908203125" height="24"/></g><g transform="translate(48,-10) scale(1,1)"><path fill="none" stroke="#000000" d="M 221.004638671875 266 L 300.063720703125 266 L 300.063720703125 290 L 221.004638671875 290 L 221.004638671875 266 Z Z" stroke-miterlimit="10"/></g><g transform="translate(48,-10) scale(1,1)"><g><path fill="none" stroke="none"/><text fill="#000000" stroke="none" font-family="Arial" font-size="13px" font-style="normal" font-weight="bold" text-decoration="none" x="225.504638671875" y="284">Comprador</text></g></g><g transform="translate(48,-10) scale(1,1)"><rect fill="#C0C0C0" stroke="none" x="168.475830078125" y="95" width="116.6689453125" height="37" opacity="0.2"/></g><g transform="translate(48,-10) scale(1,1)"><rect fill="#ffffff" stroke="none" x="161.475830078125" y="88" width="116.6689453125" height="37"/></g><g transform="translate(48,-10) scale(1,1)"><path fill="none" stroke="#000000" d="M 161.475830078125 88 L 278.144775390625 88 L 278.144775390625 125 L 161.475830078125 125 L 161.475830078125 88 Z Z" stroke-miterlimit="10"/></g><g transform="translate(48,-10) scale(1,1)"><g><path fill="none" stroke="none"/><text fill="#000000" stroke="none" font-family="Arial" font-size="13px" font-style="normal" font-weight="normal" text-decoration="none" x="176.4462890625" y="104">«enumeration»</text></g></g><g transform="translate(48,-10) scale(1,1)"><g><path fill="none" stroke="none"/><text fill="#000000" stroke="none" font-family="Arial" font-size="13px" font-style="normal" font-weight="bold" text-decoration="none" x="165.975830078125" y="119">MarcaAccesorios</text></g></g><g transform="translate(48,-10) scale(1,1)"><rect fill="#C0C0C0" stroke="none" x="390.70068359375" y="27" width="118.0908203125" height="37" opacity="0.2"/></g><g transform="translate(48,-10) scale(1,1)"><rect fill="#ffffff" stroke="none" x="383.70068359375" y="20" width="118.0908203125" height="37"/></g><g transform="translate(48,-10) scale(1,1)"><path fill="none" stroke="#000000" d="M 383.70068359375 20 L 501.79150390625 20 L 501.79150390625 57 L 383.70068359375 57 L 383.70068359375 20 Z Z" stroke-miterlimit="10"/></g><g transform="translate(48,-10) scale(1,1)"><g><path fill="none" stroke="none"/><text fill="#000000" stroke="none" font-family="Arial" font-size="13px" font-style="normal" font-weight="normal" text-decoration="none" x="399.382080078125" y="36">«enumeration»</text></g></g><g transform="translate(48,-10) scale(1,1)"><g><path fill="none" stroke="none"/><text fill="#000000" stroke="none" font-family="Arial" font-size="13px" font-style="normal" font-weight="bold" text-decoration="none" x="388.20068359375" y="51">MarcaMotocicleta</text></g></g><g transform="translate(48,-10) scale(1,1)"><rect fill="#C0C0C0" stroke="none" x="498.517333984375" y="163" width="47.2890625" height="24" opacity="0.2"/></g><g transform="translate(48,-10) scale(1,1)"><rect fill="#ffffff" stroke="none" x="491.517333984375" y="156" width="47.2890625" height="24"/></g><g transform="translate(48,-10) scale(1,1)"><path fill="none" stroke="#000000" d="M 491.517333984375 156 L 538.806396484375 156 L 538.806396484375 180 L 491.517333984375 180 L 491.517333984375 156 Z Z" stroke-miterlimit="10"/></g><g transform="translate(48,-10) scale(1,1)"><g><path fill="none" stroke="none"/><text fill="#000000" stroke="none" font-family="Arial" font-size="13px" font-style="normal" font-weight="bold" text-decoration="none" x="496.017333984375" y="174">Oferta</text></g></g><g transform="translate(48,-10) scale(1,1)"><rect fill="#C0C0C0" stroke="none" x="296.52978515625" y="163" width="68.22998046875" height="24" opacity="0.2"/></g><g transform="translate(48,-10) scale(1,1)"><rect fill="#ffffff" stroke="none" x="289.52978515625" y="156" width="68.22998046875" height="24"/></g><g transform="translate(48,-10) scale(1,1)"><path fill="none" stroke="#000000" d="M 289.52978515625 156 L 357.759765625 156 L 357.759765625 180 L 289.52978515625 180 L 289.52978515625 156 Z Z" stroke-miterlimit="10"/></g><g transform="translate(48,-10) scale(1,1)"><g><path fill="none" stroke="none"/><text fill="#000000" stroke="none" font-family="Arial" font-size="13px" font-style="normal" font-weight="bold" text-decoration="none" x="294.02978515625" y="174">Repuesto</text></g></g><g transform="translate(48,-10) scale(1,1)"><rect fill="#C0C0C0" stroke="none" x="38.415283203125" y="95" width="99.060546875" height="37" opacity="0.2"/></g><g transform="translate(48,-10) scale(1,1)"><rect fill="#ffffff" stroke="none" x="31.415283203125" y="88" width="99.060546875" height="37"/></g><g transform="translate(48,-10) scale(1,1)"><path fill="none" stroke="#000000" d="M 31.415283203125 88 L 130.475830078125 88 L 130.475830078125 125 L 31.415283203125 125 L 31.415283203125 88 Z Z" stroke-miterlimit="10"/></g><g transform="translate(48,-10) scale(1,1)"><g><path fill="none" stroke="none"/><text fill="#000000" stroke="none" font-family="Arial" font-size="13px" font-style="normal" font-weight="normal" text-decoration="none" x="37.58154296875" y="104">«enumeration»</text></g></g><g transform="translate(48,-10) scale(1,1)"><g><path fill="none" stroke="none"/><text fill="#000000" stroke="none" font-family="Arial" font-size="13px" font-style="normal" font-weight="bold" text-decoration="none" x="35.915283203125" y="119">TipoAccesorio</text></g></g><g transform="translate(48,-10) scale(1,1)"><rect fill="#C0C0C0" stroke="none" x="539.79150390625" y="27" width="107.71240234375" height="37" opacity="0.2"/></g><g transform="translate(48,-10) scale(1,1)"><rect fill="#ffffff" stroke="none" x="532.79150390625" y="20" width="107.71240234375" height="37"/></g><g transform="translate(48,-10) scale(1,1)"><path fill="none" stroke="#000000" d="M 532.79150390625 20 L 640.50390625 20 L 640.50390625 57 L 532.79150390625 57 L 532.79150390625 20 Z Z" stroke-miterlimit="10"/></g><g transform="translate(48,-10) scale(1,1)"><g><path fill="none" stroke="none"/><text fill="#000000" stroke="none" font-family="Arial" font-size="13px" font-style="normal" font-weight="normal" text-decoration="none" x="543.28369140625" y="36">«enumeration»</text></g></g><g transform="translate(48,-10) scale(1,1)"><g><path fill="none" stroke="none"/><text fill="#000000" stroke="none" font-family="Arial" font-size="13px" font-style="normal" font-weight="bold" text-decoration="none" x="537.29150390625" y="51">TipoMotocicleta</text></g></g><g transform="translate(48,-10) scale(1,1)"><rect fill="#C0C0C0" stroke="none" x="346.144775390625" y="95" width="95.72802734375" height="37" opacity="0.2"/></g><g transform="translate(48,-10) scale(1,1)"><rect fill="#ffffff" stroke="none" x="339.144775390625" y="88" width="95.72802734375" height="37"/></g><g transform="translate(48,-10) scale(1,1)"><path fill="none" stroke="#000000" d="M 339.144775390625 88 L 434.872802734375 88 L 434.872802734375 125 L 339.144775390625 125 L 339.144775390625 88 Z Z" stroke-miterlimit="10"/></g><g transform="translate(48,-10) scale(1,1)"><g><path fill="none" stroke="none"/><text fill="#000000" stroke="none" font-family="Arial" font-size="13px" font-style="normal" font-weight="normal" text-decoration="none" x="343.644775390625" y="104">«enumeration»</text></g></g><g transform="translate(48,-10) scale(1,1)"><g><path fill="none" stroke="none"/><text fill="#000000" stroke="none" font-family="Arial" font-size="13px" font-style="normal" font-weight="bold" text-decoration="none" x="343.7939453125" y="119">TipoRepuesto</text></g></g><g transform="translate(48,-10) scale(1,1)"><rect fill="#C0C0C0" stroke="none" x="338.063720703125" y="273" width="68.236328125" height="24" opacity="0.2"/></g><g transform="translate(48,-10) scale(1,1)"><rect fill="#ffffff" stroke="none" x="331.063720703125" y="266" width="68.236328125" height="24"/></g><g transform="translate(48,-10) scale(1,1)"><path fill="none" stroke="#000000" d="M 331.063720703125 266 L 399.300048828125 266 L 399.300048828125 290 L 331.063720703125 290 L 331.063720703125 266 Z Z" stroke-miterlimit="10"/></g><g transform="translate(48,-10) scale(1,1)"><g><path fill="none" stroke="none"/><text fill="#000000" stroke="none" font-family="Arial" font-size="13px" font-style="normal" font-weight="bold" text-decoration="none" x="335.563720703125" y="284">Vendedor</text></g></g><g transform="translate(48,-10) scale(1,1)"><path fill="none" stroke="#000000" d="M 29 155 Q 1 141 1 124 Q 1 107 1 90 Q 1 73 294 41" stroke-miterlimit="10"/></g><g transform="translate(48,-10) scale(1,1)"><path fill="#FFFFFF" stroke="none" d="M 274.7088460113715 51.575981173726746 L 294 41 L 272.88074619208345 34.83744220337032"/></g><g transform="translate(48,-10) scale(1,1)"><path fill="none" stroke="#000000" d="M 274.7088460113715 51.575981173726746 L 294 41 L 272.88074619208345 34.83744220337032 L 274.7088460113715 51.575981173726746" stroke-miterlimit="10"/></g><g transform="translate(48,-10) scale(1,1)"><path fill="none" stroke="#000000" d="M 68 155 Q 81 141 81 126" stroke-miterlimit="10"/></g><g transform="translate(48,-10) scale(1,1)"><path fill="none" stroke="#000000" d="M 85.20951775601598 136.16267485762415 L 81 126 L 76.79048224398402 136.16267485762415" stroke-miterlimit="10"/></g><g transform="translate(48,-10) scale(1,1)"><g><path fill="none" stroke="none"/><text fill="#000000" stroke="none" font-family="Arial" font-size="13px" font-style="normal" font-weight="normal" text-decoration="none" x="24.5" y="156">-tipoAccesorio</text></g></g><g transform="translate(48,-10) scale(1,1)"><path fill="none" stroke="#000000" d="M 93 162 Q 93 162 156.5 151.5 Q 220 141 220 126" stroke-miterlimit="10"/></g><g transform="translate(48,-10) scale(1,1)"><path fill="none" stroke="#000000" d="M 224.209517756016 136.16267485762415 L 220 126 L 215.790482243984 136.16267485762415" stroke-miterlimit="10"/></g><g transform="translate(48,-10) scale(1,1)"><g><path fill="none" stroke="none"/><text fill="#000000" stroke="none" font-family="Arial" font-size="13px" font-style="normal" font-weight="normal" text-decoration="none" x="156.5" y="156">-marcaAccesorio</text></g></g><g transform="translate(48,-10) scale(1,1)"><path fill="none" stroke="#000000" d="M 242 219 Q 56 196 55 181" stroke-miterlimit="10"/></g><g transform="translate(48,-10) scale(1,1)"><path fill="none" stroke="#000000" d="M 59.876205414490606 190.86015318114747 L 55 181 L 51.475816737117384 191.42017909297235" stroke-miterlimit="10"/></g><g transform="translate(48,-10) scale(1,1)"><path fill="#FFFFFF" stroke="none" d="M 231.39754578033518 221.93052290895523 L 242 219 L 232.4307401027103 213.57512534539984 L 220.16629397328043 216.30013312572822"/></g><g transform="translate(48,-10) scale(1,1)"><path fill="none" stroke="#000000" d="M 231.39754578033518 221.93052290895523 L 242 219 L 232.4307401027103 213.57512534539984 L 220.16629397328043 216.30013312572822 L 231.39754578033518 221.93052290895523" stroke-miterlimit="10"/></g><g transform="translate(48,-10) scale(1,1)"><g><path fill="none" stroke="none"/><text fill="#000000" stroke="none" font-family="Arial" font-size="13px" font-style="normal" font-weight="normal" text-decoration="none" x="7.5" y="212">-accesorios</text></g></g><g transform="translate(48,-10) scale(1,1)"><g><path fill="none" stroke="none"/><text fill="#000000" stroke="none" font-family="Arial" font-size="13px" font-style="normal" font-weight="normal" text-decoration="none" x="-37.88427734375" y="216">{collection="ArrayList"}</text></g></g><g transform="translate(48,-10) scale(1,1)"><g><path fill="none" stroke="none"/><text fill="#000000" stroke="none" font-family="Arial" font-size="13px" font-style="normal" font-weight="normal" text-decoration="none" x="65.220458984375" y="206">*</text></g></g><g transform="translate(48,-10) scale(1,1)"><path fill="none" stroke="#000000" d="M 365 223 Q 388 229 436.5 240 Q 485 251 478 265" stroke-miterlimit="10"/></g><g transform="translate(48,-10) scale(1,1)"><path fill="none" stroke="#000000" d="M 478.77977922099745 254.02767370306094 L 478 265 L 486.3099935049528 257.7927808450386" stroke-miterlimit="10"/></g><g transform="translate(48,-10) scale(1,1)"><path fill="#000000" stroke="none" d="M 375.8961541840378 221.49207957846735 L 365 223 L 373.7710052679427 229.6384837568319 L 386.28757999273057 228.55328173723407"/></g><g transform="translate(48,-10) scale(1,1)"><path fill="none" stroke="#000000" d="M 375.8961541840378 221.49207957846735 L 365 223 L 373.7710052679427 229.6384837568319 L 386.28757999273057 228.55328173723407 L 375.8961541840378 221.49207957846735" stroke-miterlimit="10"/></g><g transform="translate(48,-10) scale(1,1)"><g><path fill="none" stroke="none"/><text fill="#000000" stroke="none" font-family="Arial" font-size="13px" font-style="normal" font-weight="normal" text-decoration="none" x="462.5" y="253">-calificaciones</text></g></g><g transform="translate(48,-10) scale(1,1)"><g><path fill="none" stroke="none"/><text fill="#000000" stroke="none" font-family="Arial" font-size="13px" font-style="normal" font-weight="normal" text-decoration="none" x="449.11572265625" y="257">{collection="ArrayList"}</text></g></g><g transform="translate(48,-10) scale(1,1)"><g><path fill="none" stroke="none"/><text fill="#000000" stroke="none" font-family="Arial" font-size="13px" font-style="normal" font-weight="normal" text-decoration="none" x="473.220458984375" y="245">*</text></g></g><g transform="translate(48,-10) scale(1,1)"><path fill="none" stroke="#000000" d="M 452 265 Q 432 251 388 233" stroke-miterlimit="10"/></g><g transform="translate(48,-10) scale(1,1)"><path fill="none" stroke="#000000" d="M 398.9998944684533 232.9518161553001 L 388 233 L 395.81217109431066 240.7440288476488" stroke-miterlimit="10"/></g><g transform="translate(48,-10) scale(1,1)"><g><path fill="none" stroke="none"/><text fill="#000000" stroke="none" font-family="Arial" font-size="13px" font-style="normal" font-weight="normal" text-decoration="none" x="387.5" y="260.5">~autor</text></g></g><g transform="translate(48,-10) scale(1,1)"><path fill="none" stroke="#000000" d="M 251 265 Q 241 251 343 228" stroke-miterlimit="10"/></g><g transform="translate(48,-10) scale(1,1)"><path fill="#FFFFFF" stroke="none" d="M 325.0243868357315 240.6837427981088 L 343 228 L 321.3205614921908 224.25808257892834"/></g><g transform="translate(48,-10) scale(1,1)"><path fill="none" stroke="#000000" d="M 325.0243868357315 240.6837427981088 L 343 228 L 321.3205614921908 224.25808257892834 L 325.0243868357315 240.6837427981088" stroke-miterlimit="10"/></g><g transform="translate(48,-10) scale(1,1)"><path fill="none" stroke="#000000" d="M 334 265 Q 301 251 343 232" stroke-miterlimit="10"/></g><g transform="translate(48,-10) scale(1,1)"><path fill="#FFFFFF" stroke="none" d="M 327.95146877320855 248.04810605387073 L 343 232 L 321.0113569067454 232.7068061385311"/></g><g transform="translate(48,-10) scale(1,1)"><path fill="none" stroke="#000000" d="M 327.95146877320855 248.04810605387073 L 343 232 L 321.0113569067454 232.7068061385311 L 327.95146877320855 248.04810605387073" stroke-miterlimit="10"/></g><g transform="translate(48,-10) scale(1,1)"><path fill="none" stroke="#000000" d="M 515 94 Q 516 73 354 44" stroke-miterlimit="10"/></g><g transform="translate(48,-10) scale(1,1)"><path fill="none" stroke="#000000" d="M 364.7454174512995 41.6471286058714 L 354 44 L 363.2618888645423 49.93442622844595" stroke-miterlimit="10"/></g><g transform="translate(48,-10) scale(1,1)"><g><path fill="none" stroke="none"/><text fill="#000000" stroke="none" font-family="Arial" font-size="13px" font-style="normal" font-weight="normal" text-decoration="none" x="352.5" y="68">-articulo</text></g></g><g transform="translate(48,-10) scale(1,1)"><path fill="none" stroke="#000000" d="M 316 155 Q 309 141 309 124 Q 309 107 309 90 Q 309 73 318 52" stroke-miterlimit="10"/></g><g transform="translate(48,-10) scale(1,1)"><path fill="#FFFFFF" stroke="none" d="M 317.7317671452228 73.99836473776217 L 318 52 L 302.2551378483634 67.3655236105367"/></g><g transform="translate(48,-10) scale(1,1)"><path fill="none" stroke="#000000" d="M 317.7317671452228 73.99836473776217 L 318 52 L 302.2551378483634 67.3655236105367 L 317.7317671452228 73.99836473776217" stroke-miterlimit="10"/></g><g transform="translate(48,-10) scale(1,1)"><path fill="none" stroke="#000000" d="M 515 155 L 515 120" stroke-miterlimit="10"/></g><g transform="translate(48,-10) scale(1,1)"><path fill="none" stroke="#000000" d="M 519.209517756016 130.16267485762415 L 515 120 L 510.790482243984 130.16267485762415" stroke-miterlimit="10"/></g><g transform="translate(48,-10) scale(1,1)"><g><path fill="none" stroke="none"/><text fill="#000000" stroke="none" font-family="Arial" font-size="13px" font-style="normal" font-weight="normal" text-decoration="none" x="453.5" y="150">-ofertaRepuesto</text></g></g><g transform="translate(48,-10) scale(1,1)"><g><path fill="none" stroke="none"/><text fill="#000000" stroke="none" font-family="Arial" font-size="13px" font-style="normal" font-weight="normal" text-decoration="none" x="420.11572265625" y="153">{collection="ArrayList"}</text></g></g><g transform="translate(48,-10) scale(1,1)"><g><path fill="none" stroke="none"/><text fill="#000000" stroke="none" font-family="Arial" font-size="13px" font-style="normal" font-weight="normal" text-decoration="none" x="524.220458984375" y="146">*</text></g></g><g transform="translate(48,-10) scale(1,1)"><path fill="none" stroke="#000000" d="M 515 155 Q 516 141 515 120" stroke-miterlimit="10"/></g><g transform="translate(48,-10) scale(1,1)"><path fill="none" stroke="#000000" d="M 519.6881423097332 129.95094576830212 L 515 120 L 511.2786359863939 130.35139845036588" stroke-miterlimit="10"/></g><g transform="translate(48,-10) scale(1,1)"><path fill="#000000" stroke="none" d="M 511.5252404957619 144.56323582772384 L 515 155 L 519.9228807114221 145.1630672716996 L 516.567435099734 133.05590860372382"/></g><g transform="translate(48,-10) scale(1,1)"><path fill="none" stroke="#000000" d="M 511.5252404957619 144.56323582772384 L 515 155 L 519.9228807114221 145.1630672716996 L 516.567435099734 133.05590860372382 L 511.5252404957619 144.56323582772384" stroke-miterlimit="10"/></g><g transform="translate(48,-10) scale(1,1)"><g><path fill="none" stroke="none"/><text fill="#000000" stroke="none" font-family="Arial" font-size="13px" font-style="normal" font-weight="normal" text-decoration="none" x="453.5" y="151">-ofertaAccesorio</text></g></g><g transform="translate(48,-10) scale(1,1)"><g><path fill="none" stroke="none"/><text fill="#000000" stroke="none" font-family="Arial" font-size="13px" font-style="normal" font-weight="normal" text-decoration="none" x="422.11572265625" y="154">{collection="ArrayList"}</text></g></g><g transform="translate(48,-10) scale(1,1)"><g><path fill="none" stroke="none"/><text fill="#000000" stroke="none" font-family="Arial" font-size="13px" font-style="normal" font-weight="normal" text-decoration="none" x="525.220458984375" y="146">*</text></g></g><g transform="translate(48,-10) scale(1,1)"><path fill="none" stroke="#000000" d="M 297 210 Q 324 196 323 181" stroke-miterlimit="10"/></g><g transform="translate(48,-10) scale(1,1)"><path fill="none" stroke="#000000" d="M 327.8762054144906 190.86015318114747 L 323 181 L 319.4758167371174 191.42017909297235" stroke-miterlimit="10"/></g><g transform="translate(48,-10) scale(1,1)"><path fill="#FFFFFF" stroke="none" d="M 304.0842473793257 201.5849278631424 L 297 210 L 307.9596739336702 209.05896478937825 L 316.53059969187643 199.87302238198998"/></g><g transform="translate(48,-10) scale(1,1)"><path fill="none" stroke="#000000" d="M 304.0842473793257 201.5849278631424 L 297 210 L 307.9596739336702 209.05896478937825 L 316.53059969187643 199.87302238198998 L 304.0842473793257 201.5849278631424" stroke-miterlimit="10"/></g><g transform="translate(48,-10) scale(1,1)"><g><path fill="none" stroke="none"/><text fill="#000000" stroke="none" font-family="Arial" font-size="13px" font-style="normal" font-weight="normal" text-decoration="none" x="278.5" y="211.5">-repuestos</text></g></g><g transform="translate(48,-10) scale(1,1)"><g><path fill="none" stroke="none"/><text fill="#000000" stroke="none" font-family="Arial" font-size="13px" font-style="normal" font-weight="normal" text-decoration="none" x="230.11572265625" y="216">{collection="ArrayList"}</text></g></g><g transform="translate(48,-10) scale(1,1)"><g><path fill="none" stroke="none"/><text fill="#000000" stroke="none" font-family="Arial" font-size="13px" font-style="normal" font-weight="normal" text-decoration="none" x="333.220458984375" y="206">*</text></g></g><g transform="translate(48,-10) scale(1,1)"><path fill="none" stroke="#000000" d="M 272 223 Q 302 220 409 208 Q 516 196 515 181" stroke-miterlimit="10"/></g><g transform="translate(48,-10) scale(1,1)"><path fill="none" stroke="#000000" d="M 519.8762054144906 190.86015318114747 L 515 181 L 511.4758167371174 191.42017909297235" stroke-miterlimit="10"/></g><g transform="translate(48,-10) scale(1,1)"><path fill="#000000" stroke="none" d="M 281.69337676333953 217.80014933638 L 272 223 L 282.53110210735656 226.1774027765504 L 293.8908181846198 220.81091818153803"/></g><g transform="translate(48,-10) scale(1,1)"><path fill="none" stroke="#000000" d="M 281.69337676333953 217.80014933638 L 272 223 L 282.53110210735656 226.1774027765504 L 293.8908181846198 220.81091818153803 L 281.69337676333953 217.80014933638" stroke-miterlimit="10"/></g><g transform="translate(48,-10) scale(1,1)"><g><path fill="none" stroke="none"/><text fill="#000000" stroke="none" font-family="Arial" font-size="13px" font-style="normal" font-weight="normal" text-decoration="none" x="450.5" y="212">-ofertasRecibidas</text></g></g><g transform="translate(48,-10) scale(1,1)"><g><path fill="none" stroke="none"/><text fill="#000000" stroke="none" font-family="Arial" font-size="13px" font-style="normal" font-weight="normal" text-decoration="none" x="422.11572265625" y="216">{collection="ArrayList"}</text></g></g><g transform="translate(48,-10) scale(1,1)"><g><path fill="none" stroke="none"/><text fill="#000000" stroke="none" font-family="Arial" font-size="13px" font-style="normal" font-weight="normal" text-decoration="none" x="525.220458984375" y="206">*</text></g></g><g transform="translate(48,-10) scale(1,1)"><path fill="none" stroke="#000000" d="M 265 265 Q 271 251 272 236" stroke-miterlimit="10"/></g><g transform="translate(48,-10) scale(1,1)"><path fill="none" stroke="#000000" d="M 275.5241832628826 246.42017909297235 L 272 236 L 267.1237945855094 245.86015318114747" stroke-miterlimit="10"/></g><g transform="translate(48,-10) scale(1,1)"><path fill="#000000" stroke="none" d="M 265.13411642738856 254.0008176311189 L 265 265 L 272.8724310758183 257.31723819473166 L 273.6662245687417 244.77880933960273"/></g><g transform="translate(48,-10) scale(1,1)"><path fill="none" stroke="#000000" d="M 265.13411642738856 254.0008176311189 L 265 265 L 272.8724310758183 257.31723819473166 L 273.6662245687417 244.77880933960273 L 265.13411642738856 254.0008176311189" stroke-miterlimit="10"/></g><g transform="translate(48,-10) scale(1,1)"><g><path fill="none" stroke="none"/><text fill="#000000" stroke="none" font-family="Arial" font-size="13px" font-style="normal" font-weight="normal" text-decoration="none" x="227.5" y="263.5">-compras</text></g></g><g transform="translate(48,-10) scale(1,1)"><g><path fill="none" stroke="none"/><text fill="#000000" stroke="none" font-family="Arial" font-size="13px" font-style="normal" font-weight="normal" text-decoration="none" x="175.11572265625" y="267">{collection="ArrayList"}</text></g></g><g transform="translate(48,-10) scale(1,1)"><g><path fill="none" stroke="none"/><text fill="#000000" stroke="none" font-family="Arial" font-size="13px" font-style="normal" font-weight="normal" text-decoration="none" x="280.220458984375" y="263">*</text></g></g><g transform="translate(48,-10) scale(1,1)"><path fill="none" stroke="#000000" d="M 370 265 Q 376 251 302 231" stroke-miterlimit="10"/></g><g transform="translate(48,-10) scale(1,1)"><path fill="none" stroke="#000000" d="M 312.9089754568424 229.58781924598537 L 302 231 L 310.7123731087558 237.71524793390603" stroke-miterlimit="10"/></g><g transform="translate(48,-10) scale(1,1)"><path fill="#FFFFFF" stroke="none" d="M 370.13411642738856 254.0008176311189 L 370 265 L 377.8724310758183 257.31723819473166 L 378.6662245687417 244.77880933960273"/></g><g transform="translate(48,-10) scale(1,1)"><path fill="none" stroke="#000000" d="M 370.13411642738856 254.0008176311189 L 370 265 L 377.8724310758183 257.31723819473166 L 378.6662245687417 244.77880933960273 L 370.13411642738856 254.0008176311189" stroke-miterlimit="10"/></g><g transform="translate(48,-10) scale(1,1)"><g><path fill="none" stroke="none"/><text fill="#000000" stroke="none" font-family="Arial" font-size="13px" font-style="normal" font-weight="normal" text-decoration="none" x="295.5" y="255.5">-compras</text></g></g><g transform="translate(48,-10) scale(1,1)"><g><path fill="none" stroke="none"/><text fill="#000000" stroke="none" font-family="Arial" font-size="13px" font-style="normal" font-weight="normal" text-decoration="none" x="255.11572265625" y="270">{collection="ArrayList"}</text></g></g><g transform="translate(48,-10) scale(1,1)"><g><path fill="none" stroke="none"/><text fill="#000000" stroke="none" font-family="Arial" font-size="13px" font-style="normal" font-weight="normal" text-decoration="none" x="323.220458984375" y="229">*</text></g></g><g transform="translate(48,-10) scale(1,1)"><path fill="none" stroke="#000000" d="M 354 155 Q 388 141 388 126" stroke-miterlimit="10"/></g><g transform="translate(48,-10) scale(1,1)"><path fill="none" stroke="#000000" d="M 392.209517756016 136.16267485762415 L 388 126 L 383.790482243984 136.16267485762415" stroke-miterlimit="10"/></g><g transform="translate(48,-10) scale(1,1)"><g><path fill="none" stroke="none"/><text fill="#000000" stroke="none" font-family="Arial" font-size="13px" font-style="normal" font-weight="normal" text-decoration="none" x="332.5" y="156">-tipoRepuesto</text></g></g></g></svg>