<svg version="1.1" xmlns="http://www.w3.org/2000/svg" xmlns:xlink="http://www.w3.org/1999/xlink" width="691.236328125" height="524"><defs/><g><text fill="#eeeeee" stroke="none" font-family="Arial" font-size="24px" font-style="normal" font-weight="normal" text-decoration="none" x="0" y="0">UNREGISTERED</text><text fill="#eeeeee" stroke="none" font-family="Arial" font-size="24px" font-style="normal" font-weight="normal" text-decoration="none" x="0" y="30">UNREGISTERED</text><text fill="#eeeeee" stroke="none" font-family="Arial" font-size="24px" font-style="normal" font-weight="normal" text-decoration="none" x="0" y="60">UNREGISTERED</text><text fill="#eeeeee" stroke="none" font-family="Arial" font-size="24px" font-style="normal" font-weight="normal" text-decoration="none" x="0" y="90">UNREGISTERED</text><text fill="#eeeeee" stroke="none" font-family="Arial" font-size="24px" font-style="normal" font-weight="normal" text-decoration="none" x="0" y="120">UNREGISTERED</text><text fill="#eeeeee" stroke="none" font-family="Arial" font-size="24px" font-style="normal" font-weight="normal" text-decoration="none" x="0" y="150">UNREGISTERED</text><text fill="#eeeeee" stroke="none" font-family="Arial" font-size="24px" font-style="normal" font-weight="normal" text-decoration="none" x="0" y="180">UNREGISTERED</text><text fill="#eeeeee" stroke="none" font-family="Arial" font-size="24px" font-style="normal" font-weight="normal" text-decoration="none" x="0" y="210">UNREGISTERED</text><text fill="#eeeeee" stroke="none" font-family="Arial" font-size="24px" font-style="normal" font-weight="normal" text-decoration="none" x="0" y="240">UNREGISTERED</text><text fill="#eeeeee" stroke="none" font-family="Arial" font-size="24px" font-style="normal" font-weight="normal" text-decoration="none" x="0" y="270">UNREGISTERED</text><text fill="#eeeeee" stroke="none" font-family="Arial" font-size="24px" font-style="normal" font-weight="normal" text-decoration="none" x="0" y="300">UNREGISTERED</text><text fill="#eeeeee" stroke="none" font-family="Arial" font-size="24px" font-style="normal" font-weight="normal" text-decoration="none" x="0" y="330">UNREGISTERED</text><text fill="#eeeeee" stroke="none" font-family="Arial" font-size="24px" font-style="normal" font-weight="normal" text-decoration="none" x="0" y="360">UNREGISTERED</text><text fill="#eeeeee" stroke="none" font-family="Arial" font-size="24px" font-style="normal" font-weight="normal" text-decoration="none" x="0" y="390">UNREGISTERED</text><text fill="#eeeeee" stroke="none" font-family="Arial" font-size="24px" font-style="normal" font-weight="normal" text-decoration="none" x="0" y="420">UNREGISTERED</text><text fill="#eeeeee" stroke="none" font-family="Arial" font-size="24px" font-style="normal" font-weight="normal" text-decoration="none" x="0" y="450">UNREGISTERED</text><text fill="#eeeeee" stroke="none" font-family="Arial" font-size="24px" font-style="normal" font-weight="normal" text-decoration="none" x="0" y="480">UNREGISTERED</text><text fill="#eeeeee" stroke="none" font-family="Arial" font-size="24px" font-style="normal" font-weight="normal" text-decoration="none" x="0" y="510">UNREGISTERED</text><text fill="#eeeeee" stroke="none" font-family="Arial" font-size="24px" font-style="normal" font-weight="normal" text-decoration="none" x="200" y="0">UNREGISTERED</text><text fill="#eeeeee" stroke="none" font-family="Arial" font-size="24px" font-style="normal" font-weight="normal" text-decoration="none" x="200" y="30">UNREGISTERED</text><text fill="#eeeeee" stroke="none" font-family="Arial" font-size="24px" font-style="normal" font-weight="normal" text-decoration="none" x="200" y="60">UNREGISTERED</text><text fill="#eeeeee" stroke="none" font-family="Arial" font-size="24px" font-style="normal" font-weight="normal" text-decoration="none" x="200" y="90">UNREGISTERED</text><text fill="#eeeeee" stroke="none" font-family="Arial" font-size="24px" font-style="normal" font-weight="normal" text-decoration="none" x="200" y="120">UNREGISTERED</text><text fill="#eeeeee" stroke="none" font-family="Arial" font-size="24px" font-style="normal" font-weight="normal" text-decoration="none" x="200" y="150">UNREGISTERED</text><text fill="#eeeeee" stroke="none" font-family="Arial" font-size="24px" font-style="normal" font-weight="normal" text-decoration="none" x="200" y="180">UNREGISTERED</text><text fill="#eeeeee" stroke="none" font-family="Arial" font-size="24px" font-style="normal" font-weight="normal" text-decoration="none" x="200" y="210">UNREGISTERED</text><text fill="#eeeeee" stroke="none" font-family="Arial" font-size="24px" font-style="normal" font-weight="normal" text-decoration="none" x="200" y="240">UNREGISTERED</text><text fill="#eeeeee" stroke="none" font-family="Arial" font-size="24px" font-style="normal" font-weight="normal" text-decoration="none" x="200" y="270">UNREGISTERED</text><text fill="#eeeeee" stroke="none" font-family="Arial" font-size="24px" font-style="normal" font-weight="normal" text-decoration="none" x="200" y="300">UNREGISTERED</text><text fill="#eeeeee" stroke="none" font-family="Arial" font-size="24px" font-style="normal" font-weight="normal" text-decoration="none" x="200" y="330">UNREGISTERED</text><text fill="#eeeeee" stroke="none" font-family="Arial" font-size="24px" font-style="normal" font-weight="normal" text-decoration="none" x="200" y="360">UNREGISTERED</text><text fill="#eeeeee" stroke="none" font-family="Arial" font-size="24px" font-style="normal" font-weight="normal" text-decoration="none" x="200" y="390">UNREGISTERED</text><text fill="#eeeeee" stroke="none" font-family="Arial" font-size="24px" font-style="normal" font-weight="normal" text-decoration="none" x="200" y="420">UNREGISTERED</text><text fill="#eeeeee" stroke="none" font-family="Arial" font-size="24px" font-style="normal" font-weight="normal" text-decoration="none" x="200" y="450">UNREGISTERED</text><text fill="#eeeeee" stroke="none" font-family="Arial" font-size="24px" font-style="normal" font-weight="normal" text-decoration="none" x="200" y="480">UNREGISTERED</text><text fill="#eeeeee" stroke="none" font-family="Arial" font-size="24px" font-style="normal" font-weight="normal" text-decoration="none" x="200" y="510">UNREGISTERED</text><text fill="#eeeeee" stroke="none" font-family="Arial" font-size="24px" font-style="normal" font-weight="normal" text-decoration="none" x="400" y="0">UNREGISTERED</text><text fill="#eeeeee" stroke="none" font-family="Arial" font-size="24px" font-style="normal" font-weight="normal" text-decoration="none" x="400" y="30">UNREGISTERED</text><text fill="#eeeeee" stroke="none" font-family="Arial" font-size="24px" font-style="normal" font-weight="normal" text-decoration="none" x="400" y="60">UNREGISTERED</text><text fill="#eeeeee" stroke="none" font-family="Arial" font-size="24px" font-style="normal" font-weight="normal" text-decoration="none" x="400" y="90">UNREGISTERED</text><text fill="#eeeeee" stroke="none" font-family="Arial" font-size="24px" font-style="normal" font-weight="normal" text-decoration="none" x="400" y="120">UNREGISTERED</text><text fill="#eeeeee" stroke="none" font-family="Arial" font-size="24px" font-style="normal" font-weight="normal" text-decoration="none" x="400" y="150">UNREGISTERED</text><text fill="#eeeeee" stroke="none" font-family="Arial" font-size="24px" font-style="normal" font-weight="normal" text-decoration="none" x="400" y="180">UNREGISTERED</text><text fill="#eeeeee" stroke="none" font-family="Arial" font-size="24px" font-style="normal" font-weight="normal" text-decoration="none" x="400" y="210">UNREGISTERED</text><text fill="#eeeeee" stroke="none" font-family="Arial" font-size="24px" font-style="normal" font-weight="normal" text-decoration="none" x="400" y="240">UNREGISTERED</text><text fill="#eeeeee" stroke="none" font-family="Arial" font-size="24px" font-style="normal" font-weight="normal" text-decoration="none" x="400" y="270">UNREGISTERED</text><text fill="#eeeeee" stroke="none" font-family="Arial" font-size="24px" font-style="normal" font-weight="normal" text-decoration="none" x="400" y="300">UNREGISTERED</text><text fill="#eeeeee" stroke="none" font-family="Arial" font-size="24px" font-style="normal" font-weight="normal" text-decoration="none" x="400" y="330">UNREGISTERED</text><text fill="#eeeeee" stroke="none" font-family="Arial" font-size="24px" font-style="normal" font-weight="normal" text-decoration="none" x="400" y="360">UNREGISTERED</text><text fill="#eeeeee" stroke="none" font-family="Arial" font-size="24px" font-style="normal" font-weight="normal" text-decoration="none" x="400" y="390">UNREGISTERED</text><text fill="#eeeeee" stroke="none" font-family="Arial" font-size="24px" font-style="normal" font-weight="normal" text-decoration="none" x="400" y="420">UNREGISTERED</text><text fill="#eeeeee" stroke="none" font-family="Arial" font-size="24px" font-style="normal" font-weight="normal" text-decoration="none" x="400" y="450">UNREGISTERED</text><text fill="#eeeeee" stroke="none" font-family="Arial" font-size="24px" font-style="normal" font-weight="normal" text-decoration="none" x="400" y="480">UNREGISTERED</text><text fill="#eeeeee" stroke="none" font-family="Arial" font-size="24px" font-style="normal" font-weight="normal" text-decoration="none" x="400" y="510">UNREGISTERED</text><text fill="#eeeeee" stroke="none" font-family="Arial" font-size="24px" font-style="normal" font-weight="normal" text-decoration="none" x="600" y="0">UNREGISTERED</text><text fill="#eeeeee" stroke="none" font-family="Arial" font-size="24px" font-style="normal" font-weight="normal" text-decoration="none" x="600" y="30">UNREGISTERED</text><text fill="#eeeeee" stroke="none" font-family="Arial" font-size="24px" font-style="normal" font-weight="normal" text-decoration="none" x="600" y="60">UNREGISTERED</text><text fill="#eeeeee" stroke="none" font-family="Arial" font-size="24px" font-style="normal" font-weight="normal" text-decoration="none" x="600" y="90">UNREGISTERED</text><text fill="#eeeeee" stroke="none" font-family="Arial" font-size="24px" font-style="normal" font-weight="normal" text-decoration="none" x="600" y="120">UNREGISTERED</text><text fill="#eeeeee" stroke="none" font-family="Arial" font-size="24px" font-style="normal" font-weight="normal" text-decoration="none" x="600" y="150">UNREGISTERED</text><text fill="#eeeeee" stroke="none" font-family="Arial" font-size="24px" font-style="normal" font-weight="normal" text-decoration="none" x="600" y="180">UNREGISTERED</text><text fill="#eeeeee" stroke="none" font-family="Arial" font-size="24px" font-style="normal" font-weight="normal" text-decoration="none" x="600" y="210">UNREGISTERED</text><text fill="#eeeeee" stroke="none" font-family="Arial" font-size="24px" font-style="normal" font-weight="normal" text-decoration="none" x="600" y="240">UNREGISTERED</text><text fill="#eeeeee" stroke="none" font-family="Arial" font-size="24px" font-style="normal" font-weight="normal" text-decoration="none" x="600" y="270">UNREGISTERED</text><text fill="#eeeeee" stroke="none" font-family="Arial" font-size="24px" font-style="normal" font-weight="normal" text-decoration="none" x="600" y="300">UNREGISTERED</text><text fill="#eeeeee" stroke="none" font-family="Arial" font-size="24px" font-style="normal" font-weight="normal" text-decoration="none" x="600" y="330">UNREGISTERED</text><text fill="#eeeeee" stroke="none" font-family="Arial" font-size="24px" font-style="normal" font-weight="normal" text-decoration="none" x="600" y="360">UNREGISTERED</text><text fill="#eeeeee" stroke="none" font-family="Arial" font-size="24px" font-style="normal" font-weight="normal" text-decoration="none" x="600" y="390">UNREGISTERED</text><text fill="#eeeeee" stroke="none" font-family="Arial" font-size="24px" font-style="normal" font-weight="normal" text-decoration="none" x="600" y="420">UNREGISTERED</text><text fill="#eeeeee" stroke="none" font-family="Arial" font-size="24px" font-style="normal" font-weight="normal" text-decoration="none" x="600" y="450">UNREGISTERED</text><text fill="#eeeeee" stroke="none" font-family="Arial" font-size="24px" font-style="normal" font-weight="normal" text-decoration="none" x="600" y="480">UNREGISTERED</text><text fill="#eeeeee" stroke="none" font-family="Arial" font-size="24px" font-style="normal" font-weight="normal" text-decoration="none" x="600" y="510">UNREGISTERED</text><g transform="translate(-259,-190) scale(1,1)"><rect fill="#C0C0C0" stroke="none" x="447" y="207" width="384" height="504" opacity="0.2"/></g><g transform="translate(-259,-190) scale(1,1)"><rect fill="#ffffff" stroke="none" x="440" y="200" width="384" height="504"/></g><g transform="translate(-259,-190) scale(1,1)"><path fill="none" stroke="#000000" d="M 440 200 L 824 200 L 824 704 L 440 704 L 440 200 Z Z" stroke-miterlimit="10"/></g><g transform="translate(-259,-190) scale(1,1)"><g><path fill="none" stroke="none"/><text fill="#000000" stroke="none" font-family="Arial" font-size="13px" font-style="normal" font-weight="bold" text-decoration="none" x="553.984130859375" y="217.7099609375">Login y registro _ TR-015</text></g></g><g transform="translate(-259,-190) scale(1,1)"><path fill="#ffffff" stroke="none" d="M 299.85026828835225 320.68 C 299.85026828835225 315.886167936 303.73611061329774 312 308.529541015625 312 C 313.32297141795226 312 317.20881374289775 315.886167936 317.20881374289775 320.68 C 317.20881374289775 325.473832064 313.32297141795226 329.36 308.529541015625 329.36 C 303.73611061329774 329.36 299.85026828835225 325.473832064 299.85026828835225 320.68 Z"/></g><g transform="translate(-259,-190) scale(1,1)"><path fill="none" stroke="#000000" d="M 299.85026828835225 320.68 C 299.85026828835225 315.886167936 303.73611061329774 312 308.529541015625 312 C 313.32297141795226 312 317.20881374289775 315.886167936 317.20881374289775 320.68 C 317.20881374289775 325.473832064 313.32297141795226 329.36 308.529541015625 329.36 C 303.73611061329774 329.36 299.85026828835225 325.473832064 299.85026828835225 320.68 Z" stroke-miterlimit="10"/></g><g transform="translate(-259,-190) scale(1,1)"><path fill="none" stroke="#000000" d="M 308.529541015625 329.36 L 308.529541015625 346.64" stroke-miterlimit="10"/></g><g transform="translate(-259,-190) scale(1,1)"><path fill="none" stroke="#000000" d="M 299.33972283380683 335.84 L 317.71935919744317 335.84" stroke-miterlimit="10"/></g><g transform="translate(-259,-190) scale(1,1)"><path fill="none" stroke="#000000" d="M 308.529541015625 346.64 L 295.76590465198865 364" stroke-miterlimit="10"/></g><g transform="translate(-259,-190) scale(1,1)"><path fill="none" stroke="#000000" d="M 308.529541015625 346.64 L 321.29317737926135 364" stroke-miterlimit="10"/></g><g transform="translate(-259,-190) scale(1,1)"><g><path fill="none" stroke="none"/><text fill="#000000" stroke="none" font-family="Arial" font-size="13px" font-style="normal" font-weight="bold" text-decoration="none" x="273.5" y="382.7099609375">Comprador</text></g></g><g transform="translate(-259,-190) scale(1,1)"><path fill="#ffffff" stroke="none" d="M 897.4388913352273 505.68 C 897.4388913352273 500.886167936 901.3247336601727 497 906.1181640625 497 C 910.9115944648273 497 914.7974367897727 500.886167936 914.7974367897727 505.68 C 914.7974367897727 510.473832064 910.9115944648273 514.36 906.1181640625 514.36 C 901.3247336601727 514.36 897.4388913352273 510.473832064 897.4388913352273 505.68 Z"/></g><g transform="translate(-259,-190) scale(1,1)"><path fill="none" stroke="#000000" d="M 897.4388913352273 505.68 C 897.4388913352273 500.886167936 901.3247336601727 497 906.1181640625 497 C 910.9115944648273 497 914.7974367897727 500.886167936 914.7974367897727 505.68 C 914.7974367897727 510.473832064 910.9115944648273 514.36 906.1181640625 514.36 C 901.3247336601727 514.36 897.4388913352273 510.473832064 897.4388913352273 505.68 Z" stroke-miterlimit="10"/></g><g transform="translate(-259,-190) scale(1,1)"><path fill="none" stroke="#000000" d="M 906.1181640625 514.36 L 906.1181640625 531.64" stroke-miterlimit="10"/></g><g transform="translate(-259,-190) scale(1,1)"><path fill="none" stroke="#000000" d="M 896.9283458806818 520.84 L 915.3079822443182 520.84" stroke-miterlimit="10"/></g><g transform="translate(-259,-190) scale(1,1)"><path fill="none" stroke="#000000" d="M 906.1181640625 531.64 L 893.3545276988636 549" stroke-miterlimit="10"/></g><g transform="translate(-259,-190) scale(1,1)"><path fill="none" stroke="#000000" d="M 906.1181640625 531.64 L 918.8818004261364 549" stroke-miterlimit="10"/></g><g transform="translate(-259,-190) scale(1,1)"><g><path fill="none" stroke="none"/><text fill="#000000" stroke="none" font-family="Arial" font-size="13px" font-style="normal" font-weight="bold" text-decoration="none" x="876.5" y="567.7099609375">Vendedor</text></g></g><g transform="translate(-259,-190) scale(1,1)"><path fill="#C0C0C0" stroke="none" d="M 495 288 C 495 278.6111584 533.2796496 271 580.5 271 C 627.7203504 271 666 278.6111584 666 288 C 666 297.3888416 627.7203504 305 580.5 305 C 533.2796496 305 495 297.3888416 495 288 Z" opacity="0.2"/></g><g transform="translate(-259,-190) scale(1,1)"><path fill="#ffffff" stroke="none" d="M 488 281 C 488 271.6111584 526.2796496 264 573.5 264 C 620.7203504 264 659 271.6111584 659 281 C 659 290.3888416 620.7203504 298 573.5 298 C 526.2796496 298 488 290.3888416 488 281 Z"/></g><g transform="translate(-259,-190) scale(1,1)"><path fill="none" stroke="#000000" d="M 488 281 C 488 271.6111584 526.2796496 264 573.5 264 C 620.7203504 264 659 271.6111584 659 281 C 659 290.3888416 620.7203504 298 573.5 298 C 526.2796496 298 488 290.3888416 488 281 Z" stroke-miterlimit="10"/></g><g transform="translate(-259,-190) scale(1,1)"><g><path fill="none" stroke="none"/><text fill="#000000" stroke="none" font-family="Arial" font-size="13px" font-style="normal" font-weight="bold" text-decoration="none" x="517.516845703125" y="286.2099609375">Iniciar Comprador</text></g></g><g transform="translate(-259,-190) scale(1,1)"><path fill="#C0C0C0" stroke="none" d="M 551 640 C 551 630.6111584 585.9217856 623 629 623 C 672.0782144 623 707 630.6111584 707 640 C 707 649.3888416 672.0782144 657 629 657 C 585.9217856 657 551 649.3888416 551 640 Z" opacity="0.2"/></g><g transform="translate(-259,-190) scale(1,1)"><path fill="#ffffff" stroke="none" d="M 544 633 C 544 623.6111584 578.9217856 616 622 616 C 665.0782144 616 700 623.6111584 700 633 C 700 642.3888416 665.0782144 650 622 650 C 578.9217856 650 544 642.3888416 544 633 Z"/></g><g transform="translate(-259,-190) scale(1,1)"><path fill="none" stroke="#000000" d="M 544 633 C 544 623.6111584 578.9217856 616 622 616 C 665.0782144 616 700 623.6111584 700 633 C 700 642.3888416 665.0782144 650 622 650 C 578.9217856 650 544 642.3888416 544 633 Z" stroke-miterlimit="10"/></g><g transform="translate(-259,-190) scale(1,1)"><g><path fill="none" stroke="none"/><text fill="#000000" stroke="none" font-family="Arial" font-size="13px" font-style="normal" font-weight="bold" text-decoration="none" x="571.42822265625" y="638.2099609375">Iniciar Vendedor</text></g></g><g transform="translate(-259,-190) scale(1,1)"><path fill="none" stroke="#000000" d="M 349 339 L 504 299" stroke-miterlimit="10"/></g><g transform="translate(-259,-190) scale(1,1)"><path fill="none" stroke="#000000" d="M 871 547 L 674 615" stroke-miterlimit="10"/></g><g transform="translate(-259,-190) scale(1,1)"><path fill="#C0C0C0" stroke="none" d="M 471 504 C 471 494.6111584 493.6096176 487 521.5 487 C 549.3903824 487 572 494.6111584 572 504 C 572 513.3888416 549.3903824 521 521.5 521 C 493.6096176 521 471 513.3888416 471 504 Z" opacity="0.2"/></g><g transform="translate(-259,-190) scale(1,1)"><path fill="#ffffff" stroke="none" d="M 464 497 C 464 487.6111584 486.6096176 480 514.5 480 C 542.3903824 480 565 487.6111584 565 497 C 565 506.3888416 542.3903824 514 514.5 514 C 486.6096176 514 464 506.3888416 464 497 Z"/></g><g transform="translate(-259,-190) scale(1,1)"><path fill="none" stroke="#000000" d="M 464 497 C 464 487.6111584 486.6096176 480 514.5 480 C 542.3903824 480 565 487.6111584 565 497 C 565 506.3888416 542.3903824 514 514.5 514 C 486.6096176 514 464 506.3888416 464 497 Z" stroke-miterlimit="10"/></g><g transform="translate(-259,-190) scale(1,1)"><g><path fill="none" stroke="none"/><text fill="#000000" stroke="none" font-family="Arial" font-size="13px" font-style="normal" font-weight="bold" text-decoration="none" x="488.84912109375" y="501.971923828125">Ingresar</text></g></g><g transform="translate(-259,-190) scale(1,1)"><path fill="#C0C0C0" stroke="none" d="M 607 424 C 607 414.6111584 629.6096176 407 657.5 407 C 685.3903824 407 708 414.6111584 708 424 C 708 433.3888416 685.3903824 441 657.5 441 C 629.6096176 441 607 433.3888416 607 424 Z" opacity="0.2"/></g><g transform="translate(-259,-190) scale(1,1)"><path fill="#ffffff" stroke="none" d="M 600 417 C 600 407.6111584 622.6096176 400 650.5 400 C 678.3903824 400 701 407.6111584 701 417 C 701 426.3888416 678.3903824 434 650.5 434 C 622.6096176 434 600 426.3888416 600 417 Z"/></g><g transform="translate(-259,-190) scale(1,1)"><path fill="none" stroke="#000000" d="M 600 417 C 600 407.6111584 622.6096176 400 650.5 400 C 678.3903824 400 701 407.6111584 701 417 C 701 426.3888416 678.3903824 434 650.5 434 C 622.6096176 434 600 426.3888416 600 417 Z" stroke-miterlimit="10"/></g><g transform="translate(-259,-190) scale(1,1)"><g><path fill="none" stroke="none"/><text fill="#000000" stroke="none" font-family="Arial" font-size="13px" font-style="normal" font-weight="bold" text-decoration="none" x="621.9609375" y="422.2099609375">Registrar</text></g></g><g transform="translate(-259,-190) scale(1,1)"><path fill="none" stroke="#000000" d="M 519 479 L 568 299" stroke-miterlimit="10" stroke-dasharray="3"/></g><g transform="translate(-259,-190) scale(1,1)"><path fill="none" stroke="#000000" d="M 569.392343951791 309.91152502264976 L 568 299 L 561.2689225134532 307.70014918665777" stroke-miterlimit="10"/></g><g transform="translate(-259,-190) scale(1,1)"><g><path fill="none" stroke="none"/><text fill="#000000" stroke="none" font-family="Arial" font-size="13px" font-style="normal" font-weight="normal" text-decoration="none" x="487.5" y="384.7099609375">«extend»</text></g></g><g transform="translate(-259,-190) scale(1,1)"><path fill="none" stroke="#000000" d="M 640 399 L 583 299" stroke-miterlimit="10" stroke-dasharray="3"/></g><g transform="translate(-259,-190) scale(1,1)"><path fill="none" stroke="#000000" d="M 591.6897208696766 305.7445349140698 L 583 299 L 584.3754541798784 309.9136669272548" stroke-miterlimit="10"/></g><g transform="translate(-259,-190) scale(1,1)"><g><path fill="none" stroke="none"/><text fill="#000000" stroke="none" font-family="Arial" font-size="13px" font-style="normal" font-weight="normal" text-decoration="none" x="557.5" y="367.7099609375">«extend»</text></g></g><g transform="translate(-259,-190) scale(1,1)"><path fill="#C0C0C0" stroke="none" d="M 719 480 C 719 470.6111584 741.6096176 463 769.5 463 C 797.3903824 463 820 470.6111584 820 480 C 820 489.3888416 797.3903824 497 769.5 497 C 741.6096176 497 719 489.3888416 719 480 Z" opacity="0.2"/></g><g transform="translate(-259,-190) scale(1,1)"><path fill="#ffffff" stroke="none" d="M 712 473 C 712 463.6111584 734.6096176 456 762.5 456 C 790.3903824 456 813 463.6111584 813 473 C 813 482.3888416 790.3903824 490 762.5 490 C 734.6096176 490 712 482.3888416 712 473 Z"/></g><g transform="translate(-259,-190) scale(1,1)"><path fill="none" stroke="#000000" d="M 712 473 C 712 463.6111584 734.6096176 456 762.5 456 C 790.3903824 456 813 463.6111584 813 473 C 813 482.3888416 790.3903824 490 762.5 490 C 734.6096176 490 712 482.3888416 712 473 Z" stroke-miterlimit="10"/></g><g transform="translate(-259,-190) scale(1,1)"><g><path fill="none" stroke="none"/><text fill="#000000" stroke="none" font-family="Arial" font-size="13px" font-style="normal" font-weight="bold" text-decoration="none" x="740.11181640625" y="478.2099609375">Google</text></g></g><g transform="translate(-259,-190) scale(1,1)"><path fill="#C0C0C0" stroke="none" d="M 719 360 C 719 350.6111584 741.6096176 343 769.5 343 C 797.3903824 343 820 350.6111584 820 360 C 820 369.3888416 797.3903824 377 769.5 377 C 741.6096176 377 719 369.3888416 719 360 Z" opacity="0.2"/></g><g transform="translate(-259,-190) scale(1,1)"><path fill="#ffffff" stroke="none" d="M 712 353 C 712 343.6111584 734.6096176 336 762.5 336 C 790.3903824 336 813 343.6111584 813 353 C 813 362.3888416 790.3903824 370 762.5 370 C 734.6096176 370 712 362.3888416 712 353 Z"/></g><g transform="translate(-259,-190) scale(1,1)"><path fill="none" stroke="#000000" d="M 712 353 C 712 343.6111584 734.6096176 336 762.5 336 C 790.3903824 336 813 343.6111584 813 353 C 813 362.3888416 790.3903824 370 762.5 370 C 734.6096176 370 712 362.3888416 712 353 Z" stroke-miterlimit="10"/></g><g transform="translate(-259,-190) scale(1,1)"><g><path fill="none" stroke="none"/><text fill="#000000" stroke="none" font-family="Arial" font-size="13px" font-style="normal" font-weight="bold" text-decoration="none" x="732.158203125" y="358.2099609375">Facebook</text></g></g><g transform="translate(-259,-190) scale(1,1)"><path fill="none" stroke="#000000" d="M 726 455 L 686 435" stroke-miterlimit="10" stroke-dasharray="3"/></g><g transform="translate(-259,-190) scale(1,1)"><path fill="none" stroke="#000000" d="M 696.9723262969391 435.77977922099745 L 686 435 L 693.2072191549614 443.3099935049528" stroke-miterlimit="10"/></g><g transform="translate(-259,-190) scale(1,1)"><g><path fill="none" stroke="none"/><text fill="#000000" stroke="none" font-family="Arial" font-size="13px" font-style="normal" font-weight="normal" text-decoration="none" x="655.5" y="466.7099609375">«extend»</text></g></g><g transform="translate(-259,-190) scale(1,1)"><path fill="none" stroke="#000000" d="M 731 371 L 682 399" stroke-miterlimit="10" stroke-dasharray="3"/></g><g transform="translate(-259,-190) scale(1,1)"><path fill="none" stroke="#000000" d="M 688.7351670803088 390.30301636196066 L 682 399 L 692.9121784212368 397.6127862085847" stroke-miterlimit="10"/></g><g transform="translate(-259,-190) scale(1,1)"><g><path fill="none" stroke="none"/><text fill="#000000" stroke="none" font-family="Arial" font-size="13px" font-style="normal" font-weight="normal" text-decoration="none" x="655.5" y="377.7099609375">«extend»</text></g></g><g transform="translate(-259,-190) scale(1,1)"><path fill="none" stroke="#000000" d="M 528 515 L 608 615" stroke-miterlimit="10" stroke-dasharray="3"/></g><g transform="translate(-259,-190) scale(1,1)"><path fill="none" stroke="#000000" d="M 598.3643462280668 609.6939490779461 L 608 615 L 604.9385084650058 604.4346192883949" stroke-miterlimit="10"/></g><g transform="translate(-259,-190) scale(1,1)"><g><path fill="none" stroke="none"/><text fill="#000000" stroke="none" font-family="Arial" font-size="13px" font-style="normal" font-weight="normal" text-decoration="none" x="564.5" y="550.7099609375">«extend»</text></g></g><g transform="translate(-259,-190) scale(1,1)"><path fill="none" stroke="#000000" d="M 648 435 L 624 615" stroke-miterlimit="10" stroke-dasharray="3"/></g><g transform="translate(-259,-190) scale(1,1)"><path fill="none" stroke="#000000" d="M 621.1705454670771 604.3701276091327 L 624 615 L 629.5157283634411 605.4828186619812" stroke-miterlimit="10"/></g><g transform="translate(-259,-190) scale(1,1)"><g><path fill="none" stroke="none"/><text fill="#000000" stroke="none" font-family="Arial" font-size="13px" font-style="normal" font-weight="normal" text-decoration="none" x="638.5" y="532.7099609375">«extend»</text></g></g></g></svg>