<svg version="1.1" xmlns="http://www.w3.org/2000/svg" xmlns:xlink="http://www.w3.org/1999/xlink" width="736.236328125" height="444"><defs/><g><text fill="#eeeeee" stroke="none" font-family="Arial" font-size="24px" font-style="normal" font-weight="normal" text-decoration="none" x="0" y="0">UNREGISTERED</text><text fill="#eeeeee" stroke="none" font-family="Arial" font-size="24px" font-style="normal" font-weight="normal" text-decoration="none" x="0" y="30">UNREGISTERED</text><text fill="#eeeeee" stroke="none" font-family="Arial" font-size="24px" font-style="normal" font-weight="normal" text-decoration="none" x="0" y="60">UNREGISTERED</text><text fill="#eeeeee" stroke="none" font-family="Arial" font-size="24px" font-style="normal" font-weight="normal" text-decoration="none" x="0" y="90">UNREGISTERED</text><text fill="#eeeeee" stroke="none" font-family="Arial" font-size="24px" font-style="normal" font-weight="normal" text-decoration="none" x="0" y="120">UNREGISTERED</text><text fill="#eeeeee" stroke="none" font-family="Arial" font-size="24px" font-style="normal" font-weight="normal" text-decoration="none" x="0" y="150">UNREGISTERED</text><text fill="#eeeeee" stroke="none" font-family="Arial" font-size="24px" font-style="normal" font-weight="normal" text-decoration="none" x="0" y="180">UNREGISTERED</text><text fill="#eeeeee" stroke="none" font-family="Arial" font-size="24px" font-style="normal" font-weight="normal" text-decoration="none" x="0" y="210">UNREGISTERED</text><text fill="#eeeeee" stroke="none" font-family="Arial" font-size="24px" font-style="normal" font-weight="normal" text-decoration="none" x="0" y="240">UNREGISTERED</text><text fill="#eeeeee" stroke="none" font-family="Arial" font-size="24px" font-style="normal" font-weight="normal" text-decoration="none" x="0" y="270">UNREGISTERED</text><text fill="#eeeeee" stroke="none" font-family="Arial" font-size="24px" font-style="normal" font-weight="normal" text-decoration="none" x="0" y="300">UNREGISTERED</text><text fill="#eeeeee" stroke="none" font-family="Arial" font-size="24px" font-style="normal" font-weight="normal" text-decoration="none" x="0" y="330">UNREGISTERED</text><text fill="#eeeeee" stroke="none" font-family="Arial" font-size="24px" font-style="normal" font-weight="normal" text-decoration="none" x="0" y="360">UNREGISTERED</text><text fill="#eeeeee" stroke="none" font-family="Arial" font-size="24px" font-style="normal" font-weight="normal" text-decoration="none" x="0" y="390">UNREGISTERED</text><text fill="#eeeeee" stroke="none" font-family="Arial" font-size="24px" font-style="normal" font-weight="normal" text-decoration="none" x="0" y="420">UNREGISTERED</text><text fill="#eeeeee" stroke="none" font-family="Arial" font-size="24px" font-style="normal" font-weight="normal" text-decoration="none" x="200" y="0">UNREGISTERED</text><text fill="#eeeeee" stroke="none" font-family="Arial" font-size="24px" font-style="normal" font-weight="normal" text-decoration="none" x="200" y="30">UNREGISTERED</text><text fill="#eeeeee" stroke="none" font-family="Arial" font-size="24px" font-style="normal" font-weight="normal" text-decoration="none" x="200" y="60">UNREGISTERED</text><text fill="#eeeeee" stroke="none" font-family="Arial" font-size="24px" font-style="normal" font-weight="normal" text-decoration="none" x="200" y="90">UNREGISTERED</text><text fill="#eeeeee" stroke="none" font-family="Arial" font-size="24px" font-style="normal" font-weight="normal" text-decoration="none" x="200" y="120">UNREGISTERED</text><text fill="#eeeeee" stroke="none" font-family="Arial" font-size="24px" font-style="normal" font-weight="normal" text-decoration="none" x="200" y="150">UNREGISTERED</text><text fill="#eeeeee" stroke="none" font-family="Arial" font-size="24px" font-style="normal" font-weight="normal" text-decoration="none" x="200" y="180">UNREGISTERED</text><text fill="#eeeeee" stroke="none" font-family="Arial" font-size="24px" font-style="normal" font-weight="normal" text-decoration="none" x="200" y="210">UNREGISTERED</text><text fill="#eeeeee" stroke="none" font-family="Arial" font-size="24px" font-style="normal" font-weight="normal" text-decoration="none" x="200" y="240">UNREGISTERED</text><text fill="#eeeeee" stroke="none" font-family="Arial" font-size="24px" font-style="normal" font-weight="normal" text-decoration="none" x="200" y="270">UNREGISTERED</text><text fill="#eeeeee" stroke="none" font-family="Arial" font-size="24px" font-style="normal" font-weight="normal" text-decoration="none" x="200" y="300">UNREGISTERED</text><text fill="#eeeeee" stroke="none" font-family="Arial" font-size="24px" font-style="normal" font-weight="normal" text-decoration="none" x="200" y="330">UNREGISTERED</text><text fill="#eeeeee" stroke="none" font-family="Arial" font-size="24px" font-style="normal" font-weight="normal" text-decoration="none" x="200" y="360">UNREGISTERED</text><text fill="#eeeeee" stroke="none" font-family="Arial" font-size="24px" font-style="normal" font-weight="normal" text-decoration="none" x="200" y="390">UNREGISTERED</text><text fill="#eeeeee" stroke="none" font-family="Arial" font-size="24px" font-style="normal" font-weight="normal" text-decoration="none" x="200" y="420">UNREGISTERED</text><text fill="#eeeeee" stroke="none" font-family="Arial" font-size="24px" font-style="normal" font-weight="normal" text-decoration="none" x="400" y="0">UNREGISTERED</text><text fill="#eeeeee" stroke="none" font-family="Arial" font-size="24px" font-style="normal" font-weight="normal" text-decoration="none" x="400" y="30">UNREGISTERED</text><text fill="#eeeeee" stroke="none" font-family="Arial" font-size="24px" font-style="normal" font-weight="normal" text-decoration="none" x="400" y="60">UNREGISTERED</text><text fill="#eeeeee" stroke="none" font-family="Arial" font-size="24px" font-style="normal" font-weight="normal" text-decoration="none" x="400" y="90">UNREGISTERED</text><text fill="#eeeeee" stroke="none" font-family="Arial" font-size="24px" font-style="normal" font-weight="normal" text-decoration="none" x="400" y="120">UNREGISTERED</text><text fill="#eeeeee" stroke="none" font-family="Arial" font-size="24px" font-style="normal" font-weight="normal" text-decoration="none" x="400" y="150">UNREGISTERED</text><text fill="#eeeeee" stroke="none" font-family="Arial" font-size="24px" font-style="normal" font-weight="normal" text-decoration="none" x="400" y="180">UNREGISTERED</text><text fill="#eeeeee" stroke="none" font-family="Arial" font-size="24px" font-style="normal" font-weight="normal" text-decoration="none" x="400" y="210">UNREGISTERED</text><text fill="#eeeeee" stroke="none" font-family="Arial" font-size="24px" font-style="normal" font-weight="normal" text-decoration="none" x="400" y="240">UNREGISTERED</text><text fill="#eeeeee" stroke="none" font-family="Arial" font-size="24px" font-style="normal" font-weight="normal" text-decoration="none" x="400" y="270">UNREGISTERED</text><text fill="#eeeeee" stroke="none" font-family="Arial" font-size="24px" font-style="normal" font-weight="normal" text-decoration="none" x="400" y="300">UNREGISTERED</text><text fill="#eeeeee" stroke="none" font-family="Arial" font-size="24px" font-style="normal" font-weight="normal" text-decoration="none" x="400" y="330">UNREGISTERED</text><text fill="#eeeeee" stroke="none" font-family="Arial" font-size="24px" font-style="normal" font-weight="normal" text-decoration="none" x="400" y="360">UNREGISTERED</text><text fill="#eeeeee" stroke="none" font-family="Arial" font-size="24px" font-style="normal" font-weight="normal" text-decoration="none" x="400" y="390">UNREGISTERED</text><text fill="#eeeeee" stroke="none" font-family="Arial" font-size="24px" font-style="normal" font-weight="normal" text-decoration="none" x="400" y="420">UNREGISTERED</text><text fill="#eeeeee" stroke="none" font-family="Arial" font-size="24px" font-style="normal" font-weight="normal" text-decoration="none" x="600" y="0">UNREGISTERED</text><text fill="#eeeeee" stroke="none" font-family="Arial" font-size="24px" font-style="normal" font-weight="normal" text-decoration="none" x="600" y="30">UNREGISTERED</text><text fill="#eeeeee" stroke="none" font-family="Arial" font-size="24px" font-style="normal" font-weight="normal" text-decoration="none" x="600" y="60">UNREGISTERED</text><text fill="#eeeeee" stroke="none" font-family="Arial" font-size="24px" font-style="normal" font-weight="normal" text-decoration="none" x="600" y="90">UNREGISTERED</text><text fill="#eeeeee" stroke="none" font-family="Arial" font-size="24px" font-style="normal" font-weight="normal" text-decoration="none" x="600" y="120">UNREGISTERED</text><text fill="#eeeeee" stroke="none" font-family="Arial" font-size="24px" font-style="normal" font-weight="normal" text-decoration="none" x="600" y="150">UNREGISTERED</text><text fill="#eeeeee" stroke="none" font-family="Arial" font-size="24px" font-style="normal" font-weight="normal" text-decoration="none" x="600" y="180">UNREGISTERED</text><text fill="#eeeeee" stroke="none" font-family="Arial" font-size="24px" font-style="normal" font-weight="normal" text-decoration="none" x="600" y="210">UNREGISTERED</text><text fill="#eeeeee" stroke="none" font-family="Arial" font-size="24px" font-style="normal" font-weight="normal" text-decoration="none" x="600" y="240">UNREGISTERED</text><text fill="#eeeeee" stroke="none" font-family="Arial" font-size="24px" font-style="normal" font-weight="normal" text-decoration="none" x="600" y="270">UNREGISTERED</text><text fill="#eeeeee" stroke="none" font-family="Arial" font-size="24px" font-style="normal" font-weight="normal" text-decoration="none" x="600" y="300">UNREGISTERED</text><text fill="#eeeeee" stroke="none" font-family="Arial" font-size="24px" font-style="normal" font-weight="normal" text-decoration="none" x="600" y="330">UNREGISTERED</text><text fill="#eeeeee" stroke="none" font-family="Arial" font-size="24px" font-style="normal" font-weight="normal" text-decoration="none" x="600" y="360">UNREGISTERED</text><text fill="#eeeeee" stroke="none" font-family="Arial" font-size="24px" font-style="normal" font-weight="normal" text-decoration="none" x="600" y="390">UNREGISTERED</text><text fill="#eeeeee" stroke="none" font-family="Arial" font-size="24px" font-style="normal" font-weight="normal" text-decoration="none" x="600" y="420">UNREGISTERED</text><g transform="translate(-302,-230) scale(1,1)"><rect fill="#C0C0C0" stroke="none" x="447" y="247" width="472" height="424" opacity="0.2"/></g><g transform="translate(-302,-230) scale(1,1)"><rect fill="#ffffff" stroke="none" x="440" y="240" width="472" height="424"/></g><g transform="translate(-302,-230) scale(1,1)"><path fill="none" stroke="#000000" d="M 440 240 L 912 240 L 912 664 L 440 664 L 440 240 Z Z" stroke-miterlimit="10"/></g><g transform="translate(-302,-230) scale(1,1)"><g><path fill="none" stroke="none"/><text fill="#000000" stroke="none" font-family="Arial" font-size="13px" font-style="normal" font-weight="bold" text-decoration="none" x="568.33740234375" y="258">Sistema de calificaciones _ TR-014</text></g></g><g transform="translate(-302,-230) scale(1,1)"><path fill="#ffffff" stroke="none" d="M 342.85026828835225 313.68 C 342.85026828835225 308.886167936 346.73611061329774 305 351.529541015625 305 C 356.32297141795226 305 360.20881374289775 308.886167936 360.20881374289775 313.68 C 360.20881374289775 318.473832064 356.32297141795226 322.36 351.529541015625 322.36 C 346.73611061329774 322.36 342.85026828835225 318.473832064 342.85026828835225 313.68 Z"/></g><g transform="translate(-302,-230) scale(1,1)"><path fill="none" stroke="#000000" d="M 342.85026828835225 313.68 C 342.85026828835225 308.886167936 346.73611061329774 305 351.529541015625 305 C 356.32297141795226 305 360.20881374289775 308.886167936 360.20881374289775 313.68 C 360.20881374289775 318.473832064 356.32297141795226 322.36 351.529541015625 322.36 C 346.73611061329774 322.36 342.85026828835225 318.473832064 342.85026828835225 313.68 Z" stroke-miterlimit="10"/></g><g transform="translate(-302,-230) scale(1,1)"><path fill="none" stroke="#000000" d="M 351.529541015625 322.36 L 351.529541015625 339.64" stroke-miterlimit="10"/></g><g transform="translate(-302,-230) scale(1,1)"><path fill="none" stroke="#000000" d="M 342.33972283380683 328.84 L 360.71935919744317 328.84" stroke-miterlimit="10"/></g><g transform="translate(-302,-230) scale(1,1)"><path fill="none" stroke="#000000" d="M 351.529541015625 339.64 L 338.76590465198865 357" stroke-miterlimit="10"/></g><g transform="translate(-302,-230) scale(1,1)"><path fill="none" stroke="#000000" d="M 351.529541015625 339.64 L 364.29317737926135 357" stroke-miterlimit="10"/></g><g transform="translate(-302,-230) scale(1,1)"><g><path fill="none" stroke="none"/><text fill="#000000" stroke="none" font-family="Arial" font-size="13px" font-style="normal" font-weight="bold" text-decoration="none" x="316.5" y="376">Comprador</text></g></g><g transform="translate(-302,-230) scale(1,1)"><path fill="#ffffff" stroke="none" d="M 985.4388913352273 553.6800000000001 C 985.4388913352273 548.8861679360001 989.3247336601727 545 994.1181640625 545 C 998.9115944648273 545 1002.7974367897727 548.8861679360001 1002.7974367897727 553.6800000000001 C 1002.7974367897727 558.473832064 998.9115944648273 562.36 994.1181640625 562.36 C 989.3247336601727 562.36 985.4388913352273 558.473832064 985.4388913352273 553.6800000000001 Z"/></g><g transform="translate(-302,-230) scale(1,1)"><path fill="none" stroke="#000000" d="M 985.4388913352273 553.6800000000001 C 985.4388913352273 548.8861679360001 989.3247336601727 545 994.1181640625 545 C 998.9115944648273 545 1002.7974367897727 548.8861679360001 1002.7974367897727 553.6800000000001 C 1002.7974367897727 558.473832064 998.9115944648273 562.36 994.1181640625 562.36 C 989.3247336601727 562.36 985.4388913352273 558.473832064 985.4388913352273 553.6800000000001 Z" stroke-miterlimit="10"/></g><g transform="translate(-302,-230) scale(1,1)"><path fill="none" stroke="#000000" d="M 994.1181640625 562.36 L 994.1181640625 579.64" stroke-miterlimit="10"/></g><g transform="translate(-302,-230) scale(1,1)"><path fill="none" stroke="#000000" d="M 984.9283458806818 568.84 L 1003.3079822443182 568.84" stroke-miterlimit="10"/></g><g transform="translate(-302,-230) scale(1,1)"><path fill="none" stroke="#000000" d="M 994.1181640625 579.64 L 981.3545276988636 597" stroke-miterlimit="10"/></g><g transform="translate(-302,-230) scale(1,1)"><path fill="none" stroke="#000000" d="M 994.1181640625 579.64 L 1006.8818004261364 597" stroke-miterlimit="10"/></g><g transform="translate(-302,-230) scale(1,1)"><g><path fill="none" stroke="none"/><text fill="#000000" stroke="none" font-family="Arial" font-size="13px" font-style="normal" font-weight="bold" text-decoration="none" x="964.5" y="616">Vendedor</text></g></g><g transform="translate(-302,-230) scale(1,1)"><path fill="#C0C0C0" stroke="none" d="M 511 312 C 511 302.6111584 549.9512224 295 598 295 C 646.0487776 295 685 302.6111584 685 312 C 685 321.3888416 646.0487776 329 598 329 C 549.9512224 329 511 321.3888416 511 312 Z" opacity="0.2"/></g><g transform="translate(-302,-230) scale(1,1)"><path fill="#ffffff" stroke="none" d="M 504 305 C 504 295.6111584 542.9512224 288 591 288 C 639.0487776 288 678 295.6111584 678 305 C 678 314.3888416 639.0487776 322 591 322 C 542.9512224 322 504 314.3888416 504 305 Z"/></g><g transform="translate(-302,-230) scale(1,1)"><path fill="none" stroke="#000000" d="M 504 305 C 504 295.6111584 542.9512224 288 591 288 C 639.0487776 288 678 295.6111584 678 305 C 678 314.3888416 639.0487776 322 591 322 C 542.9512224 322 504 314.3888416 504 305 Z" stroke-miterlimit="10"/></g><g transform="translate(-302,-230) scale(1,1)"><g><path fill="none" stroke="none"/><text fill="#000000" stroke="none" font-family="Arial" font-size="13px" font-style="normal" font-weight="bold" text-decoration="none" x="533.925048828125" y="310.5">Calificar Vendedor</text></g></g><g transform="translate(-302,-230) scale(1,1)"><path fill="#C0C0C0" stroke="none" d="M 679 592 C 679 582.6111584 721.3090864 575 773.5 575 C 825.6909136 575 868 582.6111584 868 592 C 868 601.3888416 825.6909136 609 773.5 609 C 721.3090864 609 679 601.3888416 679 592 Z" opacity="0.2"/></g><g transform="translate(-302,-230) scale(1,1)"><path fill="#ffffff" stroke="none" d="M 672 585 C 672 575.6111584 714.3090864 568 766.5 568 C 818.6909136 568 861 575.6111584 861 585 C 861 594.3888416 818.6909136 602 766.5 602 C 714.3090864 602 672 594.3888416 672 585 Z"/></g><g transform="translate(-302,-230) scale(1,1)"><path fill="none" stroke="#000000" d="M 672 585 C 672 575.6111584 714.3090864 568 766.5 568 C 818.6909136 568 861 575.6111584 861 585 C 861 594.3888416 818.6909136 602 766.5 602 C 714.3090864 602 672 594.3888416 672 585 Z" stroke-miterlimit="10"/></g><g transform="translate(-302,-230) scale(1,1)"><g><path fill="none" stroke="none"/><text fill="#000000" stroke="none" font-family="Arial" font-size="13px" font-style="normal" font-weight="bold" text-decoration="none" x="704.013671875" y="590.5">Calificar Comprador</text></g></g><g transform="translate(-302,-230) scale(1,1)"><path fill="none" stroke="#000000" d="M 392 336 L 503 319" stroke-miterlimit="10"/></g><g transform="translate(-302,-230) scale(1,1)"><path fill="none" stroke="#000000" d="M 959 583 L 862 584" stroke-miterlimit="10"/></g><g transform="translate(-302,-230) scale(1,1)"><path fill="#C0C0C0" stroke="none" d="M 511 464 C 511 454.6111584 533.6096176 447 561.5 447 C 589.3903824 447 612 454.6111584 612 464 C 612 473.3888416 589.3903824 481 561.5 481 C 533.6096176 481 511 473.3888416 511 464 Z" opacity="0.2"/></g><g transform="translate(-302,-230) scale(1,1)"><path fill="#ffffff" stroke="none" d="M 504 457 C 504 447.6111584 526.6096176 440 554.5 440 C 582.3903824 440 605 447.6111584 605 457 C 605 466.3888416 582.3903824 474 554.5 474 C 526.6096176 474 504 466.3888416 504 457 Z"/></g><g transform="translate(-302,-230) scale(1,1)"><path fill="none" stroke="#000000" d="M 504 457 C 504 447.6111584 526.6096176 440 554.5 440 C 582.3903824 440 605 447.6111584 605 457 C 605 466.3888416 582.3903824 474 554.5 474 C 526.6096176 474 504 466.3888416 504 457 Z" stroke-miterlimit="10"/></g><g transform="translate(-302,-230) scale(1,1)"><g><path fill="none" stroke="none"/><text fill="#000000" stroke="none" font-family="Arial" font-size="13px" font-style="normal" font-weight="bold" text-decoration="none" x="528.84912109375" y="462.5">Calificar</text></g></g><g transform="translate(-302,-230) scale(1,1)"><path fill="#C0C0C0" stroke="none" d="M 767 400 C 767 390.6111584 793.4151968 383 826 383 C 858.5848032 383 885 390.6111584 885 400 C 885 409.3888416 858.5848032 417 826 417 C 793.4151968 417 767 409.3888416 767 400 Z" opacity="0.2"/></g><g transform="translate(-302,-230) scale(1,1)"><path fill="#ffffff" stroke="none" d="M 760 393 C 760 383.6111584 786.4151968 376 819 376 C 851.5848032 376 878 383.6111584 878 393 C 878 402.3888416 851.5848032 410 819 410 C 786.4151968 410 760 402.3888416 760 393 Z"/></g><g transform="translate(-302,-230) scale(1,1)"><path fill="none" stroke="#000000" d="M 760 393 C 760 383.6111584 786.4151968 376 819 376 C 851.5848032 376 878 383.6111584 878 393 C 878 402.3888416 851.5848032 410 819 410 C 786.4151968 410 760 402.3888416 760 393 Z" stroke-miterlimit="10"/></g><g transform="translate(-302,-230) scale(1,1)"><g><path fill="none" stroke="none"/><text fill="#000000" stroke="none" font-family="Arial" font-size="13px" font-style="normal" font-weight="bold" text-decoration="none" x="781.793212890625" y="398.5">Descripción</text></g></g><g transform="translate(-302,-230) scale(1,1)"><path fill="none" stroke="#000000" d="M 587 323 L 558 439" stroke-miterlimit="10" stroke-dasharray="3"/></g><g transform="translate(-302,-230) scale(1,1)"><path fill="none" stroke="#000000" d="M 556.3809786184074 428.1197991854035 L 558 439 L 564.5486427788625 430.1617152255173" stroke-miterlimit="10"/></g><g transform="translate(-302,-230) scale(1,1)"><g><path fill="none" stroke="none"/><text fill="#000000" stroke="none" font-family="Arial" font-size="13px" font-style="normal" font-weight="normal" text-decoration="none" x="573.5" y="393">«include»</text></g></g><g transform="translate(-302,-230) scale(1,1)"><path fill="none" stroke="#000000" d="M 772 375 L 638 323" stroke-miterlimit="10" stroke-dasharray="3"/></g><g transform="translate(-302,-230) scale(1,1)"><path fill="none" stroke="#000000" d="M 648.9972087458349 322.7522101686272 L 638 323 L 645.9514147483767 330.6009870082311" stroke-miterlimit="10"/></g><g transform="translate(-302,-230) scale(1,1)"><g><path fill="none" stroke="none"/><text fill="#000000" stroke="none" font-family="Arial" font-size="13px" font-style="normal" font-weight="normal" text-decoration="none" x="667.5" y="381">«extend»</text></g></g><g transform="translate(-302,-230) scale(1,1)"><path fill="none" stroke="#000000" d="M 736 567 L 584 475" stroke-miterlimit="10" stroke-dasharray="3"/></g><g transform="translate(-302,-230) scale(1,1)"><path fill="none" stroke="#000000" d="M 594.8738687168053 476.66101749830716 L 584 475 L 590.5144695706629 483.8635030441078" stroke-miterlimit="10"/></g><g transform="translate(-302,-230) scale(1,1)"><g><path fill="none" stroke="none"/><text fill="#000000" stroke="none" font-family="Arial" font-size="13px" font-style="normal" font-weight="normal" text-decoration="none" x="616.5" y="551">«include»</text></g></g><g transform="translate(-302,-230) scale(1,1)"><path fill="none" stroke="#000000" d="M 814 411 L 771 567" stroke-miterlimit="10" stroke-dasharray="3"/></g><g transform="translate(-302,-230) scale(1,1)"><path fill="none" stroke="#000000" d="M 769.6423634932289 556.0841022762448 L 771 567 L 777.7587113228818 558.3213007164698" stroke-miterlimit="10"/></g><g transform="translate(-302,-230) scale(1,1)"><g><path fill="none" stroke="none"/><text fill="#000000" stroke="none" font-family="Arial" font-size="13px" font-style="normal" font-weight="normal" text-decoration="none" x="793.5" y="501">«extend»</text></g></g></g></svg>