<svg version="1.1" xmlns="http://www.w3.org/2000/svg" xmlns:xlink="http://www.w3.org/1999/xlink" width="808.236328125" height="396"><defs/><g><text fill="#eeeeee" stroke="none" font-family="Arial" font-size="24px" font-style="normal" font-weight="normal" text-decoration="none" x="0" y="0">UNREGISTERED</text><text fill="#eeeeee" stroke="none" font-family="Arial" font-size="24px" font-style="normal" font-weight="normal" text-decoration="none" x="0" y="30">UNREGISTERED</text><text fill="#eeeeee" stroke="none" font-family="Arial" font-size="24px" font-style="normal" font-weight="normal" text-decoration="none" x="0" y="60">UNREGISTERED</text><text fill="#eeeeee" stroke="none" font-family="Arial" font-size="24px" font-style="normal" font-weight="normal" text-decoration="none" x="0" y="90">UNREGISTERED</text><text fill="#eeeeee" stroke="none" font-family="Arial" font-size="24px" font-style="normal" font-weight="normal" text-decoration="none" x="0" y="120">UNREGISTERED</text><text fill="#eeeeee" stroke="none" font-family="Arial" font-size="24px" font-style="normal" font-weight="normal" text-decoration="none" x="0" y="150">UNREGISTERED</text><text fill="#eeeeee" stroke="none" font-family="Arial" font-size="24px" font-style="normal" font-weight="normal" text-decoration="none" x="0" y="180">UNREGISTERED</text><text fill="#eeeeee" stroke="none" font-family="Arial" font-size="24px" font-style="normal" font-weight="normal" text-decoration="none" x="0" y="210">UNREGISTERED</text><text fill="#eeeeee" stroke="none" font-family="Arial" font-size="24px" font-style="normal" font-weight="normal" text-decoration="none" x="0" y="240">UNREGISTERED</text><text fill="#eeeeee" stroke="none" font-family="Arial" font-size="24px" font-style="normal" font-weight="normal" text-decoration="none" x="0" y="270">UNREGISTERED</text><text fill="#eeeeee" stroke="none" font-family="Arial" font-size="24px" font-style="normal" font-weight="normal" text-decoration="none" x="0" y="300">UNREGISTERED</text><text fill="#eeeeee" stroke="none" font-family="Arial" font-size="24px" font-style="normal" font-weight="normal" text-decoration="none" x="0" y="330">UNREGISTERED</text><text fill="#eeeeee" stroke="none" font-family="Arial" font-size="24px" font-style="normal" font-weight="normal" text-decoration="none" x="0" y="360">UNREGISTERED</text><text fill="#eeeeee" stroke="none" font-family="Arial" font-size="24px" font-style="normal" font-weight="normal" text-decoration="none" x="0" y="390">UNREGISTERED</text><text fill="#eeeeee" stroke="none" font-family="Arial" font-size="24px" font-style="normal" font-weight="normal" text-decoration="none" x="200" y="0">UNREGISTERED</text><text fill="#eeeeee" stroke="none" font-family="Arial" font-size="24px" font-style="normal" font-weight="normal" text-decoration="none" x="200" y="30">UNREGISTERED</text><text fill="#eeeeee" stroke="none" font-family="Arial" font-size="24px" font-style="normal" font-weight="normal" text-decoration="none" x="200" y="60">UNREGISTERED</text><text fill="#eeeeee" stroke="none" font-family="Arial" font-size="24px" font-style="normal" font-weight="normal" text-decoration="none" x="200" y="90">UNREGISTERED</text><text fill="#eeeeee" stroke="none" font-family="Arial" font-size="24px" font-style="normal" font-weight="normal" text-decoration="none" x="200" y="120">UNREGISTERED</text><text fill="#eeeeee" stroke="none" font-family="Arial" font-size="24px" font-style="normal" font-weight="normal" text-decoration="none" x="200" y="150">UNREGISTERED</text><text fill="#eeeeee" stroke="none" font-family="Arial" font-size="24px" font-style="normal" font-weight="normal" text-decoration="none" x="200" y="180">UNREGISTERED</text><text fill="#eeeeee" stroke="none" font-family="Arial" font-size="24px" font-style="normal" font-weight="normal" text-decoration="none" x="200" y="210">UNREGISTERED</text><text fill="#eeeeee" stroke="none" font-family="Arial" font-size="24px" font-style="normal" font-weight="normal" text-decoration="none" x="200" y="240">UNREGISTERED</text><text fill="#eeeeee" stroke="none" font-family="Arial" font-size="24px" font-style="normal" font-weight="normal" text-decoration="none" x="200" y="270">UNREGISTERED</text><text fill="#eeeeee" stroke="none" font-family="Arial" font-size="24px" font-style="normal" font-weight="normal" text-decoration="none" x="200" y="300">UNREGISTERED</text><text fill="#eeeeee" stroke="none" font-family="Arial" font-size="24px" font-style="normal" font-weight="normal" text-decoration="none" x="200" y="330">UNREGISTERED</text><text fill="#eeeeee" stroke="none" font-family="Arial" font-size="24px" font-style="normal" font-weight="normal" text-decoration="none" x="200" y="360">UNREGISTERED</text><text fill="#eeeeee" stroke="none" font-family="Arial" font-size="24px" font-style="normal" font-weight="normal" text-decoration="none" x="200" y="390">UNREGISTERED</text><text fill="#eeeeee" stroke="none" font-family="Arial" font-size="24px" font-style="normal" font-weight="normal" text-decoration="none" x="400" y="0">UNREGISTERED</text><text fill="#eeeeee" stroke="none" font-family="Arial" font-size="24px" font-style="normal" font-weight="normal" text-decoration="none" x="400" y="30">UNREGISTERED</text><text fill="#eeeeee" stroke="none" font-family="Arial" font-size="24px" font-style="normal" font-weight="normal" text-decoration="none" x="400" y="60">UNREGISTERED</text><text fill="#eeeeee" stroke="none" font-family="Arial" font-size="24px" font-style="normal" font-weight="normal" text-decoration="none" x="400" y="90">UNREGISTERED</text><text fill="#eeeeee" stroke="none" font-family="Arial" font-size="24px" font-style="normal" font-weight="normal" text-decoration="none" x="400" y="120">UNREGISTERED</text><text fill="#eeeeee" stroke="none" font-family="Arial" font-size="24px" font-style="normal" font-weight="normal" text-decoration="none" x="400" y="150">UNREGISTERED</text><text fill="#eeeeee" stroke="none" font-family="Arial" font-size="24px" font-style="normal" font-weight="normal" text-decoration="none" x="400" y="180">UNREGISTERED</text><text fill="#eeeeee" stroke="none" font-family="Arial" font-size="24px" font-style="normal" font-weight="normal" text-decoration="none" x="400" y="210">UNREGISTERED</text><text fill="#eeeeee" stroke="none" font-family="Arial" font-size="24px" font-style="normal" font-weight="normal" text-decoration="none" x="400" y="240">UNREGISTERED</text><text fill="#eeeeee" stroke="none" font-family="Arial" font-size="24px" font-style="normal" font-weight="normal" text-decoration="none" x="400" y="270">UNREGISTERED</text><text fill="#eeeeee" stroke="none" font-family="Arial" font-size="24px" font-style="normal" font-weight="normal" text-decoration="none" x="400" y="300">UNREGISTERED</text><text fill="#eeeeee" stroke="none" font-family="Arial" font-size="24px" font-style="normal" font-weight="normal" text-decoration="none" x="400" y="330">UNREGISTERED</text><text fill="#eeeeee" stroke="none" font-family="Arial" font-size="24px" font-style="normal" font-weight="normal" text-decoration="none" x="400" y="360">UNREGISTERED</text><text fill="#eeeeee" stroke="none" font-family="Arial" font-size="24px" font-style="normal" font-weight="normal" text-decoration="none" x="400" y="390">UNREGISTERED</text><text fill="#eeeeee" stroke="none" font-family="Arial" font-size="24px" font-style="normal" font-weight="normal" text-decoration="none" x="600" y="0">UNREGISTERED</text><text fill="#eeeeee" stroke="none" font-family="Arial" font-size="24px" font-style="normal" font-weight="normal" text-decoration="none" x="600" y="30">UNREGISTERED</text><text fill="#eeeeee" stroke="none" font-family="Arial" font-size="24px" font-style="normal" font-weight="normal" text-decoration="none" x="600" y="60">UNREGISTERED</text><text fill="#eeeeee" stroke="none" font-family="Arial" font-size="24px" font-style="normal" font-weight="normal" text-decoration="none" x="600" y="90">UNREGISTERED</text><text fill="#eeeeee" stroke="none" font-family="Arial" font-size="24px" font-style="normal" font-weight="normal" text-decoration="none" x="600" y="120">UNREGISTERED</text><text fill="#eeeeee" stroke="none" font-family="Arial" font-size="24px" font-style="normal" font-weight="normal" text-decoration="none" x="600" y="150">UNREGISTERED</text><text fill="#eeeeee" stroke="none" font-family="Arial" font-size="24px" font-style="normal" font-weight="normal" text-decoration="none" x="600" y="180">UNREGISTERED</text><text fill="#eeeeee" stroke="none" font-family="Arial" font-size="24px" font-style="normal" font-weight="normal" text-decoration="none" x="600" y="210">UNREGISTERED</text><text fill="#eeeeee" stroke="none" font-family="Arial" font-size="24px" font-style="normal" font-weight="normal" text-decoration="none" x="600" y="240">UNREGISTERED</text><text fill="#eeeeee" stroke="none" font-family="Arial" font-size="24px" font-style="normal" font-weight="normal" text-decoration="none" x="600" y="270">UNREGISTERED</text><text fill="#eeeeee" stroke="none" font-family="Arial" font-size="24px" font-style="normal" font-weight="normal" text-decoration="none" x="600" y="300">UNREGISTERED</text><text fill="#eeeeee" stroke="none" font-family="Arial" font-size="24px" font-style="normal" font-weight="normal" text-decoration="none" x="600" y="330">UNREGISTERED</text><text fill="#eeeeee" stroke="none" font-family="Arial" font-size="24px" font-style="normal" font-weight="normal" text-decoration="none" x="600" y="360">UNREGISTERED</text><text fill="#eeeeee" stroke="none" font-family="Arial" font-size="24px" font-style="normal" font-weight="normal" text-decoration="none" x="600" y="390">UNREGISTERED</text><text fill="#eeeeee" stroke="none" font-family="Arial" font-size="24px" font-style="normal" font-weight="normal" text-decoration="none" x="800" y="0">UNREGISTERED</text><text fill="#eeeeee" stroke="none" font-family="Arial" font-size="24px" font-style="normal" font-weight="normal" text-decoration="none" x="800" y="30">UNREGISTERED</text><text fill="#eeeeee" stroke="none" font-family="Arial" font-size="24px" font-style="normal" font-weight="normal" text-decoration="none" x="800" y="60">UNREGISTERED</text><text fill="#eeeeee" stroke="none" font-family="Arial" font-size="24px" font-style="normal" font-weight="normal" text-decoration="none" x="800" y="90">UNREGISTERED</text><text fill="#eeeeee" stroke="none" font-family="Arial" font-size="24px" font-style="normal" font-weight="normal" text-decoration="none" x="800" y="120">UNREGISTERED</text><text fill="#eeeeee" stroke="none" font-family="Arial" font-size="24px" font-style="normal" font-weight="normal" text-decoration="none" x="800" y="150">UNREGISTERED</text><text fill="#eeeeee" stroke="none" font-family="Arial" font-size="24px" font-style="normal" font-weight="normal" text-decoration="none" x="800" y="180">UNREGISTERED</text><text fill="#eeeeee" stroke="none" font-family="Arial" font-size="24px" font-style="normal" font-weight="normal" text-decoration="none" x="800" y="210">UNREGISTERED</text><text fill="#eeeeee" stroke="none" font-family="Arial" font-size="24px" font-style="normal" font-weight="normal" text-decoration="none" x="800" y="240">UNREGISTERED</text><text fill="#eeeeee" stroke="none" font-family="Arial" font-size="24px" font-style="normal" font-weight="normal" text-decoration="none" x="800" y="270">UNREGISTERED</text><text fill="#eeeeee" stroke="none" font-family="Arial" font-size="24px" font-style="normal" font-weight="normal" text-decoration="none" x="800" y="300">UNREGISTERED</text><text fill="#eeeeee" stroke="none" font-family="Arial" font-size="24px" font-style="normal" font-weight="normal" text-decoration="none" x="800" y="330">UNREGISTERED</text><text fill="#eeeeee" stroke="none" font-family="Arial" font-size="24px" font-style="normal" font-weight="normal" text-decoration="none" x="800" y="360">UNREGISTERED</text><text fill="#eeeeee" stroke="none" font-family="Arial" font-size="24px" font-style="normal" font-weight="normal" text-decoration="none" x="800" y="390">UNREGISTERED</text><g transform="translate(-182,-278) scale(1,1)"><rect fill="#C0C0C0" stroke="none" x="567" y="295" width="328" height="376" opacity="0.2"/></g><g transform="translate(-182,-278) scale(1,1)"><rect fill="#ffffff" stroke="none" x="560" y="288" width="328" height="376"/></g><g transform="translate(-182,-278) scale(1,1)"><path fill="none" stroke="#000000" d="M 560 288 L 888 288 L 888 664 L 560 664 L 560 288 Z Z" stroke-miterlimit="10"/></g><g transform="translate(-182,-278) scale(1,1)"><g><path fill="none" stroke="none"/><text fill="#000000" stroke="none" font-family="Arial" font-size="13px" font-style="normal" font-weight="bold" text-decoration="none" x="641.27734375" y="305.7099609375">Ventana principal _ TR-001</text></g></g><g transform="translate(-182,-278) scale(1,1)"><path fill="#ffffff" stroke="none" d="M 478.85026828835225 345.68 C 478.85026828835225 340.886167936 482.73611061329774 337 487.529541015625 337 C 492.32297141795226 337 496.20881374289775 340.886167936 496.20881374289775 345.68 C 496.20881374289775 350.473832064 492.32297141795226 354.36 487.529541015625 354.36 C 482.73611061329774 354.36 478.85026828835225 350.473832064 478.85026828835225 345.68 Z"/></g><g transform="translate(-182,-278) scale(1,1)"><path fill="none" stroke="#000000" d="M 478.85026828835225 345.68 C 478.85026828835225 340.886167936 482.73611061329774 337 487.529541015625 337 C 492.32297141795226 337 496.20881374289775 340.886167936 496.20881374289775 345.68 C 496.20881374289775 350.473832064 492.32297141795226 354.36 487.529541015625 354.36 C 482.73611061329774 354.36 478.85026828835225 350.473832064 478.85026828835225 345.68 Z" stroke-miterlimit="10"/></g><g transform="translate(-182,-278) scale(1,1)"><path fill="none" stroke="#000000" d="M 487.529541015625 354.36 L 487.529541015625 371.64" stroke-miterlimit="10"/></g><g transform="translate(-182,-278) scale(1,1)"><path fill="none" stroke="#000000" d="M 478.33972283380683 360.84 L 496.71935919744317 360.84" stroke-miterlimit="10"/></g><g transform="translate(-182,-278) scale(1,1)"><path fill="none" stroke="#000000" d="M 487.529541015625 371.64 L 474.76590465198865 389" stroke-miterlimit="10"/></g><g transform="translate(-182,-278) scale(1,1)"><path fill="none" stroke="#000000" d="M 487.529541015625 371.64 L 500.29317737926135 389" stroke-miterlimit="10"/></g><g transform="translate(-182,-278) scale(1,1)"><g><path fill="none" stroke="none"/><text fill="#000000" stroke="none" font-family="Arial" font-size="13px" font-style="normal" font-weight="bold" text-decoration="none" x="452.5" y="407.7099609375">Comprador</text></g></g><g transform="translate(-182,-278) scale(1,1)"><path fill="#ffffff" stroke="none" d="M 937.4388913352273 545.6800000000001 C 937.4388913352273 540.8861679360001 941.3247336601727 537 946.1181640625 537 C 950.9115944648273 537 954.7974367897727 540.8861679360001 954.7974367897727 545.6800000000001 C 954.7974367897727 550.473832064 950.9115944648273 554.36 946.1181640625 554.36 C 941.3247336601727 554.36 937.4388913352273 550.473832064 937.4388913352273 545.6800000000001 Z"/></g><g transform="translate(-182,-278) scale(1,1)"><path fill="none" stroke="#000000" d="M 937.4388913352273 545.6800000000001 C 937.4388913352273 540.8861679360001 941.3247336601727 537 946.1181640625 537 C 950.9115944648273 537 954.7974367897727 540.8861679360001 954.7974367897727 545.6800000000001 C 954.7974367897727 550.473832064 950.9115944648273 554.36 946.1181640625 554.36 C 941.3247336601727 554.36 937.4388913352273 550.473832064 937.4388913352273 545.6800000000001 Z" stroke-miterlimit="10"/></g><g transform="translate(-182,-278) scale(1,1)"><path fill="none" stroke="#000000" d="M 946.1181640625 554.36 L 946.1181640625 571.64" stroke-miterlimit="10"/></g><g transform="translate(-182,-278) scale(1,1)"><path fill="none" stroke="#000000" d="M 936.9283458806818 560.84 L 955.3079822443182 560.84" stroke-miterlimit="10"/></g><g transform="translate(-182,-278) scale(1,1)"><path fill="none" stroke="#000000" d="M 946.1181640625 571.64 L 933.3545276988636 589" stroke-miterlimit="10"/></g><g transform="translate(-182,-278) scale(1,1)"><path fill="none" stroke="#000000" d="M 946.1181640625 571.64 L 958.8818004261364 589" stroke-miterlimit="10"/></g><g transform="translate(-182,-278) scale(1,1)"><g><path fill="none" stroke="none"/><text fill="#000000" stroke="none" font-family="Arial" font-size="13px" font-style="normal" font-weight="bold" text-decoration="none" x="916.5" y="607.7099609375">Vendedor</text></g></g><g transform="translate(-182,-278) scale(1,1)"><path fill="#C0C0C0" stroke="none" d="M 671 368 C 671 358.6111584 707.0410736 351 751.5 351 C 795.9589264 351 832 358.6111584 832 368 C 832 377.3888416 795.9589264 385 751.5 385 C 707.0410736 385 671 377.3888416 671 368 Z" opacity="0.2"/></g><g transform="translate(-182,-278) scale(1,1)"><path fill="#ffffff" stroke="none" d="M 664 361 C 664 351.6111584 700.0410736 344 744.5 344 C 788.9589264 344 825 351.6111584 825 361 C 825 370.3888416 788.9589264 378 744.5 378 C 700.0410736 378 664 370.3888416 664 361 Z"/></g><g transform="translate(-182,-278) scale(1,1)"><path fill="none" stroke="#000000" d="M 664 361 C 664 351.6111584 700.0410736 344 744.5 344 C 788.9589264 344 825 351.6111584 825 361 C 825 370.3888416 788.9589264 378 744.5 378 C 700.0410736 378 664 370.3888416 664 361 Z" stroke-miterlimit="10"/></g><g transform="translate(-182,-278) scale(1,1)"><g><path fill="none" stroke="none"/><text fill="#000000" stroke="none" font-family="Arial" font-size="13px" font-style="normal" font-weight="bold" text-decoration="none" x="692.11279296875" y="366.2099609375">Ingresar Sistema</text></g></g><g transform="translate(-182,-278) scale(1,1)"><path fill="#C0C0C0" stroke="none" d="M 591 480 C 591 470.6111584 624.8024976 463 666.5 463 C 708.1975024 463 742 470.6111584 742 480 C 742 489.3888416 708.1975024 497 666.5 497 C 624.8024976 497 591 489.3888416 591 480 Z" opacity="0.2"/></g><g transform="translate(-182,-278) scale(1,1)"><path fill="#ffffff" stroke="none" d="M 584 473 C 584 463.6111584 617.8024976 456 659.5 456 C 701.1975024 456 735 463.6111584 735 473 C 735 482.3888416 701.1975024 490 659.5 490 C 617.8024976 490 584 482.3888416 584 473 Z"/></g><g transform="translate(-182,-278) scale(1,1)"><path fill="none" stroke="#000000" d="M 584 473 C 584 463.6111584 617.8024976 456 659.5 456 C 701.1975024 456 735 463.6111584 735 473 C 735 482.3888416 701.1975024 490 659.5 490 C 617.8024976 490 584 482.3888416 584 473 Z" stroke-miterlimit="10"/></g><g transform="translate(-182,-278) scale(1,1)"><g><path fill="none" stroke="none"/><text fill="#000000" stroke="none" font-family="Arial" font-size="13px" font-style="normal" font-weight="bold" text-decoration="none" x="610.492919921875" y="478.2099609375">Visualizar Menu</text></g></g><g transform="translate(-182,-278) scale(1,1)"><path fill="#C0C0C0" stroke="none" d="M 687 584 C 687 574.6111584 717.6684912 567 755.5 567 C 793.3315088 567 824 574.6111584 824 584 C 824 593.3888416 793.3315088 601 755.5 601 C 717.6684912 601 687 593.3888416 687 584 Z" opacity="0.2"/></g><g transform="translate(-182,-278) scale(1,1)"><path fill="#ffffff" stroke="none" d="M 680 577 C 680 567.6111584 710.6684912 560 748.5 560 C 786.3315088 560 817 567.6111584 817 577 C 817 586.3888416 786.3315088 594 748.5 594 C 710.6684912 594 680 586.3888416 680 577 Z"/></g><g transform="translate(-182,-278) scale(1,1)"><path fill="none" stroke="#000000" d="M 680 577 C 680 567.6111584 710.6684912 560 748.5 560 C 786.3315088 560 817 567.6111584 817 577 C 817 586.3888416 786.3315088 594 748.5 594 C 710.6684912 594 680 586.3888416 680 577 Z" stroke-miterlimit="10"/></g><g transform="translate(-182,-278) scale(1,1)"><g><path fill="none" stroke="none"/><text fill="#000000" stroke="none" font-family="Arial" font-size="13px" font-style="normal" font-weight="bold" text-decoration="none" x="704.447265625" y="582.2861328125">Configuración</text></g></g><g transform="translate(-182,-278) scale(1,1)"><path fill="none" stroke="#000000" d="M 528 373 L 663 365" stroke-miterlimit="10"/></g><g transform="translate(-182,-278) scale(1,1)"><path fill="none" stroke="#000000" d="M 911 538 L 761 379" stroke-miterlimit="10"/></g><g transform="translate(-182,-278) scale(1,1)"><path fill="none" stroke="#000000" d="M 730 379 L 673 455" stroke-miterlimit="10" stroke-dasharray="3"/></g><g transform="translate(-182,-278) scale(1,1)"><path fill="none" stroke="#000000" d="M 675.7299907097618 444.3441494602911 L 673 455 L 682.4652191193873 449.39557076751026" stroke-miterlimit="10"/></g><g transform="translate(-182,-278) scale(1,1)"><g><path fill="none" stroke="none"/><text fill="#000000" stroke="none" font-family="Arial" font-size="13px" font-style="normal" font-weight="normal" text-decoration="none" x="697.5" y="438.7099609375">«include»</text></g></g><g transform="translate(-182,-278) scale(1,1)"><path fill="none" stroke="#000000" d="M 733 559 L 674 491" stroke-miterlimit="10" stroke-dasharray="3"/></g><g transform="translate(-182,-278) scale(1,1)"><path fill="none" stroke="#000000" d="M 683.8396860173781 495.91737522255664 L 674 491 L 677.480599342126 501.434818073143" stroke-miterlimit="10"/></g><g transform="translate(-182,-278) scale(1,1)"><g><path fill="none" stroke="none"/><text fill="#000000" stroke="none" font-family="Arial" font-size="13px" font-style="normal" font-weight="normal" text-decoration="none" x="653.5" y="548.7099609375">«extend»</text></g></g></g></svg>