<svg version="1.1" xmlns="http://www.w3.org/2000/svg" xmlns:xlink="http://www.w3.org/1999/xlink" width="636" height="508"><defs/><g><text fill="#eeeeee" stroke="none" font-family="Arial" font-size="24px" font-style="normal" font-weight="normal" text-decoration="none" x="0" y="0">UNREGISTERED</text><text fill="#eeeeee" stroke="none" font-family="Arial" font-size="24px" font-style="normal" font-weight="normal" text-decoration="none" x="0" y="30">UNREGISTERED</text><text fill="#eeeeee" stroke="none" font-family="Arial" font-size="24px" font-style="normal" font-weight="normal" text-decoration="none" x="0" y="60">UNREGISTERED</text><text fill="#eeeeee" stroke="none" font-family="Arial" font-size="24px" font-style="normal" font-weight="normal" text-decoration="none" x="0" y="90">UNREGISTERED</text><text fill="#eeeeee" stroke="none" font-family="Arial" font-size="24px" font-style="normal" font-weight="normal" text-decoration="none" x="0" y="120">UNREGISTERED</text><text fill="#eeeeee" stroke="none" font-family="Arial" font-size="24px" font-style="normal" font-weight="normal" text-decoration="none" x="0" y="150">UNREGISTERED</text><text fill="#eeeeee" stroke="none" font-family="Arial" font-size="24px" font-style="normal" font-weight="normal" text-decoration="none" x="0" y="180">UNREGISTERED</text><text fill="#eeeeee" stroke="none" font-family="Arial" font-size="24px" font-style="normal" font-weight="normal" text-decoration="none" x="0" y="210">UNREGISTERED</text><text fill="#eeeeee" stroke="none" font-family="Arial" font-size="24px" font-style="normal" font-weight="normal" text-decoration="none" x="0" y="240">UNREGISTERED</text><text fill="#eeeeee" stroke="none" font-family="Arial" font-size="24px" font-style="normal" font-weight="normal" text-decoration="none" x="0" y="270">UNREGISTERED</text><text fill="#eeeeee" stroke="none" font-family="Arial" font-size="24px" font-style="normal" font-weight="normal" text-decoration="none" x="0" y="300">UNREGISTERED</text><text fill="#eeeeee" stroke="none" font-family="Arial" font-size="24px" font-style="normal" font-weight="normal" text-decoration="none" x="0" y="330">UNREGISTERED</text><text fill="#eeeeee" stroke="none" font-family="Arial" font-size="24px" font-style="normal" font-weight="normal" text-decoration="none" x="0" y="360">UNREGISTERED</text><text fill="#eeeeee" stroke="none" font-family="Arial" font-size="24px" font-style="normal" font-weight="normal" text-decoration="none" x="0" y="390">UNREGISTERED</text><text fill="#eeeeee" stroke="none" font-family="Arial" font-size="24px" font-style="normal" font-weight="normal" text-decoration="none" x="0" y="420">UNREGISTERED</text><text fill="#eeeeee" stroke="none" font-family="Arial" font-size="24px" font-style="normal" font-weight="normal" text-decoration="none" x="0" y="450">UNREGISTERED</text><text fill="#eeeeee" stroke="none" font-family="Arial" font-size="24px" font-style="normal" font-weight="normal" text-decoration="none" x="0" y="480">UNREGISTERED</text><text fill="#eeeeee" stroke="none" font-family="Arial" font-size="24px" font-style="normal" font-weight="normal" text-decoration="none" x="200" y="0">UNREGISTERED</text><text fill="#eeeeee" stroke="none" font-family="Arial" font-size="24px" font-style="normal" font-weight="normal" text-decoration="none" x="200" y="30">UNREGISTERED</text><text fill="#eeeeee" stroke="none" font-family="Arial" font-size="24px" font-style="normal" font-weight="normal" text-decoration="none" x="200" y="60">UNREGISTERED</text><text fill="#eeeeee" stroke="none" font-family="Arial" font-size="24px" font-style="normal" font-weight="normal" text-decoration="none" x="200" y="90">UNREGISTERED</text><text fill="#eeeeee" stroke="none" font-family="Arial" font-size="24px" font-style="normal" font-weight="normal" text-decoration="none" x="200" y="120">UNREGISTERED</text><text fill="#eeeeee" stroke="none" font-family="Arial" font-size="24px" font-style="normal" font-weight="normal" text-decoration="none" x="200" y="150">UNREGISTERED</text><text fill="#eeeeee" stroke="none" font-family="Arial" font-size="24px" font-style="normal" font-weight="normal" text-decoration="none" x="200" y="180">UNREGISTERED</text><text fill="#eeeeee" stroke="none" font-family="Arial" font-size="24px" font-style="normal" font-weight="normal" text-decoration="none" x="200" y="210">UNREGISTERED</text><text fill="#eeeeee" stroke="none" font-family="Arial" font-size="24px" font-style="normal" font-weight="normal" text-decoration="none" x="200" y="240">UNREGISTERED</text><text fill="#eeeeee" stroke="none" font-family="Arial" font-size="24px" font-style="normal" font-weight="normal" text-decoration="none" x="200" y="270">UNREGISTERED</text><text fill="#eeeeee" stroke="none" font-family="Arial" font-size="24px" font-style="normal" font-weight="normal" text-decoration="none" x="200" y="300">UNREGISTERED</text><text fill="#eeeeee" stroke="none" font-family="Arial" font-size="24px" font-style="normal" font-weight="normal" text-decoration="none" x="200" y="330">UNREGISTERED</text><text fill="#eeeeee" stroke="none" font-family="Arial" font-size="24px" font-style="normal" font-weight="normal" text-decoration="none" x="200" y="360">UNREGISTERED</text><text fill="#eeeeee" stroke="none" font-family="Arial" font-size="24px" font-style="normal" font-weight="normal" text-decoration="none" x="200" y="390">UNREGISTERED</text><text fill="#eeeeee" stroke="none" font-family="Arial" font-size="24px" font-style="normal" font-weight="normal" text-decoration="none" x="200" y="420">UNREGISTERED</text><text fill="#eeeeee" stroke="none" font-family="Arial" font-size="24px" font-style="normal" font-weight="normal" text-decoration="none" x="200" y="450">UNREGISTERED</text><text fill="#eeeeee" stroke="none" font-family="Arial" font-size="24px" font-style="normal" font-weight="normal" text-decoration="none" x="200" y="480">UNREGISTERED</text><text fill="#eeeeee" stroke="none" font-family="Arial" font-size="24px" font-style="normal" font-weight="normal" text-decoration="none" x="400" y="0">UNREGISTERED</text><text fill="#eeeeee" stroke="none" font-family="Arial" font-size="24px" font-style="normal" font-weight="normal" text-decoration="none" x="400" y="30">UNREGISTERED</text><text fill="#eeeeee" stroke="none" font-family="Arial" font-size="24px" font-style="normal" font-weight="normal" text-decoration="none" x="400" y="60">UNREGISTERED</text><text fill="#eeeeee" stroke="none" font-family="Arial" font-size="24px" font-style="normal" font-weight="normal" text-decoration="none" x="400" y="90">UNREGISTERED</text><text fill="#eeeeee" stroke="none" font-family="Arial" font-size="24px" font-style="normal" font-weight="normal" text-decoration="none" x="400" y="120">UNREGISTERED</text><text fill="#eeeeee" stroke="none" font-family="Arial" font-size="24px" font-style="normal" font-weight="normal" text-decoration="none" x="400" y="150">UNREGISTERED</text><text fill="#eeeeee" stroke="none" font-family="Arial" font-size="24px" font-style="normal" font-weight="normal" text-decoration="none" x="400" y="180">UNREGISTERED</text><text fill="#eeeeee" stroke="none" font-family="Arial" font-size="24px" font-style="normal" font-weight="normal" text-decoration="none" x="400" y="210">UNREGISTERED</text><text fill="#eeeeee" stroke="none" font-family="Arial" font-size="24px" font-style="normal" font-weight="normal" text-decoration="none" x="400" y="240">UNREGISTERED</text><text fill="#eeeeee" stroke="none" font-family="Arial" font-size="24px" font-style="normal" font-weight="normal" text-decoration="none" x="400" y="270">UNREGISTERED</text><text fill="#eeeeee" stroke="none" font-family="Arial" font-size="24px" font-style="normal" font-weight="normal" text-decoration="none" x="400" y="300">UNREGISTERED</text><text fill="#eeeeee" stroke="none" font-family="Arial" font-size="24px" font-style="normal" font-weight="normal" text-decoration="none" x="400" y="330">UNREGISTERED</text><text fill="#eeeeee" stroke="none" font-family="Arial" font-size="24px" font-style="normal" font-weight="normal" text-decoration="none" x="400" y="360">UNREGISTERED</text><text fill="#eeeeee" stroke="none" font-family="Arial" font-size="24px" font-style="normal" font-weight="normal" text-decoration="none" x="400" y="390">UNREGISTERED</text><text fill="#eeeeee" stroke="none" font-family="Arial" font-size="24px" font-style="normal" font-weight="normal" text-decoration="none" x="400" y="420">UNREGISTERED</text><text fill="#eeeeee" stroke="none" font-family="Arial" font-size="24px" font-style="normal" font-weight="normal" text-decoration="none" x="400" y="450">UNREGISTERED</text><text fill="#eeeeee" stroke="none" font-family="Arial" font-size="24px" font-style="normal" font-weight="normal" text-decoration="none" x="400" y="480">UNREGISTERED</text><text fill="#eeeeee" stroke="none" font-family="Arial" font-size="24px" font-style="normal" font-weight="normal" text-decoration="none" x="600" y="0">UNREGISTERED</text><text fill="#eeeeee" stroke="none" font-family="Arial" font-size="24px" font-style="normal" font-weight="normal" text-decoration="none" x="600" y="30">UNREGISTERED</text><text fill="#eeeeee" stroke="none" font-family="Arial" font-size="24px" font-style="normal" font-weight="normal" text-decoration="none" x="600" y="60">UNREGISTERED</text><text fill="#eeeeee" stroke="none" font-family="Arial" font-size="24px" font-style="normal" font-weight="normal" text-decoration="none" x="600" y="90">UNREGISTERED</text><text fill="#eeeeee" stroke="none" font-family="Arial" font-size="24px" font-style="normal" font-weight="normal" text-decoration="none" x="600" y="120">UNREGISTERED</text><text fill="#eeeeee" stroke="none" font-family="Arial" font-size="24px" font-style="normal" font-weight="normal" text-decoration="none" x="600" y="150">UNREGISTERED</text><text fill="#eeeeee" stroke="none" font-family="Arial" font-size="24px" font-style="normal" font-weight="normal" text-decoration="none" x="600" y="180">UNREGISTERED</text><text fill="#eeeeee" stroke="none" font-family="Arial" font-size="24px" font-style="normal" font-weight="normal" text-decoration="none" x="600" y="210">UNREGISTERED</text><text fill="#eeeeee" stroke="none" font-family="Arial" font-size="24px" font-style="normal" font-weight="normal" text-decoration="none" x="600" y="240">UNREGISTERED</text><text fill="#eeeeee" stroke="none" font-family="Arial" font-size="24px" font-style="normal" font-weight="normal" text-decoration="none" x="600" y="270">UNREGISTERED</text><text fill="#eeeeee" stroke="none" font-family="Arial" font-size="24px" font-style="normal" font-weight="normal" text-decoration="none" x="600" y="300">UNREGISTERED</text><text fill="#eeeeee" stroke="none" font-family="Arial" font-size="24px" font-style="normal" font-weight="normal" text-decoration="none" x="600" y="330">UNREGISTERED</text><text fill="#eeeeee" stroke="none" font-family="Arial" font-size="24px" font-style="normal" font-weight="normal" text-decoration="none" x="600" y="360">UNREGISTERED</text><text fill="#eeeeee" stroke="none" font-family="Arial" font-size="24px" font-style="normal" font-weight="normal" text-decoration="none" x="600" y="390">UNREGISTERED</text><text fill="#eeeeee" stroke="none" font-family="Arial" font-size="24px" font-style="normal" font-weight="normal" text-decoration="none" x="600" y="420">UNREGISTERED</text><text fill="#eeeeee" stroke="none" font-family="Arial" font-size="24px" font-style="normal" font-weight="normal" text-decoration="none" x="600" y="450">UNREGISTERED</text><text fill="#eeeeee" stroke="none" font-family="Arial" font-size="24px" font-style="normal" font-weight="normal" text-decoration="none" x="600" y="480">UNREGISTERED</text><g transform="translate(-350,-246) scale(1,1)"><rect fill="#C0C0C0" stroke="none" x="503" y="263" width="480" height="488" opacity="0.2"/></g><g transform="translate(-350,-246) scale(1,1)"><rect fill="#ffffff" stroke="none" x="496" y="256" width="480" height="488"/></g><g transform="translate(-350,-246) scale(1,1)"><path fill="none" stroke="#000000" d="M 496 256 L 976 256 L 976 744 L 496 744 L 496 256 Z Z" stroke-miterlimit="10"/></g><g transform="translate(-350,-246) scale(1,1)"><g><path fill="none" stroke="none"/><text fill="#000000" stroke="none" font-family="Arial" font-size="13px" font-style="normal" font-weight="bold" text-decoration="none" x="658.32373046875" y="273.7099609375">Revisar compra _ TR-004</text></g></g><g transform="translate(-350,-246) scale(1,1)"><path fill="#ffffff" stroke="none" d="M 390.85026828835225 441.68 C 390.85026828835225 436.886167936 394.73611061329774 433 399.529541015625 433 C 404.32297141795226 433 408.20881374289775 436.886167936 408.20881374289775 441.68 C 408.20881374289775 446.473832064 404.32297141795226 450.36 399.529541015625 450.36 C 394.73611061329774 450.36 390.85026828835225 446.473832064 390.85026828835225 441.68 Z"/></g><g transform="translate(-350,-246) scale(1,1)"><path fill="none" stroke="#000000" d="M 390.85026828835225 441.68 C 390.85026828835225 436.886167936 394.73611061329774 433 399.529541015625 433 C 404.32297141795226 433 408.20881374289775 436.886167936 408.20881374289775 441.68 C 408.20881374289775 446.473832064 404.32297141795226 450.36 399.529541015625 450.36 C 394.73611061329774 450.36 390.85026828835225 446.473832064 390.85026828835225 441.68 Z" stroke-miterlimit="10"/></g><g transform="translate(-350,-246) scale(1,1)"><path fill="none" stroke="#000000" d="M 399.529541015625 450.36 L 399.529541015625 467.64" stroke-miterlimit="10"/></g><g transform="translate(-350,-246) scale(1,1)"><path fill="none" stroke="#000000" d="M 390.33972283380683 456.84 L 408.71935919744317 456.84" stroke-miterlimit="10"/></g><g transform="translate(-350,-246) scale(1,1)"><path fill="none" stroke="#000000" d="M 399.529541015625 467.64 L 386.76590465198865 485" stroke-miterlimit="10"/></g><g transform="translate(-350,-246) scale(1,1)"><path fill="none" stroke="#000000" d="M 399.529541015625 467.64 L 412.29317737926135 485" stroke-miterlimit="10"/></g><g transform="translate(-350,-246) scale(1,1)"><g><path fill="none" stroke="none"/><text fill="#000000" stroke="none" font-family="Arial" font-size="13px" font-style="normal" font-weight="bold" text-decoration="none" x="364.5" y="503.7099609375">Comprador</text></g></g><g transform="translate(-350,-246) scale(1,1)"><path fill="#C0C0C0" stroke="none" d="M 655 360 C 655 350.6111584 689.4740704 343 732 343 C 774.5259296 343 809 350.6111584 809 360 C 809 369.3888416 774.5259296 377 732 377 C 689.4740704 377 655 369.3888416 655 360 Z" opacity="0.2"/></g><g transform="translate(-350,-246) scale(1,1)"><path fill="#ffffff" stroke="none" d="M 648 353 C 648 343.6111584 682.4740704 336 725 336 C 767.5259296 336 802 343.6111584 802 353 C 802 362.3888416 767.5259296 370 725 370 C 682.4740704 370 648 362.3888416 648 353 Z"/></g><g transform="translate(-350,-246) scale(1,1)"><path fill="none" stroke="#000000" d="M 648 353 C 648 343.6111584 682.4740704 336 725 336 C 767.5259296 336 802 343.6111584 802 353 C 802 362.3888416 767.5259296 370 725 370 C 682.4740704 370 648 362.3888416 648 353 Z" stroke-miterlimit="10"/></g><g transform="translate(-350,-246) scale(1,1)"><g><path fill="none" stroke="none"/><text fill="#000000" stroke="none" font-family="Arial" font-size="13px" font-style="normal" font-weight="bold" text-decoration="none" x="675.1455078125" y="358.2099609375">Revisar Compra</text></g></g><g transform="translate(-350,-246) scale(1,1)"><path fill="#C0C0C0" stroke="none" d="M 655 464 C 655 454.6111584 689.0263552 447 731 447 C 772.9736448 447 807 454.6111584 807 464 C 807 473.3888416 772.9736448 481 731 481 C 689.0263552 481 655 473.3888416 655 464 Z" opacity="0.2"/></g><g transform="translate(-350,-246) scale(1,1)"><path fill="#ffffff" stroke="none" d="M 648 457 C 648 447.6111584 682.0263552 440 724 440 C 765.9736448 440 800 447.6111584 800 457 C 800 466.3888416 765.9736448 474 724 474 C 682.0263552 474 648 466.3888416 648 457 Z"/></g><g transform="translate(-350,-246) scale(1,1)"><path fill="none" stroke="#000000" d="M 648 457 C 648 447.6111584 682.0263552 440 724 440 C 765.9736448 440 800 447.6111584 800 457 C 800 466.3888416 765.9736448 474 724 474 C 682.0263552 474 648 466.3888416 648 457 Z" stroke-miterlimit="10"/></g><g transform="translate(-350,-246) scale(1,1)"><g><path fill="none" stroke="none"/><text fill="#000000" stroke="none" font-family="Arial" font-size="13px" font-style="normal" font-weight="bold" text-decoration="none" x="674.8818359375" y="462.2099609375">Lista Productos</text></g></g><g transform="translate(-350,-246) scale(1,1)"><path fill="#C0C0C0" stroke="none" d="M 551 600 C 551 590.6111584 589.2796496 583 636.5 583 C 683.7203504 583 722 590.6111584 722 600 C 722 609.3888416 683.7203504 617 636.5 617 C 589.2796496 617 551 609.3888416 551 600 Z" opacity="0.2"/></g><g transform="translate(-350,-246) scale(1,1)"><path fill="#ffffff" stroke="none" d="M 544 593 C 544 583.6111584 582.2796496 576 629.5 576 C 676.7203504 576 715 583.6111584 715 593 C 715 602.3888416 676.7203504 610 629.5 610 C 582.2796496 610 544 602.3888416 544 593 Z"/></g><g transform="translate(-350,-246) scale(1,1)"><path fill="none" stroke="#000000" d="M 544 593 C 544 583.6111584 582.2796496 576 629.5 576 C 676.7203504 576 715 583.6111584 715 593 C 715 602.3888416 676.7203504 610 629.5 610 C 582.2796496 610 544 602.3888416 544 593 Z" stroke-miterlimit="10"/></g><g transform="translate(-350,-246) scale(1,1)"><g><path fill="none" stroke="none"/><text fill="#000000" stroke="none" font-family="Arial" font-size="13px" font-style="normal" font-weight="bold" text-decoration="none" x="573.52001953125" y="598.2099609375">Eliminar Producto</text></g></g><g transform="translate(-350,-246) scale(1,1)"><path fill="#C0C0C0" stroke="none" d="M 767 592 C 767 582.6111584 804.6080768 575 851 575 C 897.3919232 575 935 582.6111584 935 592 C 935 601.3888416 897.3919232 609 851 609 C 804.6080768 609 767 601.3888416 767 592 Z" opacity="0.2"/></g><g transform="translate(-350,-246) scale(1,1)"><path fill="#ffffff" stroke="none" d="M 760 585 C 760 575.6111584 797.6080768 568 844 568 C 890.3919232 568 928 575.6111584 928 585 C 928 594.3888416 890.3919232 602 844 602 C 797.6080768 602 760 594.3888416 760 585 Z"/></g><g transform="translate(-350,-246) scale(1,1)"><path fill="none" stroke="#000000" d="M 760 585 C 760 575.6111584 797.6080768 568 844 568 C 890.3919232 568 928 575.6111584 928 585 C 928 594.3888416 890.3919232 602 844 602 C 797.6080768 602 760 594.3888416 760 585 Z" stroke-miterlimit="10"/></g><g transform="translate(-350,-246) scale(1,1)"><g><path fill="none" stroke="none"/><text fill="#000000" stroke="none" font-family="Arial" font-size="13px" font-style="normal" font-weight="bold" text-decoration="none" x="791.9873046875" y="590.2099609375">Publicar Compra</text></g></g><g transform="translate(-350,-246) scale(1,1)"><path fill="none" stroke="#000000" d="M 725 371 L 724 439" stroke-miterlimit="10" stroke-dasharray="3"/></g><g transform="translate(-350,-246) scale(1,1)"><path fill="none" stroke="#000000" d="M 719.9403722946846 428.7765258891981 L 724 439 L 728.3584975915118 428.9003218494456" stroke-miterlimit="10"/></g><g transform="translate(-350,-246) scale(1,1)"><g><path fill="none" stroke="none"/><text fill="#000000" stroke="none" font-family="Arial" font-size="13px" font-style="normal" font-weight="normal" text-decoration="none" x="725.5" y="408.7099609375">«include»</text></g></g><g transform="translate(-350,-246) scale(1,1)"><path fill="none" stroke="#000000" d="M 642 575 L 711 475" stroke-miterlimit="10" stroke-dasharray="3"/></g><g transform="translate(-350,-246) scale(1,1)"><path fill="none" stroke="#000000" d="M 708.6931303996803 485.7553871453853 L 711 475 L 701.7635896775122 480.9740040470894" stroke-miterlimit="10"/></g><g transform="translate(-350,-246) scale(1,1)"><g><path fill="none" stroke="none"/><text fill="#000000" stroke="none" font-family="Arial" font-size="13px" font-style="normal" font-weight="normal" text-decoration="none" x="624.5" y="511.7099609375">«extend»</text></g></g><g transform="translate(-350,-246) scale(1,1)"><path fill="none" stroke="#000000" d="M 827 567 L 741 475" stroke-miterlimit="10" stroke-dasharray="3"/></g><g transform="translate(-350,-246) scale(1,1)"><path fill="none" stroke="#000000" d="M 751.0150929406203 479.54949594908453 L 741 475 L 744.8647606959478 485.29871956910455" stroke-miterlimit="10"/></g><g transform="translate(-350,-246) scale(1,1)"><g><path fill="none" stroke="none"/><text fill="#000000" stroke="none" font-family="Arial" font-size="13px" font-style="normal" font-weight="normal" text-decoration="none" x="735.5" y="545.7099609375">«extend»</text></g></g><g transform="translate(-350,-246) scale(1,1)"><path fill="none" stroke="#000000" d="M 440 456 L 675 371" stroke-miterlimit="10"/></g><g transform="translate(-350,-246) scale(1,1)"><path fill="#C0C0C0" stroke="none" d="M 671 680 C 671 670.6111584 708.6080768 663 755 663 C 801.3919232 663 839 670.6111584 839 680 C 839 689.3888416 801.3919232 697 755 697 C 708.6080768 697 671 689.3888416 671 680 Z" opacity="0.2"/></g><g transform="translate(-350,-246) scale(1,1)"><path fill="#ffffff" stroke="none" d="M 664 673 C 664 663.6111584 701.6080768 656 748 656 C 794.3919232 656 832 663.6111584 832 673 C 832 682.3888416 794.3919232 690 748 690 C 701.6080768 690 664 682.3888416 664 673 Z"/></g><g transform="translate(-350,-246) scale(1,1)"><path fill="none" stroke="#000000" d="M 664 673 C 664 663.6111584 701.6080768 656 748 656 C 794.3919232 656 832 663.6111584 832 673 C 832 682.3888416 794.3919232 690 748 690 C 701.6080768 690 664 682.3888416 664 673 Z" stroke-miterlimit="10"/></g><g transform="translate(-350,-246) scale(1,1)"><g><path fill="none" stroke="none"/><text fill="#000000" stroke="none" font-family="Arial" font-size="13px" font-style="normal" font-weight="bold" text-decoration="none" x="693.108642578125" y="678.2099609375">Agregar producto</text></g></g><g transform="translate(-350,-246) scale(1,1)"><path fill="none" stroke="#000000" d="M 746 655 L 726 475" stroke-miterlimit="10" stroke-dasharray="3"/></g><g transform="translate(-350,-246) scale(1,1)"><path fill="none" stroke="#000000" d="M 731.3060509220539 484.63565377193316 L 726 475 L 722.9385084650058 485.5653807116052" stroke-miterlimit="10"/></g><g transform="translate(-350,-246) scale(1,1)"><g><path fill="none" stroke="none"/><text fill="#000000" stroke="none" font-family="Arial" font-size="13px" font-style="normal" font-weight="normal" text-decoration="none" x="679.5" y="572.7099609375">«extend»</text></g></g></g></svg>