<svg version="1.1" xmlns="http://www.w3.org/2000/svg" xmlns:xlink="http://www.w3.org/1999/xlink" width="668" height="356"><defs/><g><text fill="#eeeeee" stroke="none" font-family="Arial" font-size="24px" font-style="normal" font-weight="normal" text-decoration="none" x="0" y="0">UNREGISTERED</text><text fill="#eeeeee" stroke="none" font-family="Arial" font-size="24px" font-style="normal" font-weight="normal" text-decoration="none" x="0" y="30">UNREGISTERED</text><text fill="#eeeeee" stroke="none" font-family="Arial" font-size="24px" font-style="normal" font-weight="normal" text-decoration="none" x="0" y="60">UNREGISTERED</text><text fill="#eeeeee" stroke="none" font-family="Arial" font-size="24px" font-style="normal" font-weight="normal" text-decoration="none" x="0" y="90">UNREGISTERED</text><text fill="#eeeeee" stroke="none" font-family="Arial" font-size="24px" font-style="normal" font-weight="normal" text-decoration="none" x="0" y="120">UNREGISTERED</text><text fill="#eeeeee" stroke="none" font-family="Arial" font-size="24px" font-style="normal" font-weight="normal" text-decoration="none" x="0" y="150">UNREGISTERED</text><text fill="#eeeeee" stroke="none" font-family="Arial" font-size="24px" font-style="normal" font-weight="normal" text-decoration="none" x="0" y="180">UNREGISTERED</text><text fill="#eeeeee" stroke="none" font-family="Arial" font-size="24px" font-style="normal" font-weight="normal" text-decoration="none" x="0" y="210">UNREGISTERED</text><text fill="#eeeeee" stroke="none" font-family="Arial" font-size="24px" font-style="normal" font-weight="normal" text-decoration="none" x="0" y="240">UNREGISTERED</text><text fill="#eeeeee" stroke="none" font-family="Arial" font-size="24px" font-style="normal" font-weight="normal" text-decoration="none" x="0" y="270">UNREGISTERED</text><text fill="#eeeeee" stroke="none" font-family="Arial" font-size="24px" font-style="normal" font-weight="normal" text-decoration="none" x="0" y="300">UNREGISTERED</text><text fill="#eeeeee" stroke="none" font-family="Arial" font-size="24px" font-style="normal" font-weight="normal" text-decoration="none" x="0" y="330">UNREGISTERED</text><text fill="#eeeeee" stroke="none" font-family="Arial" font-size="24px" font-style="normal" font-weight="normal" text-decoration="none" x="200" y="0">UNREGISTERED</text><text fill="#eeeeee" stroke="none" font-family="Arial" font-size="24px" font-style="normal" font-weight="normal" text-decoration="none" x="200" y="30">UNREGISTERED</text><text fill="#eeeeee" stroke="none" font-family="Arial" font-size="24px" font-style="normal" font-weight="normal" text-decoration="none" x="200" y="60">UNREGISTERED</text><text fill="#eeeeee" stroke="none" font-family="Arial" font-size="24px" font-style="normal" font-weight="normal" text-decoration="none" x="200" y="90">UNREGISTERED</text><text fill="#eeeeee" stroke="none" font-family="Arial" font-size="24px" font-style="normal" font-weight="normal" text-decoration="none" x="200" y="120">UNREGISTERED</text><text fill="#eeeeee" stroke="none" font-family="Arial" font-size="24px" font-style="normal" font-weight="normal" text-decoration="none" x="200" y="150">UNREGISTERED</text><text fill="#eeeeee" stroke="none" font-family="Arial" font-size="24px" font-style="normal" font-weight="normal" text-decoration="none" x="200" y="180">UNREGISTERED</text><text fill="#eeeeee" stroke="none" font-family="Arial" font-size="24px" font-style="normal" font-weight="normal" text-decoration="none" x="200" y="210">UNREGISTERED</text><text fill="#eeeeee" stroke="none" font-family="Arial" font-size="24px" font-style="normal" font-weight="normal" text-decoration="none" x="200" y="240">UNREGISTERED</text><text fill="#eeeeee" stroke="none" font-family="Arial" font-size="24px" font-style="normal" font-weight="normal" text-decoration="none" x="200" y="270">UNREGISTERED</text><text fill="#eeeeee" stroke="none" font-family="Arial" font-size="24px" font-style="normal" font-weight="normal" text-decoration="none" x="200" y="300">UNREGISTERED</text><text fill="#eeeeee" stroke="none" font-family="Arial" font-size="24px" font-style="normal" font-weight="normal" text-decoration="none" x="200" y="330">UNREGISTERED</text><text fill="#eeeeee" stroke="none" font-family="Arial" font-size="24px" font-style="normal" font-weight="normal" text-decoration="none" x="400" y="0">UNREGISTERED</text><text fill="#eeeeee" stroke="none" font-family="Arial" font-size="24px" font-style="normal" font-weight="normal" text-decoration="none" x="400" y="30">UNREGISTERED</text><text fill="#eeeeee" stroke="none" font-family="Arial" font-size="24px" font-style="normal" font-weight="normal" text-decoration="none" x="400" y="60">UNREGISTERED</text><text fill="#eeeeee" stroke="none" font-family="Arial" font-size="24px" font-style="normal" font-weight="normal" text-decoration="none" x="400" y="90">UNREGISTERED</text><text fill="#eeeeee" stroke="none" font-family="Arial" font-size="24px" font-style="normal" font-weight="normal" text-decoration="none" x="400" y="120">UNREGISTERED</text><text fill="#eeeeee" stroke="none" font-family="Arial" font-size="24px" font-style="normal" font-weight="normal" text-decoration="none" x="400" y="150">UNREGISTERED</text><text fill="#eeeeee" stroke="none" font-family="Arial" font-size="24px" font-style="normal" font-weight="normal" text-decoration="none" x="400" y="180">UNREGISTERED</text><text fill="#eeeeee" stroke="none" font-family="Arial" font-size="24px" font-style="normal" font-weight="normal" text-decoration="none" x="400" y="210">UNREGISTERED</text><text fill="#eeeeee" stroke="none" font-family="Arial" font-size="24px" font-style="normal" font-weight="normal" text-decoration="none" x="400" y="240">UNREGISTERED</text><text fill="#eeeeee" stroke="none" font-family="Arial" font-size="24px" font-style="normal" font-weight="normal" text-decoration="none" x="400" y="270">UNREGISTERED</text><text fill="#eeeeee" stroke="none" font-family="Arial" font-size="24px" font-style="normal" font-weight="normal" text-decoration="none" x="400" y="300">UNREGISTERED</text><text fill="#eeeeee" stroke="none" font-family="Arial" font-size="24px" font-style="normal" font-weight="normal" text-decoration="none" x="400" y="330">UNREGISTERED</text><text fill="#eeeeee" stroke="none" font-family="Arial" font-size="24px" font-style="normal" font-weight="normal" text-decoration="none" x="600" y="0">UNREGISTERED</text><text fill="#eeeeee" stroke="none" font-family="Arial" font-size="24px" font-style="normal" font-weight="normal" text-decoration="none" x="600" y="30">UNREGISTERED</text><text fill="#eeeeee" stroke="none" font-family="Arial" font-size="24px" font-style="normal" font-weight="normal" text-decoration="none" x="600" y="60">UNREGISTERED</text><text fill="#eeeeee" stroke="none" font-family="Arial" font-size="24px" font-style="normal" font-weight="normal" text-decoration="none" x="600" y="90">UNREGISTERED</text><text fill="#eeeeee" stroke="none" font-family="Arial" font-size="24px" font-style="normal" font-weight="normal" text-decoration="none" x="600" y="120">UNREGISTERED</text><text fill="#eeeeee" stroke="none" font-family="Arial" font-size="24px" font-style="normal" font-weight="normal" text-decoration="none" x="600" y="150">UNREGISTERED</text><text fill="#eeeeee" stroke="none" font-family="Arial" font-size="24px" font-style="normal" font-weight="normal" text-decoration="none" x="600" y="180">UNREGISTERED</text><text fill="#eeeeee" stroke="none" font-family="Arial" font-size="24px" font-style="normal" font-weight="normal" text-decoration="none" x="600" y="210">UNREGISTERED</text><text fill="#eeeeee" stroke="none" font-family="Arial" font-size="24px" font-style="normal" font-weight="normal" text-decoration="none" x="600" y="240">UNREGISTERED</text><text fill="#eeeeee" stroke="none" font-family="Arial" font-size="24px" font-style="normal" font-weight="normal" text-decoration="none" x="600" y="270">UNREGISTERED</text><text fill="#eeeeee" stroke="none" font-family="Arial" font-size="24px" font-style="normal" font-weight="normal" text-decoration="none" x="600" y="300">UNREGISTERED</text><text fill="#eeeeee" stroke="none" font-family="Arial" font-size="24px" font-style="normal" font-weight="normal" text-decoration="none" x="600" y="330">UNREGISTERED</text><g transform="translate(-230,-230) scale(1,1)"><rect fill="#C0C0C0" stroke="none" x="383" y="247" width="512" height="336" opacity="0.2"/></g><g transform="translate(-230,-230) scale(1,1)"><rect fill="#ffffff" stroke="none" x="376" y="240" width="512" height="336"/></g><g transform="translate(-230,-230) scale(1,1)"><path fill="none" stroke="#000000" d="M 376 240 L 888 240 L 888 576 L 376 576 L 376 240 Z Z" stroke-miterlimit="10"/></g><g transform="translate(-230,-230) scale(1,1)"><g><path fill="none" stroke="none"/><text fill="#000000" stroke="none" font-family="Arial" font-size="13px" font-style="normal" font-weight="bold" text-decoration="none" x="492.189697265625" y="257.70361328125">Ver oferta _ TR-010 y Aceptar Oferta _ TR-011</text></g></g><g transform="translate(-230,-230) scale(1,1)"><path fill="#ffffff" stroke="none" d="M 270.85026828835225 393.68 C 270.85026828835225 388.886167936 274.73611061329774 385 279.529541015625 385 C 284.32297141795226 385 288.20881374289775 388.886167936 288.20881374289775 393.68 C 288.20881374289775 398.473832064 284.32297141795226 402.36 279.529541015625 402.36 C 274.73611061329774 402.36 270.85026828835225 398.473832064 270.85026828835225 393.68 Z"/></g><g transform="translate(-230,-230) scale(1,1)"><path fill="none" stroke="#000000" d="M 270.85026828835225 393.68 C 270.85026828835225 388.886167936 274.73611061329774 385 279.529541015625 385 C 284.32297141795226 385 288.20881374289775 388.886167936 288.20881374289775 393.68 C 288.20881374289775 398.473832064 284.32297141795226 402.36 279.529541015625 402.36 C 274.73611061329774 402.36 270.85026828835225 398.473832064 270.85026828835225 393.68 Z" stroke-miterlimit="10"/></g><g transform="translate(-230,-230) scale(1,1)"><path fill="none" stroke="#000000" d="M 279.529541015625 402.36 L 279.529541015625 419.64" stroke-miterlimit="10"/></g><g transform="translate(-230,-230) scale(1,1)"><path fill="none" stroke="#000000" d="M 270.33972283380683 408.84 L 288.71935919744317 408.84" stroke-miterlimit="10"/></g><g transform="translate(-230,-230) scale(1,1)"><path fill="none" stroke="#000000" d="M 279.529541015625 419.64 L 266.76590465198865 437" stroke-miterlimit="10"/></g><g transform="translate(-230,-230) scale(1,1)"><path fill="none" stroke="#000000" d="M 279.529541015625 419.64 L 292.29317737926135 437" stroke-miterlimit="10"/></g><g transform="translate(-230,-230) scale(1,1)"><g><path fill="none" stroke="none"/><text fill="#000000" stroke="none" font-family="Arial" font-size="13px" font-style="normal" font-weight="bold" text-decoration="none" x="244.5" y="455.7099609375">Comprador</text></g></g><g transform="translate(-230,-230) scale(1,1)"><path fill="#C0C0C0" stroke="none" d="M 487 320 C 487 310.6111584 530.2045168 303 583.5 303 C 636.7954832 303 680 310.6111584 680 320 C 680 329.3888416 636.7954832 337 583.5 337 C 530.2045168 337 487 329.3888416 487 320 Z" opacity="0.2"/></g><g transform="translate(-230,-230) scale(1,1)"><path fill="#ffffff" stroke="none" d="M 480 313 C 480 303.6111584 523.2045168 296 576.5 296 C 629.7954832 296 673 303.6111584 673 313 C 673 322.3888416 629.7954832 330 576.5 330 C 523.2045168 330 480 322.3888416 480 313 Z"/></g><g transform="translate(-230,-230) scale(1,1)"><path fill="none" stroke="#000000" d="M 480 313 C 480 303.6111584 523.2045168 296 576.5 296 C 629.7954832 296 673 303.6111584 673 313 C 673 322.3888416 629.7954832 330 576.5 330 C 523.2045168 330 480 322.3888416 480 313 Z" stroke-miterlimit="10"/></g><g transform="translate(-230,-230) scale(1,1)"><g><path fill="none" stroke="none"/><text fill="#000000" stroke="none" font-family="Arial" font-size="13px" font-style="normal" font-weight="bold" text-decoration="none" x="512.56640625" y="318.2099609375">Listar Notificaciones</text></g></g><g transform="translate(-230,-230) scale(1,1)"><path fill="none" stroke="#000000" d="M 320 408 L 527 331" stroke-miterlimit="10"/></g><g transform="translate(-230,-230) scale(1,1)"><path fill="#C0C0C0" stroke="none" d="M 527 416 C 527 406.6111584 549.6096176 399 577.5 399 C 605.3903824 399 628 406.6111584 628 416 C 628 425.3888416 605.3903824 433 577.5 433 C 549.6096176 433 527 425.3888416 527 416 Z" opacity="0.2"/></g><g transform="translate(-230,-230) scale(1,1)"><path fill="#ffffff" stroke="none" d="M 520 409 C 520 399.6111584 542.6096176 392 570.5 392 C 598.3903824 392 621 399.6111584 621 409 C 621 418.3888416 598.3903824 426 570.5 426 C 542.6096176 426 520 418.3888416 520 409 Z"/></g><g transform="translate(-230,-230) scale(1,1)"><path fill="none" stroke="#000000" d="M 520 409 C 520 399.6111584 542.6096176 392 570.5 392 C 598.3903824 392 621 399.6111584 621 409 C 621 418.3888416 598.3903824 426 570.5 426 C 542.6096176 426 520 418.3888416 520 409 Z" stroke-miterlimit="10"/></g><g transform="translate(-230,-230) scale(1,1)"><g><path fill="none" stroke="none"/><text fill="#000000" stroke="none" font-family="Arial" font-size="13px" font-style="normal" font-weight="bold" text-decoration="none" x="539.42822265625" y="414.20361328125">Ver Oferta</text></g></g><g transform="translate(-230,-230) scale(1,1)"><path fill="none" stroke="#000000" d="M 320 421 L 519 411" stroke-miterlimit="10"/></g><g transform="translate(-230,-230) scale(1,1)"><path fill="#C0C0C0" stroke="none" d="M 407 512 C 407 502.6111584 430.0573328 495 458.5 495 C 486.9426672 495 510 502.6111584 510 512 C 510 521.3888416 486.9426672 529 458.5 529 C 430.0573328 529 407 521.3888416 407 512 Z" opacity="0.2"/></g><g transform="translate(-230,-230) scale(1,1)"><path fill="#ffffff" stroke="none" d="M 400 505 C 400 495.6111584 423.0573328 488 451.5 488 C 479.9426672 488 503 495.6111584 503 505 C 503 514.3888416 479.9426672 522 451.5 522 C 423.0573328 522 400 514.3888416 400 505 Z"/></g><g transform="translate(-230,-230) scale(1,1)"><path fill="none" stroke="#000000" d="M 400 505 C 400 495.6111584 423.0573328 488 451.5 488 C 479.9426672 488 503 495.6111584 503 505 C 503 514.3888416 479.9426672 522 451.5 522 C 423.0573328 522 400 514.3888416 400 505 Z" stroke-miterlimit="10"/></g><g transform="translate(-230,-230) scale(1,1)"><g><path fill="none" stroke="none"/><text fill="#000000" stroke="none" font-family="Arial" font-size="13px" font-style="normal" font-weight="bold" text-decoration="none" x="419.701416015625" y="510.2099609375">Ver Precio</text></g></g><g transform="translate(-230,-230) scale(1,1)"><path fill="#C0C0C0" stroke="none" d="M 535 496 C 535 486.6111584 569.0263552 479 611 479 C 652.9736448 479 687 486.6111584 687 496 C 687 505.3888416 652.9736448 513 611 513 C 569.0263552 513 535 505.3888416 535 496 Z" opacity="0.2"/></g><g transform="translate(-230,-230) scale(1,1)"><path fill="#ffffff" stroke="none" d="M 528 489 C 528 479.6111584 562.0263552 472 604 472 C 645.9736448 472 680 479.6111584 680 489 C 680 498.3888416 645.9736448 506 604 506 C 562.0263552 506 528 498.3888416 528 489 Z"/></g><g transform="translate(-230,-230) scale(1,1)"><path fill="none" stroke="#000000" d="M 528 489 C 528 479.6111584 562.0263552 472 604 472 C 645.9736448 472 680 479.6111584 680 489 C 680 498.3888416 645.9736448 506 604 506 C 562.0263552 506 528 498.3888416 528 489 Z" stroke-miterlimit="10"/></g><g transform="translate(-230,-230) scale(1,1)"><g><path fill="none" stroke="none"/><text fill="#000000" stroke="none" font-family="Arial" font-size="13px" font-style="normal" font-weight="bold" text-decoration="none" x="554.865966796875" y="494.2861328125">Ver Descripción</text></g></g><g transform="translate(-230,-230) scale(1,1)"><path fill="none" stroke="#000000" d="M 473 487 L 548 427" stroke-miterlimit="10" stroke-dasharray="3"/></g><g transform="translate(-230,-230) scale(1,1)"><path fill="none" stroke="#000000" d="M 542.6939490779461 436.63565377193316 L 548 427 L 537.4346192883949 430.06149153499416" stroke-miterlimit="10"/></g><g transform="translate(-230,-230) scale(1,1)"><g><path fill="none" stroke="none"/><text fill="#000000" stroke="none" font-family="Arial" font-size="13px" font-style="normal" font-weight="normal" text-decoration="none" x="464.5" y="437.7099609375">«extend»</text></g></g><g transform="translate(-230,-230) scale(1,1)"><path fill="none" stroke="#000000" d="M 596 471 L 578 427" stroke-miterlimit="10" stroke-dasharray="3"/></g><g transform="translate(-230,-230) scale(1,1)"><path fill="none" stroke="#000000" d="M 585.7440288476488 434.81217109431066 L 578 427 L 577.9518161553001 437.9998944684533" stroke-miterlimit="10"/></g><g transform="translate(-230,-230) scale(1,1)"><g><path fill="none" stroke="none"/><text fill="#000000" stroke="none" font-family="Arial" font-size="13px" font-style="normal" font-weight="normal" text-decoration="none" x="532.5" y="464.7099609375">«extend»</text></g></g><g transform="translate(-230,-230) scale(1,1)"><path fill="#C0C0C0" stroke="none" d="M 671 440 C 671 430.6111584 693.6096176 423 721.5 423 C 749.3903824 423 772 430.6111584 772 440 C 772 449.3888416 749.3903824 457 721.5 457 C 693.6096176 457 671 449.3888416 671 440 Z" opacity="0.2"/></g><g transform="translate(-230,-230) scale(1,1)"><path fill="#ffffff" stroke="none" d="M 664 433 C 664 423.6111584 686.6096176 416 714.5 416 C 742.3903824 416 765 423.6111584 765 433 C 765 442.3888416 742.3903824 450 714.5 450 C 686.6096176 450 664 442.3888416 664 433 Z"/></g><g transform="translate(-230,-230) scale(1,1)"><path fill="none" stroke="#000000" d="M 664 433 C 664 423.6111584 686.6096176 416 714.5 416 C 742.3903824 416 765 423.6111584 765 433 C 765 442.3888416 742.3903824 450 714.5 450 C 686.6096176 450 664 442.3888416 664 433 Z" stroke-miterlimit="10"/></g><g transform="translate(-230,-230) scale(1,1)"><g><path fill="none" stroke="none"/><text fill="#000000" stroke="none" font-family="Arial" font-size="13px" font-style="normal" font-weight="bold" text-decoration="none" x="687.411376953125" y="438.03857421875">Comprar</text></g></g><g transform="translate(-230,-230) scale(1,1)"><path fill="none" stroke="#000000" d="M 663 425 L 622 418" stroke-miterlimit="10" stroke-dasharray="3"/></g><g transform="translate(-230,-230) scale(1,1)"><path fill="none" stroke="#000000" d="M 632.7261657365975 415.56086724612203 L 622 418 L 631.3092718389603 423.8598172179976" stroke-miterlimit="10"/></g><g transform="translate(-230,-230) scale(1,1)"><g><path fill="none" stroke="none"/><text fill="#000000" stroke="none" font-family="Arial" font-size="13px" font-style="normal" font-weight="normal" text-decoration="none" x="610.5" y="454.7099609375">«extend»</text></g></g><g transform="translate(-230,-230) scale(1,1)"><path fill="#C0C0C0" stroke="none" d="M 703 544 C 703 534.6111584 742.3989376 527 791 527 C 839.6010624 527 879 534.6111584 879 544 C 879 553.3888416 839.6010624 561 791 561 C 742.3989376 561 703 553.3888416 703 544 Z" opacity="0.2"/></g><g transform="translate(-230,-230) scale(1,1)"><path fill="#ffffff" stroke="none" d="M 696 537 C 696 527.6111584 735.3989376 520 784 520 C 832.6010624 520 872 527.6111584 872 537 C 872 546.3888416 832.6010624 554 784 554 C 735.3989376 554 696 546.3888416 696 537 Z"/></g><g transform="translate(-230,-230) scale(1,1)"><path fill="none" stroke="#000000" d="M 696 537 C 696 527.6111584 735.3989376 520 784 520 C 832.6010624 520 872 527.6111584 872 537 C 872 546.3888416 832.6010624 554 784 554 C 735.3989376 554 696 546.3888416 696 537 Z" stroke-miterlimit="10"/></g><g transform="translate(-230,-230) scale(1,1)"><g><path fill="none" stroke="none"/><text fill="#000000" stroke="none" font-family="Arial" font-size="13px" font-style="normal" font-weight="bold" text-decoration="none" x="726.2109375" y="542.2099609375">Notificar Vendedor</text></g></g><g transform="translate(-230,-230) scale(1,1)"><path fill="none" stroke="#000000" d="M 726 451 L 772 519" stroke-miterlimit="10" stroke-dasharray="3"/></g><g transform="translate(-230,-230) scale(1,1)"><path fill="none" stroke="#000000" d="M 762.8190843417655 512.9410572146303 L 772 519 L 769.7924318109168 508.2237927502044" stroke-miterlimit="10"/></g><g transform="translate(-230,-230) scale(1,1)"><g><path fill="none" stroke="none"/><text fill="#000000" stroke="none" font-family="Arial" font-size="13px" font-style="normal" font-weight="normal" text-decoration="none" x="745.5" y="472.7099609375">«include»</text></g></g></g></svg>