<svg version="1.1" xmlns="http://www.w3.org/2000/svg" xmlns:xlink="http://www.w3.org/1999/xlink" width="532" height="396"><defs/><g><text fill="#eeeeee" stroke="none" font-family="Arial" font-size="24px" font-style="normal" font-weight="normal" text-decoration="none" x="0" y="0">UNREGISTERED</text><text fill="#eeeeee" stroke="none" font-family="Arial" font-size="24px" font-style="normal" font-weight="normal" text-decoration="none" x="0" y="30">UNREGISTERED</text><text fill="#eeeeee" stroke="none" font-family="Arial" font-size="24px" font-style="normal" font-weight="normal" text-decoration="none" x="0" y="60">UNREGISTERED</text><text fill="#eeeeee" stroke="none" font-family="Arial" font-size="24px" font-style="normal" font-weight="normal" text-decoration="none" x="0" y="90">UNREGISTERED</text><text fill="#eeeeee" stroke="none" font-family="Arial" font-size="24px" font-style="normal" font-weight="normal" text-decoration="none" x="0" y="120">UNREGISTERED</text><text fill="#eeeeee" stroke="none" font-family="Arial" font-size="24px" font-style="normal" font-weight="normal" text-decoration="none" x="0" y="150">UNREGISTERED</text><text fill="#eeeeee" stroke="none" font-family="Arial" font-size="24px" font-style="normal" font-weight="normal" text-decoration="none" x="0" y="180">UNREGISTERED</text><text fill="#eeeeee" stroke="none" font-family="Arial" font-size="24px" font-style="normal" font-weight="normal" text-decoration="none" x="0" y="210">UNREGISTERED</text><text fill="#eeeeee" stroke="none" font-family="Arial" font-size="24px" font-style="normal" font-weight="normal" text-decoration="none" x="0" y="240">UNREGISTERED</text><text fill="#eeeeee" stroke="none" font-family="Arial" font-size="24px" font-style="normal" font-weight="normal" text-decoration="none" x="0" y="270">UNREGISTERED</text><text fill="#eeeeee" stroke="none" font-family="Arial" font-size="24px" font-style="normal" font-weight="normal" text-decoration="none" x="0" y="300">UNREGISTERED</text><text fill="#eeeeee" stroke="none" font-family="Arial" font-size="24px" font-style="normal" font-weight="normal" text-decoration="none" x="0" y="330">UNREGISTERED</text><text fill="#eeeeee" stroke="none" font-family="Arial" font-size="24px" font-style="normal" font-weight="normal" text-decoration="none" x="0" y="360">UNREGISTERED</text><text fill="#eeeeee" stroke="none" font-family="Arial" font-size="24px" font-style="normal" font-weight="normal" text-decoration="none" x="0" y="390">UNREGISTERED</text><text fill="#eeeeee" stroke="none" font-family="Arial" font-size="24px" font-style="normal" font-weight="normal" text-decoration="none" x="200" y="0">UNREGISTERED</text><text fill="#eeeeee" stroke="none" font-family="Arial" font-size="24px" font-style="normal" font-weight="normal" text-decoration="none" x="200" y="30">UNREGISTERED</text><text fill="#eeeeee" stroke="none" font-family="Arial" font-size="24px" font-style="normal" font-weight="normal" text-decoration="none" x="200" y="60">UNREGISTERED</text><text fill="#eeeeee" stroke="none" font-family="Arial" font-size="24px" font-style="normal" font-weight="normal" text-decoration="none" x="200" y="90">UNREGISTERED</text><text fill="#eeeeee" stroke="none" font-family="Arial" font-size="24px" font-style="normal" font-weight="normal" text-decoration="none" x="200" y="120">UNREGISTERED</text><text fill="#eeeeee" stroke="none" font-family="Arial" font-size="24px" font-style="normal" font-weight="normal" text-decoration="none" x="200" y="150">UNREGISTERED</text><text fill="#eeeeee" stroke="none" font-family="Arial" font-size="24px" font-style="normal" font-weight="normal" text-decoration="none" x="200" y="180">UNREGISTERED</text><text fill="#eeeeee" stroke="none" font-family="Arial" font-size="24px" font-style="normal" font-weight="normal" text-decoration="none" x="200" y="210">UNREGISTERED</text><text fill="#eeeeee" stroke="none" font-family="Arial" font-size="24px" font-style="normal" font-weight="normal" text-decoration="none" x="200" y="240">UNREGISTERED</text><text fill="#eeeeee" stroke="none" font-family="Arial" font-size="24px" font-style="normal" font-weight="normal" text-decoration="none" x="200" y="270">UNREGISTERED</text><text fill="#eeeeee" stroke="none" font-family="Arial" font-size="24px" font-style="normal" font-weight="normal" text-decoration="none" x="200" y="300">UNREGISTERED</text><text fill="#eeeeee" stroke="none" font-family="Arial" font-size="24px" font-style="normal" font-weight="normal" text-decoration="none" x="200" y="330">UNREGISTERED</text><text fill="#eeeeee" stroke="none" font-family="Arial" font-size="24px" font-style="normal" font-weight="normal" text-decoration="none" x="200" y="360">UNREGISTERED</text><text fill="#eeeeee" stroke="none" font-family="Arial" font-size="24px" font-style="normal" font-weight="normal" text-decoration="none" x="200" y="390">UNREGISTERED</text><text fill="#eeeeee" stroke="none" font-family="Arial" font-size="24px" font-style="normal" font-weight="normal" text-decoration="none" x="400" y="0">UNREGISTERED</text><text fill="#eeeeee" stroke="none" font-family="Arial" font-size="24px" font-style="normal" font-weight="normal" text-decoration="none" x="400" y="30">UNREGISTERED</text><text fill="#eeeeee" stroke="none" font-family="Arial" font-size="24px" font-style="normal" font-weight="normal" text-decoration="none" x="400" y="60">UNREGISTERED</text><text fill="#eeeeee" stroke="none" font-family="Arial" font-size="24px" font-style="normal" font-weight="normal" text-decoration="none" x="400" y="90">UNREGISTERED</text><text fill="#eeeeee" stroke="none" font-family="Arial" font-size="24px" font-style="normal" font-weight="normal" text-decoration="none" x="400" y="120">UNREGISTERED</text><text fill="#eeeeee" stroke="none" font-family="Arial" font-size="24px" font-style="normal" font-weight="normal" text-decoration="none" x="400" y="150">UNREGISTERED</text><text fill="#eeeeee" stroke="none" font-family="Arial" font-size="24px" font-style="normal" font-weight="normal" text-decoration="none" x="400" y="180">UNREGISTERED</text><text fill="#eeeeee" stroke="none" font-family="Arial" font-size="24px" font-style="normal" font-weight="normal" text-decoration="none" x="400" y="210">UNREGISTERED</text><text fill="#eeeeee" stroke="none" font-family="Arial" font-size="24px" font-style="normal" font-weight="normal" text-decoration="none" x="400" y="240">UNREGISTERED</text><text fill="#eeeeee" stroke="none" font-family="Arial" font-size="24px" font-style="normal" font-weight="normal" text-decoration="none" x="400" y="270">UNREGISTERED</text><text fill="#eeeeee" stroke="none" font-family="Arial" font-size="24px" font-style="normal" font-weight="normal" text-decoration="none" x="400" y="300">UNREGISTERED</text><text fill="#eeeeee" stroke="none" font-family="Arial" font-size="24px" font-style="normal" font-weight="normal" text-decoration="none" x="400" y="330">UNREGISTERED</text><text fill="#eeeeee" stroke="none" font-family="Arial" font-size="24px" font-style="normal" font-weight="normal" text-decoration="none" x="400" y="360">UNREGISTERED</text><text fill="#eeeeee" stroke="none" font-family="Arial" font-size="24px" font-style="normal" font-weight="normal" text-decoration="none" x="400" y="390">UNREGISTERED</text><g transform="translate(-222,-222) scale(1,1)"><rect fill="#C0C0C0" stroke="none" x="391" y="239" width="360" height="376" opacity="0.2"/></g><g transform="translate(-222,-222) scale(1,1)"><rect fill="#ffffff" stroke="none" x="384" y="232" width="360" height="376"/></g><g transform="translate(-222,-222) scale(1,1)"><path fill="none" stroke="#000000" d="M 384 232 L 744 232 L 744 608 L 384 608 L 384 232 Z Z" stroke-miterlimit="10"/></g><g transform="translate(-222,-222) scale(1,1)"><g><path fill="none" stroke="none"/><text fill="#000000" stroke="none" font-family="Arial" font-size="13px" font-style="normal" font-weight="bold" text-decoration="none" x="481.27734375" y="249.7099609375">Organizar ofertas _ TR-009</text></g></g><g transform="translate(-222,-222) scale(1,1)"><path fill="#ffffff" stroke="none" d="M 262.85026828835225 321.68 C 262.85026828835225 316.886167936 266.73611061329774 313 271.529541015625 313 C 276.32297141795226 313 280.20881374289775 316.886167936 280.20881374289775 321.68 C 280.20881374289775 326.473832064 276.32297141795226 330.36 271.529541015625 330.36 C 266.73611061329774 330.36 262.85026828835225 326.473832064 262.85026828835225 321.68 Z"/></g><g transform="translate(-222,-222) scale(1,1)"><path fill="none" stroke="#000000" d="M 262.85026828835225 321.68 C 262.85026828835225 316.886167936 266.73611061329774 313 271.529541015625 313 C 276.32297141795226 313 280.20881374289775 316.886167936 280.20881374289775 321.68 C 280.20881374289775 326.473832064 276.32297141795226 330.36 271.529541015625 330.36 C 266.73611061329774 330.36 262.85026828835225 326.473832064 262.85026828835225 321.68 Z" stroke-miterlimit="10"/></g><g transform="translate(-222,-222) scale(1,1)"><path fill="none" stroke="#000000" d="M 271.529541015625 330.36 L 271.529541015625 347.64" stroke-miterlimit="10"/></g><g transform="translate(-222,-222) scale(1,1)"><path fill="none" stroke="#000000" d="M 262.33972283380683 336.84 L 280.71935919744317 336.84" stroke-miterlimit="10"/></g><g transform="translate(-222,-222) scale(1,1)"><path fill="none" stroke="#000000" d="M 271.529541015625 347.64 L 258.76590465198865 365" stroke-miterlimit="10"/></g><g transform="translate(-222,-222) scale(1,1)"><path fill="none" stroke="#000000" d="M 271.529541015625 347.64 L 284.29317737926135 365" stroke-miterlimit="10"/></g><g transform="translate(-222,-222) scale(1,1)"><g><path fill="none" stroke="none"/><text fill="#000000" stroke="none" font-family="Arial" font-size="13px" font-style="normal" font-weight="bold" text-decoration="none" x="236.5" y="383.7099609375">Comprador</text></g></g><g transform="translate(-222,-222) scale(1,1)"><path fill="#C0C0C0" stroke="none" d="M 471 304 C 471 294.6111584 514.4283743999999 287 568 287 C 621.5716256000001 287 665 294.6111584 665 304 C 665 313.3888416 621.5716256000001 321 568 321 C 514.4283743999999 321 471 313.3888416 471 304 Z" opacity="0.2"/></g><g transform="translate(-222,-222) scale(1,1)"><path fill="#ffffff" stroke="none" d="M 464 297 C 464 287.6111584 507.4283744 280 561 280 C 614.5716256000001 280 658 287.6111584 658 297 C 658 306.3888416 614.5716256000001 314 561 314 C 507.4283744 314 464 306.3888416 464 297 Z"/></g><g transform="translate(-222,-222) scale(1,1)"><path fill="none" stroke="#000000" d="M 464 297 C 464 287.6111584 507.4283744 280 561 280 C 614.5716256000001 280 658 287.6111584 658 297 C 658 306.3888416 614.5716256000001 314 561 314 C 507.4283744 314 464 306.3888416 464 297 Z" stroke-miterlimit="10"/></g><g transform="translate(-222,-222) scale(1,1)"><g><path fill="none" stroke="none"/><text fill="#000000" stroke="none" font-family="Arial" font-size="13px" font-style="normal" font-weight="bold" text-decoration="none" x="496.7109375" y="302.2861328125">Ordenar Notificación</text></g></g><g transform="translate(-222,-222) scale(1,1)"><path fill="none" stroke="#000000" d="M 312 343 L 464 315" stroke-miterlimit="10"/></g><g transform="translate(-222,-222) scale(1,1)"><path fill="#C0C0C0" stroke="none" d="M 439 440 C 439 430.6111584 461.6096176 423 489.5 423 C 517.3903824 423 540 430.6111584 540 440 C 540 449.3888416 517.3903824 457 489.5 457 C 461.6096176 457 439 449.3888416 439 440 Z" opacity="0.2"/></g><g transform="translate(-222,-222) scale(1,1)"><path fill="#ffffff" stroke="none" d="M 432 433 C 432 423.6111584 454.6096176 416 482.5 416 C 510.3903824 416 533 423.6111584 533 433 C 533 442.3888416 510.3903824 450 482.5 450 C 454.6096176 450 432 442.3888416 432 433 Z"/></g><g transform="translate(-222,-222) scale(1,1)"><path fill="none" stroke="#000000" d="M 432 433 C 432 423.6111584 454.6096176 416 482.5 416 C 510.3903824 416 533 423.6111584 533 433 C 533 442.3888416 510.3903824 450 482.5 450 C 454.6096176 450 432 442.3888416 432 433 Z" stroke-miterlimit="10"/></g><g transform="translate(-222,-222) scale(1,1)"><g><path fill="none" stroke="none"/><text fill="#000000" stroke="none" font-family="Arial" font-size="13px" font-style="normal" font-weight="bold" text-decoration="none" x="462.628662109375" y="438.2099609375">Precio</text></g></g><g transform="translate(-222,-222) scale(1,1)"><path fill="#C0C0C0" stroke="none" d="M 631 440 C 631 430.6111584 653.6096176 423 681.5 423 C 709.3903824 423 732 430.6111584 732 440 C 732 449.3888416 709.3903824 457 681.5 457 C 653.6096176 457 631 449.3888416 631 440 Z" opacity="0.2"/></g><g transform="translate(-222,-222) scale(1,1)"><path fill="#ffffff" stroke="none" d="M 624 433 C 624 423.6111584 646.6096176 416 674.5 416 C 702.3903824 416 725 423.6111584 725 433 C 725 442.3888416 702.3903824 450 674.5 450 C 646.6096176 450 624 442.3888416 624 433 Z"/></g><g transform="translate(-222,-222) scale(1,1)"><path fill="none" stroke="#000000" d="M 624 433 C 624 423.6111584 646.6096176 416 674.5 416 C 702.3903824 416 725 423.6111584 725 433 C 725 442.3888416 702.3903824 450 674.5 450 C 646.6096176 450 624 442.3888416 624 433 Z" stroke-miterlimit="10"/></g><g transform="translate(-222,-222) scale(1,1)"><g><path fill="none" stroke="none"/><text fill="#000000" stroke="none" font-family="Arial" font-size="13px" font-style="normal" font-weight="bold" text-decoration="none" x="645.59912109375" y="438.2099609375">Distancia</text></g></g><g transform="translate(-222,-222) scale(1,1)"><path fill="none" stroke="#000000" d="M 492 415 L 551 315" stroke-miterlimit="10" stroke-dasharray="3"/></g><g transform="translate(-222,-222) scale(1,1)"><path fill="none" stroke="#000000" d="M 549.4613765689801 325.89186108695463 L 551 315 L 542.2103201039058 321.6137377725608" stroke-miterlimit="10"/></g><g transform="translate(-222,-222) scale(1,1)"><g><path fill="none" stroke="none"/><text fill="#000000" stroke="none" font-family="Arial" font-size="13px" font-style="normal" font-weight="normal" text-decoration="none" x="468.5" y="353.7099609375">«extend»</text></g></g><g transform="translate(-222,-222) scale(1,1)"><path fill="none" stroke="#000000" d="M 659 415 L 576 315" stroke-miterlimit="10" stroke-dasharray="3"/></g><g transform="translate(-222,-222) scale(1,1)"><path fill="none" stroke="#000000" d="M 585.7297346031331 320.1314973012362 L 576 315 L 579.2514447776763 325.5084778563654" stroke-miterlimit="10"/></g><g transform="translate(-222,-222) scale(1,1)"><g><path fill="none" stroke="none"/><text fill="#000000" stroke="none" font-family="Arial" font-size="13px" font-style="normal" font-weight="normal" text-decoration="none" x="566.5" y="388.7099609375">«extend»</text></g></g><g transform="translate(-222,-222) scale(1,1)"><path fill="#C0C0C0" stroke="none" d="M 455 544 C 455 534.6111584 511.1882576 527 580.5 527 C 649.8117424 527 706 534.6111584 706 544 C 706 553.3888416 649.8117424 561 580.5 561 C 511.1882576 561 455 553.3888416 455 544 Z" opacity="0.2"/></g><g transform="translate(-222,-222) scale(1,1)"><path fill="#ffffff" stroke="none" d="M 448 537 C 448 527.6111584 504.1882576 520 573.5 520 C 642.8117424 520 699 527.6111584 699 537 C 699 546.3888416 642.8117424 554 573.5 554 C 504.1882576 554 448 546.3888416 448 537 Z"/></g><g transform="translate(-222,-222) scale(1,1)"><path fill="none" stroke="#000000" d="M 448 537 C 448 527.6111584 504.1882576 520 573.5 520 C 642.8117424 520 699 527.6111584 699 537 C 699 546.3888416 642.8117424 554 573.5 554 C 504.1882576 554 448 546.3888416 448 537 Z" stroke-miterlimit="10"/></g><g transform="translate(-222,-222) scale(1,1)"><g><path fill="none" stroke="none"/><text fill="#000000" stroke="none" font-family="Arial" font-size="13px" font-style="normal" font-weight="bold" text-decoration="none" x="489.33642578125" y="542.2099609375">Ascendente o descendente</text></g></g><g transform="translate(-222,-222) scale(1,1)"><path fill="none" stroke="#000000" d="M 498 451 L 557 519" stroke-miterlimit="10" stroke-dasharray="3"/></g><g transform="translate(-222,-222) scale(1,1)"><path fill="none" stroke="#000000" d="M 547.1603139826219 514.0826247774434 L 557 519 L 553.519400657874 508.565181926857" stroke-miterlimit="10"/></g><g transform="translate(-222,-222) scale(1,1)"><g><path fill="none" stroke="none"/><text fill="#000000" stroke="none" font-family="Arial" font-size="13px" font-style="normal" font-weight="normal" text-decoration="none" x="521.5" y="469.7099609375">«include»</text></g></g><g transform="translate(-222,-222) scale(1,1)"><path fill="none" stroke="#000000" d="M 657 451 L 590 519" stroke-miterlimit="10" stroke-dasharray="3"/></g><g transform="translate(-222,-222) scale(1,1)"><path fill="none" stroke="#000000" d="M 594.1341252654778 508.8064231847041 L 590 519 L 600.1312153001358 514.7153207188524" stroke-miterlimit="10"/></g><g transform="translate(-222,-222) scale(1,1)"><g><path fill="none" stroke="none"/><text fill="#000000" stroke="none" font-family="Arial" font-size="13px" font-style="normal" font-weight="normal" text-decoration="none" x="616.5" y="509.7099609375">«include»</text></g></g></g></svg>