<svg version="1.1" xmlns="http://www.w3.org/2000/svg" xmlns:xlink="http://www.w3.org/1999/xlink" width="564" height="444"><defs/><g><text fill="#eeeeee" stroke="none" font-family="Arial" font-size="24px" font-style="normal" font-weight="normal" text-decoration="none" x="0" y="0">UNREGISTERED</text><text fill="#eeeeee" stroke="none" font-family="Arial" font-size="24px" font-style="normal" font-weight="normal" text-decoration="none" x="0" y="30">UNREGISTERED</text><text fill="#eeeeee" stroke="none" font-family="Arial" font-size="24px" font-style="normal" font-weight="normal" text-decoration="none" x="0" y="60">UNREGISTERED</text><text fill="#eeeeee" stroke="none" font-family="Arial" font-size="24px" font-style="normal" font-weight="normal" text-decoration="none" x="0" y="90">UNREGISTERED</text><text fill="#eeeeee" stroke="none" font-family="Arial" font-size="24px" font-style="normal" font-weight="normal" text-decoration="none" x="0" y="120">UNREGISTERED</text><text fill="#eeeeee" stroke="none" font-family="Arial" font-size="24px" font-style="normal" font-weight="normal" text-decoration="none" x="0" y="150">UNREGISTERED</text><text fill="#eeeeee" stroke="none" font-family="Arial" font-size="24px" font-style="normal" font-weight="normal" text-decoration="none" x="0" y="180">UNREGISTERED</text><text fill="#eeeeee" stroke="none" font-family="Arial" font-size="24px" font-style="normal" font-weight="normal" text-decoration="none" x="0" y="210">UNREGISTERED</text><text fill="#eeeeee" stroke="none" font-family="Arial" font-size="24px" font-style="normal" font-weight="normal" text-decoration="none" x="0" y="240">UNREGISTERED</text><text fill="#eeeeee" stroke="none" font-family="Arial" font-size="24px" font-style="normal" font-weight="normal" text-decoration="none" x="0" y="270">UNREGISTERED</text><text fill="#eeeeee" stroke="none" font-family="Arial" font-size="24px" font-style="normal" font-weight="normal" text-decoration="none" x="0" y="300">UNREGISTERED</text><text fill="#eeeeee" stroke="none" font-family="Arial" font-size="24px" font-style="normal" font-weight="normal" text-decoration="none" x="0" y="330">UNREGISTERED</text><text fill="#eeeeee" stroke="none" font-family="Arial" font-size="24px" font-style="normal" font-weight="normal" text-decoration="none" x="0" y="360">UNREGISTERED</text><text fill="#eeeeee" stroke="none" font-family="Arial" font-size="24px" font-style="normal" font-weight="normal" text-decoration="none" x="0" y="390">UNREGISTERED</text><text fill="#eeeeee" stroke="none" font-family="Arial" font-size="24px" font-style="normal" font-weight="normal" text-decoration="none" x="0" y="420">UNREGISTERED</text><text fill="#eeeeee" stroke="none" font-family="Arial" font-size="24px" font-style="normal" font-weight="normal" text-decoration="none" x="200" y="0">UNREGISTERED</text><text fill="#eeeeee" stroke="none" font-family="Arial" font-size="24px" font-style="normal" font-weight="normal" text-decoration="none" x="200" y="30">UNREGISTERED</text><text fill="#eeeeee" stroke="none" font-family="Arial" font-size="24px" font-style="normal" font-weight="normal" text-decoration="none" x="200" y="60">UNREGISTERED</text><text fill="#eeeeee" stroke="none" font-family="Arial" font-size="24px" font-style="normal" font-weight="normal" text-decoration="none" x="200" y="90">UNREGISTERED</text><text fill="#eeeeee" stroke="none" font-family="Arial" font-size="24px" font-style="normal" font-weight="normal" text-decoration="none" x="200" y="120">UNREGISTERED</text><text fill="#eeeeee" stroke="none" font-family="Arial" font-size="24px" font-style="normal" font-weight="normal" text-decoration="none" x="200" y="150">UNREGISTERED</text><text fill="#eeeeee" stroke="none" font-family="Arial" font-size="24px" font-style="normal" font-weight="normal" text-decoration="none" x="200" y="180">UNREGISTERED</text><text fill="#eeeeee" stroke="none" font-family="Arial" font-size="24px" font-style="normal" font-weight="normal" text-decoration="none" x="200" y="210">UNREGISTERED</text><text fill="#eeeeee" stroke="none" font-family="Arial" font-size="24px" font-style="normal" font-weight="normal" text-decoration="none" x="200" y="240">UNREGISTERED</text><text fill="#eeeeee" stroke="none" font-family="Arial" font-size="24px" font-style="normal" font-weight="normal" text-decoration="none" x="200" y="270">UNREGISTERED</text><text fill="#eeeeee" stroke="none" font-family="Arial" font-size="24px" font-style="normal" font-weight="normal" text-decoration="none" x="200" y="300">UNREGISTERED</text><text fill="#eeeeee" stroke="none" font-family="Arial" font-size="24px" font-style="normal" font-weight="normal" text-decoration="none" x="200" y="330">UNREGISTERED</text><text fill="#eeeeee" stroke="none" font-family="Arial" font-size="24px" font-style="normal" font-weight="normal" text-decoration="none" x="200" y="360">UNREGISTERED</text><text fill="#eeeeee" stroke="none" font-family="Arial" font-size="24px" font-style="normal" font-weight="normal" text-decoration="none" x="200" y="390">UNREGISTERED</text><text fill="#eeeeee" stroke="none" font-family="Arial" font-size="24px" font-style="normal" font-weight="normal" text-decoration="none" x="200" y="420">UNREGISTERED</text><text fill="#eeeeee" stroke="none" font-family="Arial" font-size="24px" font-style="normal" font-weight="normal" text-decoration="none" x="400" y="0">UNREGISTERED</text><text fill="#eeeeee" stroke="none" font-family="Arial" font-size="24px" font-style="normal" font-weight="normal" text-decoration="none" x="400" y="30">UNREGISTERED</text><text fill="#eeeeee" stroke="none" font-family="Arial" font-size="24px" font-style="normal" font-weight="normal" text-decoration="none" x="400" y="60">UNREGISTERED</text><text fill="#eeeeee" stroke="none" font-family="Arial" font-size="24px" font-style="normal" font-weight="normal" text-decoration="none" x="400" y="90">UNREGISTERED</text><text fill="#eeeeee" stroke="none" font-family="Arial" font-size="24px" font-style="normal" font-weight="normal" text-decoration="none" x="400" y="120">UNREGISTERED</text><text fill="#eeeeee" stroke="none" font-family="Arial" font-size="24px" font-style="normal" font-weight="normal" text-decoration="none" x="400" y="150">UNREGISTERED</text><text fill="#eeeeee" stroke="none" font-family="Arial" font-size="24px" font-style="normal" font-weight="normal" text-decoration="none" x="400" y="180">UNREGISTERED</text><text fill="#eeeeee" stroke="none" font-family="Arial" font-size="24px" font-style="normal" font-weight="normal" text-decoration="none" x="400" y="210">UNREGISTERED</text><text fill="#eeeeee" stroke="none" font-family="Arial" font-size="24px" font-style="normal" font-weight="normal" text-decoration="none" x="400" y="240">UNREGISTERED</text><text fill="#eeeeee" stroke="none" font-family="Arial" font-size="24px" font-style="normal" font-weight="normal" text-decoration="none" x="400" y="270">UNREGISTERED</text><text fill="#eeeeee" stroke="none" font-family="Arial" font-size="24px" font-style="normal" font-weight="normal" text-decoration="none" x="400" y="300">UNREGISTERED</text><text fill="#eeeeee" stroke="none" font-family="Arial" font-size="24px" font-style="normal" font-weight="normal" text-decoration="none" x="400" y="330">UNREGISTERED</text><text fill="#eeeeee" stroke="none" font-family="Arial" font-size="24px" font-style="normal" font-weight="normal" text-decoration="none" x="400" y="360">UNREGISTERED</text><text fill="#eeeeee" stroke="none" font-family="Arial" font-size="24px" font-style="normal" font-weight="normal" text-decoration="none" x="400" y="390">UNREGISTERED</text><text fill="#eeeeee" stroke="none" font-family="Arial" font-size="24px" font-style="normal" font-weight="normal" text-decoration="none" x="400" y="420">UNREGISTERED</text><g transform="translate(-318,-262) scale(1,1)"><rect fill="#C0C0C0" stroke="none" x="479" y="279" width="400" height="424" opacity="0.2"/></g><g transform="translate(-318,-262) scale(1,1)"><rect fill="#ffffff" stroke="none" x="472" y="272" width="400" height="424"/></g><g transform="translate(-318,-262) scale(1,1)"><path fill="none" stroke="#000000" d="M 472 272 L 872 272 L 872 696 L 472 696 L 472 272 Z Z" stroke-miterlimit="10"/></g><g transform="translate(-318,-262) scale(1,1)"><g><path fill="none" stroke="none"/><text fill="#000000" stroke="none" font-family="Arial" font-size="13px" font-style="normal" font-weight="bold" text-decoration="none" x="597.58642578125" y="290">Publicar oferta _ TR-007</text></g></g><g transform="translate(-318,-262) scale(1,1)"><path fill="#ffffff" stroke="none" d="M 353.43889133522725 361.68 C 353.43889133522725 356.886167936 357.32473366017274 353 362.1181640625 353 C 366.91159446482726 353 370.79743678977275 356.886167936 370.79743678977275 361.68 C 370.79743678977275 366.473832064 366.91159446482726 370.36 362.1181640625 370.36 C 357.32473366017274 370.36 353.43889133522725 366.473832064 353.43889133522725 361.68 Z"/></g><g transform="translate(-318,-262) scale(1,1)"><path fill="none" stroke="#000000" d="M 353.43889133522725 361.68 C 353.43889133522725 356.886167936 357.32473366017274 353 362.1181640625 353 C 366.91159446482726 353 370.79743678977275 356.886167936 370.79743678977275 361.68 C 370.79743678977275 366.473832064 366.91159446482726 370.36 362.1181640625 370.36 C 357.32473366017274 370.36 353.43889133522725 366.473832064 353.43889133522725 361.68 Z" stroke-miterlimit="10"/></g><g transform="translate(-318,-262) scale(1,1)"><path fill="none" stroke="#000000" d="M 362.1181640625 370.36 L 362.1181640625 387.64" stroke-miterlimit="10"/></g><g transform="translate(-318,-262) scale(1,1)"><path fill="none" stroke="#000000" d="M 352.92834588068183 376.84 L 371.30798224431817 376.84" stroke-miterlimit="10"/></g><g transform="translate(-318,-262) scale(1,1)"><path fill="none" stroke="#000000" d="M 362.1181640625 387.64 L 349.35452769886365 405" stroke-miterlimit="10"/></g><g transform="translate(-318,-262) scale(1,1)"><path fill="none" stroke="#000000" d="M 362.1181640625 387.64 L 374.88180042613635 405" stroke-miterlimit="10"/></g><g transform="translate(-318,-262) scale(1,1)"><g><path fill="none" stroke="none"/><text fill="#000000" stroke="none" font-family="Arial" font-size="13px" font-style="normal" font-weight="bold" text-decoration="none" x="332.5" y="424">Vendedor</text></g></g><g transform="translate(-318,-262) scale(1,1)"><path fill="#C0C0C0" stroke="none" d="M 543 360 C 543 350.6111584 574.1162064 343 612.5 343 C 650.8837936 343 682 350.6111584 682 360 C 682 369.3888416 650.8837936 377 612.5 377 C 574.1162064 377 543 369.3888416 543 360 Z" opacity="0.2"/></g><g transform="translate(-318,-262) scale(1,1)"><path fill="#ffffff" stroke="none" d="M 536 353 C 536 343.6111584 567.1162064 336 605.5 336 C 643.8837936 336 675 343.6111584 675 353 C 675 362.3888416 643.8837936 370 605.5 370 C 567.1162064 370 536 362.3888416 536 353 Z"/></g><g transform="translate(-318,-262) scale(1,1)"><path fill="none" stroke="#000000" d="M 536 353 C 536 343.6111584 567.1162064 336 605.5 336 C 643.8837936 336 675 343.6111584 675 353 C 675 362.3888416 643.8837936 370 605.5 370 C 567.1162064 370 536 362.3888416 536 353 Z" stroke-miterlimit="10"/></g><g transform="translate(-318,-262) scale(1,1)"><g><path fill="none" stroke="none"/><text fill="#000000" stroke="none" font-family="Arial" font-size="13px" font-style="normal" font-weight="bold" text-decoration="none" x="560.720458984375" y="358.5">Abrir Solicitud</text></g></g><g transform="translate(-318,-262) scale(1,1)"><path fill="#C0C0C0" stroke="none" d="M 711 448 C 711 438.6111584 741.6684912 431 779.5 431 C 817.3315088 431 848 438.6111584 848 448 C 848 457.3888416 817.3315088 465 779.5 465 C 741.6684912 465 711 457.3888416 711 448 Z" opacity="0.2"/></g><g transform="translate(-318,-262) scale(1,1)"><path fill="#ffffff" stroke="none" d="M 704 441 C 704 431.6111584 734.6684912 424 772.5 424 C 810.3315088 424 841 431.6111584 841 441 C 841 450.3888416 810.3315088 458 772.5 458 C 734.6684912 458 704 450.3888416 704 441 Z"/></g><g transform="translate(-318,-262) scale(1,1)"><path fill="none" stroke="#000000" d="M 704 441 C 704 431.6111584 734.6684912 424 772.5 424 C 810.3315088 424 841 431.6111584 841 441 C 841 450.3888416 810.3315088 458 772.5 458 C 734.6684912 458 704 450.3888416 704 441 Z" stroke-miterlimit="10"/></g><g transform="translate(-318,-262) scale(1,1)"><g><path fill="none" stroke="none"/><text fill="#000000" stroke="none" font-family="Arial" font-size="13px" font-style="normal" font-weight="bold" text-decoration="none" x="728.431396484375" y="446.5">Ver Productos</text></g></g><g transform="translate(-318,-262) scale(1,1)"><path fill="none" stroke="#000000" d="M 397 385 L 535 364" stroke-miterlimit="10"/></g><g transform="translate(-318,-262) scale(1,1)"><path fill="none" stroke="#000000" d="M 639 371 L 738 423" stroke-miterlimit="10" stroke-dasharray="3"/></g><g transform="translate(-318,-262) scale(1,1)"><path fill="none" stroke="#000000" d="M 727.0454599764386 422.0009740382796 L 738 423 L 730.9603884966742 414.54755243244637" stroke-miterlimit="10"/></g><g transform="translate(-318,-262) scale(1,1)"><g><path fill="none" stroke="none"/><text fill="#000000" stroke="none" font-family="Arial" font-size="13px" font-style="normal" font-weight="normal" text-decoration="none" x="673.5" y="387">«include»</text></g></g><g transform="translate(-318,-262) scale(1,1)"><path fill="#C0C0C0" stroke="none" d="M 591 520 C 591 510.6111584 636.2192352 503 692 503 C 747.7807648 503 793 510.6111584 793 520 C 793 529.3888416 747.7807648 537 692 537 C 636.2192352 537 591 529.3888416 591 520 Z" opacity="0.2"/></g><g transform="translate(-318,-262) scale(1,1)"><path fill="#ffffff" stroke="none" d="M 584 513 C 584 503.6111584 629.2192352 496 685 496 C 740.7807648 496 786 503.6111584 786 513 C 786 522.3888416 740.7807648 530 685 530 C 629.2192352 530 584 522.3888416 584 513 Z"/></g><g transform="translate(-318,-262) scale(1,1)"><path fill="none" stroke="#000000" d="M 584 513 C 584 503.6111584 629.2192352 496 685 496 C 740.7807648 496 786 503.6111584 786 513 C 786 522.3888416 740.7807648 530 685 530 C 629.2192352 530 584 522.3888416 584 513 Z" stroke-miterlimit="10"/></g><g transform="translate(-318,-262) scale(1,1)"><g><path fill="none" stroke="none"/><text fill="#000000" stroke="none" font-family="Arial" font-size="13px" font-style="normal" font-weight="bold" text-decoration="none" x="618.175048828125" y="518.5">Seleccionar Producto</text></g></g><g transform="translate(-318,-262) scale(1,1)"><path fill="#C0C0C0" stroke="none" d="M 527 592 C 527 582.6111584 556.7730607999999 575 593.5 575 C 630.2269392000001 575 660 582.6111584 660 592 C 660 601.3888416 630.2269392000001 609 593.5 609 C 556.7730607999999 609 527 601.3888416 527 592 Z" opacity="0.2"/></g><g transform="translate(-318,-262) scale(1,1)"><path fill="#ffffff" stroke="none" d="M 520 585 C 520 575.6111584 549.7730607999999 568 586.5 568 C 623.2269392000001 568 653 575.6111584 653 585 C 653 594.3888416 623.2269392000001 602 586.5 602 C 549.7730607999999 602 520 594.3888416 520 585 Z"/></g><g transform="translate(-318,-262) scale(1,1)"><path fill="none" stroke="#000000" d="M 520 585 C 520 575.6111584 549.7730607999999 568 586.5 568 C 623.2269392000001 568 653 575.6111584 653 585 C 653 594.3888416 623.2269392000001 602 586.5 602 C 549.7730607999999 602 520 594.3888416 520 585 Z" stroke-miterlimit="10"/></g><g transform="translate(-318,-262) scale(1,1)"><g><path fill="none" stroke="none"/><text fill="#000000" stroke="none" font-family="Arial" font-size="13px" font-style="normal" font-weight="bold" text-decoration="none" x="543.872314453125" y="590.5">Agregar Valor</text></g></g><g transform="translate(-318,-262) scale(1,1)"><path fill="#C0C0C0" stroke="none" d="M 687 592 C 687 582.6111584 727.7420832 575 778 575 C 828.2579168 575 869 582.6111584 869 592 C 869 601.3888416 828.2579168 609 778 609 C 727.7420832 609 687 601.3888416 687 592 Z" opacity="0.2"/></g><g transform="translate(-318,-262) scale(1,1)"><path fill="#ffffff" stroke="none" d="M 680 585 C 680 575.6111584 720.7420832 568 771 568 C 821.2579168 568 862 575.6111584 862 585 C 862 594.3888416 821.2579168 602 771 602 C 720.7420832 602 680 594.3888416 680 585 Z"/></g><g transform="translate(-318,-262) scale(1,1)"><path fill="none" stroke="#000000" d="M 680 585 C 680 575.6111584 720.7420832 568 771 568 C 821.2579168 568 862 575.6111584 862 585 C 862 594.3888416 821.2579168 602 771 602 C 720.7420832 602 680 594.3888416 680 585 Z" stroke-miterlimit="10"/></g><g transform="translate(-318,-262) scale(1,1)"><g><path fill="none" stroke="none"/><text fill="#000000" stroke="none" font-family="Arial" font-size="13px" font-style="normal" font-weight="bold" text-decoration="none" x="711.03369140625" y="590.5">Agregar Descrición</text></g></g><g transform="translate(-318,-262) scale(1,1)"><path fill="#C0C0C0" stroke="none" d="M 503 456 C 503 446.6111584 535.2354944 439 575 439 C 614.7645056 439 647 446.6111584 647 456 C 647 465.3888416 614.7645056 473 575 473 C 535.2354944 473 503 465.3888416 503 456 Z" opacity="0.2"/></g><g transform="translate(-318,-262) scale(1,1)"><path fill="#ffffff" stroke="none" d="M 496 449 C 496 439.6111584 528.2354944 432 568 432 C 607.7645056 432 640 439.6111584 640 449 C 640 458.3888416 607.7645056 466 568 466 C 528.2354944 466 496 458.3888416 496 449 Z"/></g><g transform="translate(-318,-262) scale(1,1)"><path fill="none" stroke="#000000" d="M 496 449 C 496 439.6111584 528.2354944 432 568 432 C 607.7645056 432 640 439.6111584 640 449 C 640 458.3888416 607.7645056 466 568 466 C 528.2354944 466 496 458.3888416 496 449 Z" stroke-miterlimit="10"/></g><g transform="translate(-318,-262) scale(1,1)"><g><path fill="none" stroke="none"/><text fill="#000000" stroke="none" font-family="Arial" font-size="13px" font-style="normal" font-weight="bold" text-decoration="none" x="521.40185546875" y="454.5">Publicar Oferta</text></g></g><g transform="translate(-318,-262) scale(1,1)"><path fill="none" stroke="#000000" d="M 397 401 L 504 431" stroke-miterlimit="10"/></g><g transform="translate(-318,-262) scale(1,1)"><path fill="none" stroke="#000000" d="M 707 495 L 750 459" stroke-miterlimit="10" stroke-dasharray="3"/></g><g transform="translate(-318,-262) scale(1,1)"><path fill="none" stroke="#000000" d="M 744.9099348283858 468.75147355781263 L 750 459 L 739.5054473211794 462.2961134797607" stroke-miterlimit="10"/></g><g transform="translate(-318,-262) scale(1,1)"><g><path fill="none" stroke="none"/><text fill="#000000" stroke="none" font-family="Arial" font-size="13px" font-style="normal" font-weight="normal" text-decoration="none" x="670.5" y="475">«extend»</text></g></g><g transform="translate(-318,-262) scale(1,1)"><path fill="none" stroke="#000000" d="M 660 531 L 611 567" stroke-miterlimit="10" stroke-dasharray="3"/></g><g transform="translate(-318,-262) scale(1,1)"><path fill="none" stroke="#000000" d="M 616.6975585764072 557.5905459101812 L 611 567 L 621.6822710997595 564.3752935114106" stroke-miterlimit="10"/></g><g transform="translate(-318,-262) scale(1,1)"><g><path fill="none" stroke="none"/><text fill="#000000" stroke="none" font-family="Arial" font-size="13px" font-style="normal" font-weight="normal" text-decoration="none" x="567.5" y="546">«include»</text></g></g><g transform="translate(-318,-262) scale(1,1)"><path fill="none" stroke="#000000" d="M 750 567 L 707 531" stroke-miterlimit="10" stroke-dasharray="3"/></g><g transform="translate(-318,-262) scale(1,1)"><path fill="none" stroke="#000000" d="M 717.4945526788206 534.2961134797607 L 707 531 L 712.0900651716142 540.7514735578127" stroke-miterlimit="10"/></g><g transform="translate(-318,-262) scale(1,1)"><g><path fill="none" stroke="none"/><text fill="#000000" stroke="none" font-family="Arial" font-size="13px" font-style="normal" font-weight="normal" text-decoration="none" x="735.5" y="554">«extend»</text></g></g></g></svg>