<svg version="1.1" xmlns="http://www.w3.org/2000/svg" xmlns:xlink="http://www.w3.org/1999/xlink" width="628" height="428"><defs/><g><text fill="#eeeeee" stroke="none" font-family="Arial" font-size="24px" font-style="normal" font-weight="normal" text-decoration="none" x="0" y="0">UNREGISTERED</text><text fill="#eeeeee" stroke="none" font-family="Arial" font-size="24px" font-style="normal" font-weight="normal" text-decoration="none" x="0" y="30">UNREGISTERED</text><text fill="#eeeeee" stroke="none" font-family="Arial" font-size="24px" font-style="normal" font-weight="normal" text-decoration="none" x="0" y="60">UNREGISTERED</text><text fill="#eeeeee" stroke="none" font-family="Arial" font-size="24px" font-style="normal" font-weight="normal" text-decoration="none" x="0" y="90">UNREGISTERED</text><text fill="#eeeeee" stroke="none" font-family="Arial" font-size="24px" font-style="normal" font-weight="normal" text-decoration="none" x="0" y="120">UNREGISTERED</text><text fill="#eeeeee" stroke="none" font-family="Arial" font-size="24px" font-style="normal" font-weight="normal" text-decoration="none" x="0" y="150">UNREGISTERED</text><text fill="#eeeeee" stroke="none" font-family="Arial" font-size="24px" font-style="normal" font-weight="normal" text-decoration="none" x="0" y="180">UNREGISTERED</text><text fill="#eeeeee" stroke="none" font-family="Arial" font-size="24px" font-style="normal" font-weight="normal" text-decoration="none" x="0" y="210">UNREGISTERED</text><text fill="#eeeeee" stroke="none" font-family="Arial" font-size="24px" font-style="normal" font-weight="normal" text-decoration="none" x="0" y="240">UNREGISTERED</text><text fill="#eeeeee" stroke="none" font-family="Arial" font-size="24px" font-style="normal" font-weight="normal" text-decoration="none" x="0" y="270">UNREGISTERED</text><text fill="#eeeeee" stroke="none" font-family="Arial" font-size="24px" font-style="normal" font-weight="normal" text-decoration="none" x="0" y="300">UNREGISTERED</text><text fill="#eeeeee" stroke="none" font-family="Arial" font-size="24px" font-style="normal" font-weight="normal" text-decoration="none" x="0" y="330">UNREGISTERED</text><text fill="#eeeeee" stroke="none" font-family="Arial" font-size="24px" font-style="normal" font-weight="normal" text-decoration="none" x="0" y="360">UNREGISTERED</text><text fill="#eeeeee" stroke="none" font-family="Arial" font-size="24px" font-style="normal" font-weight="normal" text-decoration="none" x="0" y="390">UNREGISTERED</text><text fill="#eeeeee" stroke="none" font-family="Arial" font-size="24px" font-style="normal" font-weight="normal" text-decoration="none" x="0" y="420">UNREGISTERED</text><text fill="#eeeeee" stroke="none" font-family="Arial" font-size="24px" font-style="normal" font-weight="normal" text-decoration="none" x="200" y="0">UNREGISTERED</text><text fill="#eeeeee" stroke="none" font-family="Arial" font-size="24px" font-style="normal" font-weight="normal" text-decoration="none" x="200" y="30">UNREGISTERED</text><text fill="#eeeeee" stroke="none" font-family="Arial" font-size="24px" font-style="normal" font-weight="normal" text-decoration="none" x="200" y="60">UNREGISTERED</text><text fill="#eeeeee" stroke="none" font-family="Arial" font-size="24px" font-style="normal" font-weight="normal" text-decoration="none" x="200" y="90">UNREGISTERED</text><text fill="#eeeeee" stroke="none" font-family="Arial" font-size="24px" font-style="normal" font-weight="normal" text-decoration="none" x="200" y="120">UNREGISTERED</text><text fill="#eeeeee" stroke="none" font-family="Arial" font-size="24px" font-style="normal" font-weight="normal" text-decoration="none" x="200" y="150">UNREGISTERED</text><text fill="#eeeeee" stroke="none" font-family="Arial" font-size="24px" font-style="normal" font-weight="normal" text-decoration="none" x="200" y="180">UNREGISTERED</text><text fill="#eeeeee" stroke="none" font-family="Arial" font-size="24px" font-style="normal" font-weight="normal" text-decoration="none" x="200" y="210">UNREGISTERED</text><text fill="#eeeeee" stroke="none" font-family="Arial" font-size="24px" font-style="normal" font-weight="normal" text-decoration="none" x="200" y="240">UNREGISTERED</text><text fill="#eeeeee" stroke="none" font-family="Arial" font-size="24px" font-style="normal" font-weight="normal" text-decoration="none" x="200" y="270">UNREGISTERED</text><text fill="#eeeeee" stroke="none" font-family="Arial" font-size="24px" font-style="normal" font-weight="normal" text-decoration="none" x="200" y="300">UNREGISTERED</text><text fill="#eeeeee" stroke="none" font-family="Arial" font-size="24px" font-style="normal" font-weight="normal" text-decoration="none" x="200" y="330">UNREGISTERED</text><text fill="#eeeeee" stroke="none" font-family="Arial" font-size="24px" font-style="normal" font-weight="normal" text-decoration="none" x="200" y="360">UNREGISTERED</text><text fill="#eeeeee" stroke="none" font-family="Arial" font-size="24px" font-style="normal" font-weight="normal" text-decoration="none" x="200" y="390">UNREGISTERED</text><text fill="#eeeeee" stroke="none" font-family="Arial" font-size="24px" font-style="normal" font-weight="normal" text-decoration="none" x="200" y="420">UNREGISTERED</text><text fill="#eeeeee" stroke="none" font-family="Arial" font-size="24px" font-style="normal" font-weight="normal" text-decoration="none" x="400" y="0">UNREGISTERED</text><text fill="#eeeeee" stroke="none" font-family="Arial" font-size="24px" font-style="normal" font-weight="normal" text-decoration="none" x="400" y="30">UNREGISTERED</text><text fill="#eeeeee" stroke="none" font-family="Arial" font-size="24px" font-style="normal" font-weight="normal" text-decoration="none" x="400" y="60">UNREGISTERED</text><text fill="#eeeeee" stroke="none" font-family="Arial" font-size="24px" font-style="normal" font-weight="normal" text-decoration="none" x="400" y="90">UNREGISTERED</text><text fill="#eeeeee" stroke="none" font-family="Arial" font-size="24px" font-style="normal" font-weight="normal" text-decoration="none" x="400" y="120">UNREGISTERED</text><text fill="#eeeeee" stroke="none" font-family="Arial" font-size="24px" font-style="normal" font-weight="normal" text-decoration="none" x="400" y="150">UNREGISTERED</text><text fill="#eeeeee" stroke="none" font-family="Arial" font-size="24px" font-style="normal" font-weight="normal" text-decoration="none" x="400" y="180">UNREGISTERED</text><text fill="#eeeeee" stroke="none" font-family="Arial" font-size="24px" font-style="normal" font-weight="normal" text-decoration="none" x="400" y="210">UNREGISTERED</text><text fill="#eeeeee" stroke="none" font-family="Arial" font-size="24px" font-style="normal" font-weight="normal" text-decoration="none" x="400" y="240">UNREGISTERED</text><text fill="#eeeeee" stroke="none" font-family="Arial" font-size="24px" font-style="normal" font-weight="normal" text-decoration="none" x="400" y="270">UNREGISTERED</text><text fill="#eeeeee" stroke="none" font-family="Arial" font-size="24px" font-style="normal" font-weight="normal" text-decoration="none" x="400" y="300">UNREGISTERED</text><text fill="#eeeeee" stroke="none" font-family="Arial" font-size="24px" font-style="normal" font-weight="normal" text-decoration="none" x="400" y="330">UNREGISTERED</text><text fill="#eeeeee" stroke="none" font-family="Arial" font-size="24px" font-style="normal" font-weight="normal" text-decoration="none" x="400" y="360">UNREGISTERED</text><text fill="#eeeeee" stroke="none" font-family="Arial" font-size="24px" font-style="normal" font-weight="normal" text-decoration="none" x="400" y="390">UNREGISTERED</text><text fill="#eeeeee" stroke="none" font-family="Arial" font-size="24px" font-style="normal" font-weight="normal" text-decoration="none" x="400" y="420">UNREGISTERED</text><text fill="#eeeeee" stroke="none" font-family="Arial" font-size="24px" font-style="normal" font-weight="normal" text-decoration="none" x="600" y="0">UNREGISTERED</text><text fill="#eeeeee" stroke="none" font-family="Arial" font-size="24px" font-style="normal" font-weight="normal" text-decoration="none" x="600" y="30">UNREGISTERED</text><text fill="#eeeeee" stroke="none" font-family="Arial" font-size="24px" font-style="normal" font-weight="normal" text-decoration="none" x="600" y="60">UNREGISTERED</text><text fill="#eeeeee" stroke="none" font-family="Arial" font-size="24px" font-style="normal" font-weight="normal" text-decoration="none" x="600" y="90">UNREGISTERED</text><text fill="#eeeeee" stroke="none" font-family="Arial" font-size="24px" font-style="normal" font-weight="normal" text-decoration="none" x="600" y="120">UNREGISTERED</text><text fill="#eeeeee" stroke="none" font-family="Arial" font-size="24px" font-style="normal" font-weight="normal" text-decoration="none" x="600" y="150">UNREGISTERED</text><text fill="#eeeeee" stroke="none" font-family="Arial" font-size="24px" font-style="normal" font-weight="normal" text-decoration="none" x="600" y="180">UNREGISTERED</text><text fill="#eeeeee" stroke="none" font-family="Arial" font-size="24px" font-style="normal" font-weight="normal" text-decoration="none" x="600" y="210">UNREGISTERED</text><text fill="#eeeeee" stroke="none" font-family="Arial" font-size="24px" font-style="normal" font-weight="normal" text-decoration="none" x="600" y="240">UNREGISTERED</text><text fill="#eeeeee" stroke="none" font-family="Arial" font-size="24px" font-style="normal" font-weight="normal" text-decoration="none" x="600" y="270">UNREGISTERED</text><text fill="#eeeeee" stroke="none" font-family="Arial" font-size="24px" font-style="normal" font-weight="normal" text-decoration="none" x="600" y="300">UNREGISTERED</text><text fill="#eeeeee" stroke="none" font-family="Arial" font-size="24px" font-style="normal" font-weight="normal" text-decoration="none" x="600" y="330">UNREGISTERED</text><text fill="#eeeeee" stroke="none" font-family="Arial" font-size="24px" font-style="normal" font-weight="normal" text-decoration="none" x="600" y="360">UNREGISTERED</text><text fill="#eeeeee" stroke="none" font-family="Arial" font-size="24px" font-style="normal" font-weight="normal" text-decoration="none" x="600" y="390">UNREGISTERED</text><text fill="#eeeeee" stroke="none" font-family="Arial" font-size="24px" font-style="normal" font-weight="normal" text-decoration="none" x="600" y="420">UNREGISTERED</text><g transform="translate(-334,-294) scale(1,1)"><rect fill="#C0C0C0" stroke="none" x="495" y="311" width="464" height="408" opacity="0.2"/></g><g transform="translate(-334,-294) scale(1,1)"><rect fill="#ffffff" stroke="none" x="488" y="304" width="464" height="408"/></g><g transform="translate(-334,-294) scale(1,1)"><path fill="none" stroke="#000000" d="M 488 304 L 952 304 L 952 712 L 488 712 L 488 304 Z Z" stroke-miterlimit="10"/></g><g transform="translate(-334,-294) scale(1,1)"><g><path fill="none" stroke="none"/><text fill="#000000" stroke="none" font-family="Arial" font-size="13px" font-style="normal" font-weight="bold" text-decoration="none" x="585.6201171875" y="321.7099609375">Recibir publicaciones de compras _ TR-006</text></g></g><g transform="translate(-334,-294) scale(1,1)"><path fill="#ffffff" stroke="none" d="M 369.43889133522725 449.68 C 369.43889133522725 444.886167936 373.32473366017274 441 378.1181640625 441 C 382.91159446482726 441 386.79743678977275 444.886167936 386.79743678977275 449.68 C 386.79743678977275 454.473832064 382.91159446482726 458.36 378.1181640625 458.36 C 373.32473366017274 458.36 369.43889133522725 454.473832064 369.43889133522725 449.68 Z"/></g><g transform="translate(-334,-294) scale(1,1)"><path fill="none" stroke="#000000" d="M 369.43889133522725 449.68 C 369.43889133522725 444.886167936 373.32473366017274 441 378.1181640625 441 C 382.91159446482726 441 386.79743678977275 444.886167936 386.79743678977275 449.68 C 386.79743678977275 454.473832064 382.91159446482726 458.36 378.1181640625 458.36 C 373.32473366017274 458.36 369.43889133522725 454.473832064 369.43889133522725 449.68 Z" stroke-miterlimit="10"/></g><g transform="translate(-334,-294) scale(1,1)"><path fill="none" stroke="#000000" d="M 378.1181640625 458.36 L 378.1181640625 475.64" stroke-miterlimit="10"/></g><g transform="translate(-334,-294) scale(1,1)"><path fill="none" stroke="#000000" d="M 368.92834588068183 464.84 L 387.30798224431817 464.84" stroke-miterlimit="10"/></g><g transform="translate(-334,-294) scale(1,1)"><path fill="none" stroke="#000000" d="M 378.1181640625 475.64 L 365.35452769886365 493" stroke-miterlimit="10"/></g><g transform="translate(-334,-294) scale(1,1)"><path fill="none" stroke="#000000" d="M 378.1181640625 475.64 L 390.88180042613635 493" stroke-miterlimit="10"/></g><g transform="translate(-334,-294) scale(1,1)"><g><path fill="none" stroke="none"/><text fill="#000000" stroke="none" font-family="Arial" font-size="13px" font-style="normal" font-weight="bold" text-decoration="none" x="348.5" y="511.7099609375">Vendedor</text></g></g><g transform="translate(-334,-294) scale(1,1)"><path fill="#C0C0C0" stroke="none" d="M 591 392 C 591 382.6111584 632.413656 375 683.5 375 C 734.586344 375 776 382.6111584 776 392 C 776 401.3888416 734.586344 409 683.5 409 C 632.413656 409 591 401.3888416 591 392 Z" opacity="0.2"/></g><g transform="translate(-334,-294) scale(1,1)"><path fill="#ffffff" stroke="none" d="M 584 385 C 584 375.6111584 625.413656 368 676.5 368 C 727.586344 368 769 375.6111584 769 385 C 769 394.3888416 727.586344 402 676.5 402 C 625.413656 402 584 394.3888416 584 385 Z"/></g><g transform="translate(-334,-294) scale(1,1)"><path fill="none" stroke="#000000" d="M 584 385 C 584 375.6111584 625.413656 368 676.5 368 C 727.586344 368 769 375.6111584 769 385 C 769 394.3888416 727.586344 402 676.5 402 C 625.413656 402 584 394.3888416 584 385 Z" stroke-miterlimit="10"/></g><g transform="translate(-334,-294) scale(1,1)"><g><path fill="none" stroke="none"/><text fill="#000000" stroke="none" font-family="Arial" font-size="13px" font-style="normal" font-weight="bold" text-decoration="none" x="615.4609375" y="390.2861328125">Recibir Notificación</text></g></g><g transform="translate(-334,-294) scale(1,1)"><path fill="none" stroke="#000000" d="M 413 468 L 619 403" stroke-miterlimit="10"/></g><g transform="translate(-334,-294) scale(1,1)"><path fill="#C0C0C0" stroke="none" d="M 535 544 C 535 534.6111584 575.5182256 527 625.5 527 C 675.4817744 527 716 534.6111584 716 544 C 716 553.3888416 675.4817744 561 625.5 561 C 575.5182256 561 535 553.3888416 535 544 Z" opacity="0.2"/></g><g transform="translate(-334,-294) scale(1,1)"><path fill="#ffffff" stroke="none" d="M 528 537 C 528 527.6111584 568.5182256 520 618.5 520 C 668.4817744 520 709 527.6111584 709 537 C 709 546.3888416 668.4817744 554 618.5 554 C 568.5182256 554 528 546.3888416 528 537 Z"/></g><g transform="translate(-334,-294) scale(1,1)"><path fill="none" stroke="#000000" d="M 528 537 C 528 527.6111584 568.5182256 520 618.5 520 C 668.4817744 520 709 527.6111584 709 537 C 709 546.3888416 668.4817744 554 618.5 554 C 568.5182256 554 528 546.3888416 528 537 Z" stroke-miterlimit="10"/></g><g transform="translate(-334,-294) scale(1,1)"><g><path fill="none" stroke="none"/><text fill="#000000" stroke="none" font-family="Arial" font-size="13px" font-style="normal" font-weight="bold" text-decoration="none" x="559.019287109375" y="542.2099609375">Visualizar Solicitud</text></g></g><g transform="translate(-334,-294) scale(1,1)"><path fill="none" stroke="#000000" d="M 413 488 L 544 519" stroke-miterlimit="10"/></g><g transform="translate(-334,-294) scale(1,1)"><path fill="#C0C0C0" stroke="none" d="M 791 472 C 791 462.6111584 823.459352 455 863.5 455 C 903.540648 455 936 462.6111584 936 472 C 936 481.3888416 903.540648 489 863.5 489 C 823.459352 489 791 481.3888416 791 472 Z" opacity="0.2"/></g><g transform="translate(-334,-294) scale(1,1)"><path fill="#ffffff" stroke="none" d="M 784 465 C 784 455.6111584 816.459352 448 856.5 448 C 896.540648 448 929 455.6111584 929 465 C 929 474.3888416 896.540648 482 856.5 482 C 816.459352 482 784 474.3888416 784 465 Z"/></g><g transform="translate(-334,-294) scale(1,1)"><path fill="none" stroke="#000000" d="M 784 465 C 784 455.6111584 816.459352 448 856.5 448 C 896.540648 448 929 455.6111584 929 465 C 929 474.3888416 896.540648 482 856.5 482 C 816.459352 482 784 474.3888416 784 465 Z" stroke-miterlimit="10"/></g><g transform="translate(-334,-294) scale(1,1)"><g><path fill="none" stroke="none"/><text fill="#000000" stroke="none" font-family="Arial" font-size="13px" font-style="normal" font-weight="bold" text-decoration="none" x="809.549560546875" y="470.2099609375">Listar Solicitud</text></g></g><g transform="translate(-334,-294) scale(1,1)"><path fill="none" stroke="#000000" d="M 816 447 L 717 403" stroke-miterlimit="10" stroke-dasharray="3"/></g><g transform="translate(-334,-294) scale(1,1)"><path fill="none" stroke="#000000" d="M 727.9964167340228 403.28074723810596 L 717 403 L 724.5771225655166 410.9741591172449" stroke-miterlimit="10"/></g><g transform="translate(-334,-294) scale(1,1)"><g><path fill="none" stroke="none"/><text fill="#000000" stroke="none" font-family="Arial" font-size="13px" font-style="normal" font-weight="normal" text-decoration="none" x="726.5" y="456.7099609375">«extend»</text></g></g></g></svg>