<svg version="1.1" xmlns="http://www.w3.org/2000/svg" xmlns:xlink="http://www.w3.org/1999/xlink" width="625" height="492"><defs/><g><text fill="#eeeeee" stroke="none" font-family="Arial" font-size="24px" font-style="normal" font-weight="normal" text-decoration="none" x="0" y="0">UNREGISTERED</text><text fill="#eeeeee" stroke="none" font-family="Arial" font-size="24px" font-style="normal" font-weight="normal" text-decoration="none" x="0" y="30">UNREGISTERED</text><text fill="#eeeeee" stroke="none" font-family="Arial" font-size="24px" font-style="normal" font-weight="normal" text-decoration="none" x="0" y="60">UNREGISTERED</text><text fill="#eeeeee" stroke="none" font-family="Arial" font-size="24px" font-style="normal" font-weight="normal" text-decoration="none" x="0" y="90">UNREGISTERED</text><text fill="#eeeeee" stroke="none" font-family="Arial" font-size="24px" font-style="normal" font-weight="normal" text-decoration="none" x="0" y="120">UNREGISTERED</text><text fill="#eeeeee" stroke="none" font-family="Arial" font-size="24px" font-style="normal" font-weight="normal" text-decoration="none" x="0" y="150">UNREGISTERED</text><text fill="#eeeeee" stroke="none" font-family="Arial" font-size="24px" font-style="normal" font-weight="normal" text-decoration="none" x="0" y="180">UNREGISTERED</text><text fill="#eeeeee" stroke="none" font-family="Arial" font-size="24px" font-style="normal" font-weight="normal" text-decoration="none" x="0" y="210">UNREGISTERED</text><text fill="#eeeeee" stroke="none" font-family="Arial" font-size="24px" font-style="normal" font-weight="normal" text-decoration="none" x="0" y="240">UNREGISTERED</text><text fill="#eeeeee" stroke="none" font-family="Arial" font-size="24px" font-style="normal" font-weight="normal" text-decoration="none" x="0" y="270">UNREGISTERED</text><text fill="#eeeeee" stroke="none" font-family="Arial" font-size="24px" font-style="normal" font-weight="normal" text-decoration="none" x="0" y="300">UNREGISTERED</text><text fill="#eeeeee" stroke="none" font-family="Arial" font-size="24px" font-style="normal" font-weight="normal" text-decoration="none" x="0" y="330">UNREGISTERED</text><text fill="#eeeeee" stroke="none" font-family="Arial" font-size="24px" font-style="normal" font-weight="normal" text-decoration="none" x="0" y="360">UNREGISTERED</text><text fill="#eeeeee" stroke="none" font-family="Arial" font-size="24px" font-style="normal" font-weight="normal" text-decoration="none" x="0" y="390">UNREGISTERED</text><text fill="#eeeeee" stroke="none" font-family="Arial" font-size="24px" font-style="normal" font-weight="normal" text-decoration="none" x="0" y="420">UNREGISTERED</text><text fill="#eeeeee" stroke="none" font-family="Arial" font-size="24px" font-style="normal" font-weight="normal" text-decoration="none" x="0" y="450">UNREGISTERED</text><text fill="#eeeeee" stroke="none" font-family="Arial" font-size="24px" font-style="normal" font-weight="normal" text-decoration="none" x="0" y="480">UNREGISTERED</text><text fill="#eeeeee" stroke="none" font-family="Arial" font-size="24px" font-style="normal" font-weight="normal" text-decoration="none" x="200" y="0">UNREGISTERED</text><text fill="#eeeeee" stroke="none" font-family="Arial" font-size="24px" font-style="normal" font-weight="normal" text-decoration="none" x="200" y="30">UNREGISTERED</text><text fill="#eeeeee" stroke="none" font-family="Arial" font-size="24px" font-style="normal" font-weight="normal" text-decoration="none" x="200" y="60">UNREGISTERED</text><text fill="#eeeeee" stroke="none" font-family="Arial" font-size="24px" font-style="normal" font-weight="normal" text-decoration="none" x="200" y="90">UNREGISTERED</text><text fill="#eeeeee" stroke="none" font-family="Arial" font-size="24px" font-style="normal" font-weight="normal" text-decoration="none" x="200" y="120">UNREGISTERED</text><text fill="#eeeeee" stroke="none" font-family="Arial" font-size="24px" font-style="normal" font-weight="normal" text-decoration="none" x="200" y="150">UNREGISTERED</text><text fill="#eeeeee" stroke="none" font-family="Arial" font-size="24px" font-style="normal" font-weight="normal" text-decoration="none" x="200" y="180">UNREGISTERED</text><text fill="#eeeeee" stroke="none" font-family="Arial" font-size="24px" font-style="normal" font-weight="normal" text-decoration="none" x="200" y="210">UNREGISTERED</text><text fill="#eeeeee" stroke="none" font-family="Arial" font-size="24px" font-style="normal" font-weight="normal" text-decoration="none" x="200" y="240">UNREGISTERED</text><text fill="#eeeeee" stroke="none" font-family="Arial" font-size="24px" font-style="normal" font-weight="normal" text-decoration="none" x="200" y="270">UNREGISTERED</text><text fill="#eeeeee" stroke="none" font-family="Arial" font-size="24px" font-style="normal" font-weight="normal" text-decoration="none" x="200" y="300">UNREGISTERED</text><text fill="#eeeeee" stroke="none" font-family="Arial" font-size="24px" font-style="normal" font-weight="normal" text-decoration="none" x="200" y="330">UNREGISTERED</text><text fill="#eeeeee" stroke="none" font-family="Arial" font-size="24px" font-style="normal" font-weight="normal" text-decoration="none" x="200" y="360">UNREGISTERED</text><text fill="#eeeeee" stroke="none" font-family="Arial" font-size="24px" font-style="normal" font-weight="normal" text-decoration="none" x="200" y="390">UNREGISTERED</text><text fill="#eeeeee" stroke="none" font-family="Arial" font-size="24px" font-style="normal" font-weight="normal" text-decoration="none" x="200" y="420">UNREGISTERED</text><text fill="#eeeeee" stroke="none" font-family="Arial" font-size="24px" font-style="normal" font-weight="normal" text-decoration="none" x="200" y="450">UNREGISTERED</text><text fill="#eeeeee" stroke="none" font-family="Arial" font-size="24px" font-style="normal" font-weight="normal" text-decoration="none" x="200" y="480">UNREGISTERED</text><text fill="#eeeeee" stroke="none" font-family="Arial" font-size="24px" font-style="normal" font-weight="normal" text-decoration="none" x="400" y="0">UNREGISTERED</text><text fill="#eeeeee" stroke="none" font-family="Arial" font-size="24px" font-style="normal" font-weight="normal" text-decoration="none" x="400" y="30">UNREGISTERED</text><text fill="#eeeeee" stroke="none" font-family="Arial" font-size="24px" font-style="normal" font-weight="normal" text-decoration="none" x="400" y="60">UNREGISTERED</text><text fill="#eeeeee" stroke="none" font-family="Arial" font-size="24px" font-style="normal" font-weight="normal" text-decoration="none" x="400" y="90">UNREGISTERED</text><text fill="#eeeeee" stroke="none" font-family="Arial" font-size="24px" font-style="normal" font-weight="normal" text-decoration="none" x="400" y="120">UNREGISTERED</text><text fill="#eeeeee" stroke="none" font-family="Arial" font-size="24px" font-style="normal" font-weight="normal" text-decoration="none" x="400" y="150">UNREGISTERED</text><text fill="#eeeeee" stroke="none" font-family="Arial" font-size="24px" font-style="normal" font-weight="normal" text-decoration="none" x="400" y="180">UNREGISTERED</text><text fill="#eeeeee" stroke="none" font-family="Arial" font-size="24px" font-style="normal" font-weight="normal" text-decoration="none" x="400" y="210">UNREGISTERED</text><text fill="#eeeeee" stroke="none" font-family="Arial" font-size="24px" font-style="normal" font-weight="normal" text-decoration="none" x="400" y="240">UNREGISTERED</text><text fill="#eeeeee" stroke="none" font-family="Arial" font-size="24px" font-style="normal" font-weight="normal" text-decoration="none" x="400" y="270">UNREGISTERED</text><text fill="#eeeeee" stroke="none" font-family="Arial" font-size="24px" font-style="normal" font-weight="normal" text-decoration="none" x="400" y="300">UNREGISTERED</text><text fill="#eeeeee" stroke="none" font-family="Arial" font-size="24px" font-style="normal" font-weight="normal" text-decoration="none" x="400" y="330">UNREGISTERED</text><text fill="#eeeeee" stroke="none" font-family="Arial" font-size="24px" font-style="normal" font-weight="normal" text-decoration="none" x="400" y="360">UNREGISTERED</text><text fill="#eeeeee" stroke="none" font-family="Arial" font-size="24px" font-style="normal" font-weight="normal" text-decoration="none" x="400" y="390">UNREGISTERED</text><text fill="#eeeeee" stroke="none" font-family="Arial" font-size="24px" font-style="normal" font-weight="normal" text-decoration="none" x="400" y="420">UNREGISTERED</text><text fill="#eeeeee" stroke="none" font-family="Arial" font-size="24px" font-style="normal" font-weight="normal" text-decoration="none" x="400" y="450">UNREGISTERED</text><text fill="#eeeeee" stroke="none" font-family="Arial" font-size="24px" font-style="normal" font-weight="normal" text-decoration="none" x="400" y="480">UNREGISTERED</text><text fill="#eeeeee" stroke="none" font-family="Arial" font-size="24px" font-style="normal" font-weight="normal" text-decoration="none" x="600" y="0">UNREGISTERED</text><text fill="#eeeeee" stroke="none" font-family="Arial" font-size="24px" font-style="normal" font-weight="normal" text-decoration="none" x="600" y="30">UNREGISTERED</text><text fill="#eeeeee" stroke="none" font-family="Arial" font-size="24px" font-style="normal" font-weight="normal" text-decoration="none" x="600" y="60">UNREGISTERED</text><text fill="#eeeeee" stroke="none" font-family="Arial" font-size="24px" font-style="normal" font-weight="normal" text-decoration="none" x="600" y="90">UNREGISTERED</text><text fill="#eeeeee" stroke="none" font-family="Arial" font-size="24px" font-style="normal" font-weight="normal" text-decoration="none" x="600" y="120">UNREGISTERED</text><text fill="#eeeeee" stroke="none" font-family="Arial" font-size="24px" font-style="normal" font-weight="normal" text-decoration="none" x="600" y="150">UNREGISTERED</text><text fill="#eeeeee" stroke="none" font-family="Arial" font-size="24px" font-style="normal" font-weight="normal" text-decoration="none" x="600" y="180">UNREGISTERED</text><text fill="#eeeeee" stroke="none" font-family="Arial" font-size="24px" font-style="normal" font-weight="normal" text-decoration="none" x="600" y="210">UNREGISTERED</text><text fill="#eeeeee" stroke="none" font-family="Arial" font-size="24px" font-style="normal" font-weight="normal" text-decoration="none" x="600" y="240">UNREGISTERED</text><text fill="#eeeeee" stroke="none" font-family="Arial" font-size="24px" font-style="normal" font-weight="normal" text-decoration="none" x="600" y="270">UNREGISTERED</text><text fill="#eeeeee" stroke="none" font-family="Arial" font-size="24px" font-style="normal" font-weight="normal" text-decoration="none" x="600" y="300">UNREGISTERED</text><text fill="#eeeeee" stroke="none" font-family="Arial" font-size="24px" font-style="normal" font-weight="normal" text-decoration="none" x="600" y="330">UNREGISTERED</text><text fill="#eeeeee" stroke="none" font-family="Arial" font-size="24px" font-style="normal" font-weight="normal" text-decoration="none" x="600" y="360">UNREGISTERED</text><text fill="#eeeeee" stroke="none" font-family="Arial" font-size="24px" font-style="normal" font-weight="normal" text-decoration="none" x="600" y="390">UNREGISTERED</text><text fill="#eeeeee" stroke="none" font-family="Arial" font-size="24px" font-style="normal" font-weight="normal" text-decoration="none" x="600" y="420">UNREGISTERED</text><text fill="#eeeeee" stroke="none" font-family="Arial" font-size="24px" font-style="normal" font-weight="normal" text-decoration="none" x="600" y="450">UNREGISTERED</text><text fill="#eeeeee" stroke="none" font-family="Arial" font-size="24px" font-style="normal" font-weight="normal" text-decoration="none" x="600" y="480">UNREGISTERED</text><g transform="translate(-249,-246) scale(1,1)"><rect fill="#C0C0C0" stroke="none" x="439" y="263" width="432" height="472" opacity="0.2"/></g><g transform="translate(-249,-246) scale(1,1)"><rect fill="#ffffff" stroke="none" x="432" y="256" width="432" height="472"/></g><g transform="translate(-249,-246) scale(1,1)"><path fill="none" stroke="#000000" d="M 432 256 L 864 256 L 864 728 L 432 728 L 432 256 Z Z" stroke-miterlimit="10"/></g><g transform="translate(-249,-246) scale(1,1)"><g><path fill="none" stroke="none"/><text fill="#000000" stroke="none" font-family="Arial" font-size="13px" font-style="normal" font-weight="bold" text-decoration="none" x="478.603271484375" y="274">Configurar radio de búsqueda de vendedores _ TR-013</text></g></g><g transform="translate(-249,-246) scale(1,1)"><path fill="#ffffff" stroke="none" d="M 289.85026828835225 495.68 C 289.85026828835225 490.886167936 293.73611061329774 487 298.529541015625 487 C 303.32297141795226 487 307.20881374289775 490.886167936 307.20881374289775 495.68 C 307.20881374289775 500.473832064 303.32297141795226 504.36 298.529541015625 504.36 C 293.73611061329774 504.36 289.85026828835225 500.473832064 289.85026828835225 495.68 Z"/></g><g transform="translate(-249,-246) scale(1,1)"><path fill="none" stroke="#000000" d="M 289.85026828835225 495.68 C 289.85026828835225 490.886167936 293.73611061329774 487 298.529541015625 487 C 303.32297141795226 487 307.20881374289775 490.886167936 307.20881374289775 495.68 C 307.20881374289775 500.473832064 303.32297141795226 504.36 298.529541015625 504.36 C 293.73611061329774 504.36 289.85026828835225 500.473832064 289.85026828835225 495.68 Z" stroke-miterlimit="10"/></g><g transform="translate(-249,-246) scale(1,1)"><path fill="none" stroke="#000000" d="M 298.529541015625 504.36 L 298.529541015625 521.64" stroke-miterlimit="10"/></g><g transform="translate(-249,-246) scale(1,1)"><path fill="none" stroke="#000000" d="M 289.33972283380683 510.84 L 307.71935919744317 510.84" stroke-miterlimit="10"/></g><g transform="translate(-249,-246) scale(1,1)"><path fill="none" stroke="#000000" d="M 298.529541015625 521.64 L 285.76590465198865 539" stroke-miterlimit="10"/></g><g transform="translate(-249,-246) scale(1,1)"><path fill="none" stroke="#000000" d="M 298.529541015625 521.64 L 311.29317737926135 539" stroke-miterlimit="10"/></g><g transform="translate(-249,-246) scale(1,1)"><g><path fill="none" stroke="none"/><text fill="#000000" stroke="none" font-family="Arial" font-size="13px" font-style="normal" font-weight="bold" text-decoration="none" x="263.5" y="558">Comprador</text></g></g><g transform="translate(-249,-246) scale(1,1)"><path fill="#C0C0C0" stroke="none" d="M 599 368 C 599 358.6111584 629.6684912 351 667.5 351 C 705.3315088 351 736 358.6111584 736 368 C 736 377.3888416 705.3315088 385 667.5 385 C 629.6684912 385 599 377.3888416 599 368 Z" opacity="0.2"/></g><g transform="translate(-249,-246) scale(1,1)"><path fill="#ffffff" stroke="none" d="M 592 361 C 592 351.6111584 622.6684912 344 660.5 344 C 698.3315088 344 729 351.6111584 729 361 C 729 370.3888416 698.3315088 378 660.5 378 C 622.6684912 378 592 370.3888416 592 361 Z"/></g><g transform="translate(-249,-246) scale(1,1)"><path fill="none" stroke="#000000" d="M 592 361 C 592 351.6111584 622.6684912 344 660.5 344 C 698.3315088 344 729 351.6111584 729 361 C 729 370.3888416 698.3315088 378 660.5 378 C 622.6684912 378 592 370.3888416 592 361 Z" stroke-miterlimit="10"/></g><g transform="translate(-249,-246) scale(1,1)"><g><path fill="none" stroke="none"/><text fill="#000000" stroke="none" font-family="Arial" font-size="13px" font-style="normal" font-weight="bold" text-decoration="none" x="616.447265625" y="366.5">Configuración</text></g></g><g transform="translate(-249,-246) scale(1,1)"><path fill="none" stroke="#000000" d="M 339 506 L 620 379" stroke-miterlimit="10"/></g><g transform="translate(-249,-246) scale(1,1)"><path fill="#C0C0C0" stroke="none" d="M 623 488 C 623 478.6111584 659.4887888 471 704.5 471 C 749.5112112 471 786 478.6111584 786 488 C 786 497.3888416 749.5112112 505 704.5 505 C 659.4887888 505 623 497.3888416 623 488 Z" opacity="0.2"/></g><g transform="translate(-249,-246) scale(1,1)"><path fill="#ffffff" stroke="none" d="M 616 481 C 616 471.6111584 652.4887888 464 697.5 464 C 742.5112112 464 779 471.6111584 779 481 C 779 490.3888416 742.5112112 498 697.5 498 C 652.4887888 498 616 490.3888416 616 481 Z"/></g><g transform="translate(-249,-246) scale(1,1)"><path fill="none" stroke="#000000" d="M 616 481 C 616 471.6111584 652.4887888 464 697.5 464 C 742.5112112 464 779 471.6111584 779 481 C 779 490.3888416 742.5112112 498 697.5 498 C 652.4887888 498 616 490.3888416 616 481 Z" stroke-miterlimit="10"/></g><g transform="translate(-249,-246) scale(1,1)"><g><path fill="none" stroke="none"/><text fill="#000000" stroke="none" font-family="Arial" font-size="13px" font-style="normal" font-weight="bold" text-decoration="none" x="644.417724609375" y="486.5">Configurar Radio</text></g></g><g transform="translate(-249,-246) scale(1,1)"><path fill="none" stroke="#000000" d="M 691 463 L 666 379" stroke-miterlimit="10" stroke-dasharray="3"/></g><g transform="translate(-249,-246) scale(1,1)"><path fill="none" stroke="#000000" d="M 672.9335605781475 387.5396567676434 L 666 379 L 664.8643184931695 389.9412169119821" stroke-miterlimit="10"/></g><g transform="translate(-249,-246) scale(1,1)"><g><path fill="none" stroke="none"/><text fill="#000000" stroke="none" font-family="Arial" font-size="13px" font-style="normal" font-weight="normal" text-decoration="none" x="622.5" y="434">«extend»</text></g></g><g transform="translate(-249,-246) scale(1,1)"><path fill="#C0C0C0" stroke="none" d="M 463 576 C 463 566.6111584 510.9055264 559 570 559 C 629.0944736 559 677 566.6111584 677 576 C 677 585.3888416 629.0944736 593 570 593 C 510.9055264 593 463 585.3888416 463 576 Z" opacity="0.2"/></g><g transform="translate(-249,-246) scale(1,1)"><path fill="#ffffff" stroke="none" d="M 456 569 C 456 559.6111584 503.9055264 552 563 552 C 622.0944736 552 670 559.6111584 670 569 C 670 578.3888416 622.0944736 586 563 586 C 503.9055264 586 456 578.3888416 456 569 Z"/></g><g transform="translate(-249,-246) scale(1,1)"><path fill="none" stroke="#000000" d="M 456 569 C 456 559.6111584 503.9055264 552 563 552 C 622.0944736 552 670 559.6111584 670 569 C 670 578.3888416 622.0944736 586 563 586 C 503.9055264 586 456 578.3888416 456 569 Z" stroke-miterlimit="10"/></g><g transform="translate(-249,-246) scale(1,1)"><g><path fill="none" stroke="none"/><text fill="#000000" stroke="none" font-family="Arial" font-size="13px" font-style="normal" font-weight="bold" text-decoration="none" x="491.85546875" y="574.5">Guardar Configuración</text></g></g><g transform="translate(-249,-246) scale(1,1)"><path fill="#C0C0C0" stroke="none" d="M 631 672 C 631 662.6111584 653.6096176 655 681.5 655 C 709.3903824 655 732 662.6111584 732 672 C 732 681.3888416 709.3903824 689 681.5 689 C 653.6096176 689 631 681.3888416 631 672 Z" opacity="0.2"/></g><g transform="translate(-249,-246) scale(1,1)"><path fill="#ffffff" stroke="none" d="M 624 665 C 624 655.6111584 646.6096176 648 674.5 648 C 702.3903824 648 725 655.6111584 725 665 C 725 674.3888416 702.3903824 682 674.5 682 C 646.6096176 682 624 674.3888416 624 665 Z"/></g><g transform="translate(-249,-246) scale(1,1)"><path fill="none" stroke="#000000" d="M 624 665 C 624 655.6111584 646.6096176 648 674.5 648 C 702.3903824 648 725 655.6111584 725 665 C 725 674.3888416 702.3903824 682 674.5 682 C 646.6096176 682 624 674.3888416 624 665 Z" stroke-miterlimit="10"/></g><g transform="translate(-249,-246) scale(1,1)"><g><path fill="none" stroke="none"/><text fill="#000000" stroke="none" font-family="Arial" font-size="13px" font-style="normal" font-weight="bold" text-decoration="none" x="647.0400390625" y="670.5">Cancelar</text></g></g><g transform="translate(-249,-246) scale(1,1)"><path fill="none" stroke="#000000" d="M 590 551 L 670 499" stroke-miterlimit="10" stroke-dasharray="3"/></g><g transform="translate(-249,-246) scale(1,1)"><path fill="none" stroke="#000000" d="M 663.7733082797394 508.0679826985299 L 670 499 L 659.1850320024328 501.00909611805827" stroke-miterlimit="10"/></g><g transform="translate(-249,-246) scale(1,1)"><g><path fill="none" stroke="none"/><text fill="#000000" stroke="none" font-family="Arial" font-size="13px" font-style="normal" font-weight="normal" text-decoration="none" x="586.5" y="504">«extend»</text></g></g><g transform="translate(-249,-246) scale(1,1)"><path fill="none" stroke="#000000" d="M 676 647 L 695 499" stroke-miterlimit="10" stroke-dasharray="3"/></g><g transform="translate(-249,-246) scale(1,1)"><path fill="none" stroke="#000000" d="M 697.8812044881274 509.61596254220945 L 695 499 L 689.5307001291213 508.5439383339587" stroke-miterlimit="10"/></g><g transform="translate(-249,-246) scale(1,1)"><g><path fill="none" stroke="none"/><text fill="#000000" stroke="none" font-family="Arial" font-size="13px" font-style="normal" font-weight="normal" text-decoration="none" x="622.5" y="603">«extend»</text></g></g><g transform="translate(-249,-246) scale(1,1)"><path fill="#C0C0C0" stroke="none" d="M 719 592 C 719 582.6111584 749.6684912 575 787.5 575 C 825.3315088 575 856 582.6111584 856 592 C 856 601.3888416 825.3315088 609 787.5 609 C 749.6684912 609 719 601.3888416 719 592 Z" opacity="0.2"/></g><g transform="translate(-249,-246) scale(1,1)"><path fill="#ffffff" stroke="none" d="M 712 585 C 712 575.6111584 742.6684912 568 780.5 568 C 818.3315088 568 849 575.6111584 849 585 C 849 594.3888416 818.3315088 602 780.5 602 C 742.6684912 602 712 594.3888416 712 585 Z"/></g><g transform="translate(-249,-246) scale(1,1)"><path fill="none" stroke="#000000" d="M 712 585 C 712 575.6111584 742.6684912 568 780.5 568 C 818.3315088 568 849 575.6111584 849 585 C 849 594.3888416 818.3315088 602 780.5 602 C 742.6684912 602 712 594.3888416 712 585 Z" stroke-miterlimit="10"/></g><g transform="translate(-249,-246) scale(1,1)"><g><path fill="none" stroke="none"/><text fill="#000000" stroke="none" font-family="Arial" font-size="13px" font-style="normal" font-weight="bold" text-decoration="none" x="736.4345703125" y="590.5">Notificar Error</text></g></g><g transform="translate(-249,-246) scale(1,1)"><path fill="none" stroke="#000000" d="M 766 567 L 711 499" stroke-miterlimit="10" stroke-dasharray="3"/></g><g transform="translate(-249,-246) scale(1,1)"><path fill="none" stroke="#000000" d="M 720.663940373111 504.25435595148963 L 711 499 L 714.1180470467431 509.54882849487547" stroke-miterlimit="10"/></g><g transform="translate(-249,-246) scale(1,1)"><g><path fill="none" stroke="none"/><text fill="#000000" stroke="none" font-family="Arial" font-size="13px" font-style="normal" font-weight="normal" text-decoration="none" x="687.5" y="556">«extend»</text></g></g></g></svg>