<svg version="1.1" xmlns="http://www.w3.org/2000/svg" xmlns:xlink="http://www.w3.org/1999/xlink" width="524" height="388"><defs/><g><text fill="#eeeeee" stroke="none" font-family="Arial" font-size="24px" font-style="normal" font-weight="normal" text-decoration="none" x="0" y="0">UNREGISTERED</text><text fill="#eeeeee" stroke="none" font-family="Arial" font-size="24px" font-style="normal" font-weight="normal" text-decoration="none" x="0" y="30">UNREGISTERED</text><text fill="#eeeeee" stroke="none" font-family="Arial" font-size="24px" font-style="normal" font-weight="normal" text-decoration="none" x="0" y="60">UNREGISTERED</text><text fill="#eeeeee" stroke="none" font-family="Arial" font-size="24px" font-style="normal" font-weight="normal" text-decoration="none" x="0" y="90">UNREGISTERED</text><text fill="#eeeeee" stroke="none" font-family="Arial" font-size="24px" font-style="normal" font-weight="normal" text-decoration="none" x="0" y="120">UNREGISTERED</text><text fill="#eeeeee" stroke="none" font-family="Arial" font-size="24px" font-style="normal" font-weight="normal" text-decoration="none" x="0" y="150">UNREGISTERED</text><text fill="#eeeeee" stroke="none" font-family="Arial" font-size="24px" font-style="normal" font-weight="normal" text-decoration="none" x="0" y="180">UNREGISTERED</text><text fill="#eeeeee" stroke="none" font-family="Arial" font-size="24px" font-style="normal" font-weight="normal" text-decoration="none" x="0" y="210">UNREGISTERED</text><text fill="#eeeeee" stroke="none" font-family="Arial" font-size="24px" font-style="normal" font-weight="normal" text-decoration="none" x="0" y="240">UNREGISTERED</text><text fill="#eeeeee" stroke="none" font-family="Arial" font-size="24px" font-style="normal" font-weight="normal" text-decoration="none" x="0" y="270">UNREGISTERED</text><text fill="#eeeeee" stroke="none" font-family="Arial" font-size="24px" font-style="normal" font-weight="normal" text-decoration="none" x="0" y="300">UNREGISTERED</text><text fill="#eeeeee" stroke="none" font-family="Arial" font-size="24px" font-style="normal" font-weight="normal" text-decoration="none" x="0" y="330">UNREGISTERED</text><text fill="#eeeeee" stroke="none" font-family="Arial" font-size="24px" font-style="normal" font-weight="normal" text-decoration="none" x="0" y="360">UNREGISTERED</text><text fill="#eeeeee" stroke="none" font-family="Arial" font-size="24px" font-style="normal" font-weight="normal" text-decoration="none" x="200" y="0">UNREGISTERED</text><text fill="#eeeeee" stroke="none" font-family="Arial" font-size="24px" font-style="normal" font-weight="normal" text-decoration="none" x="200" y="30">UNREGISTERED</text><text fill="#eeeeee" stroke="none" font-family="Arial" font-size="24px" font-style="normal" font-weight="normal" text-decoration="none" x="200" y="60">UNREGISTERED</text><text fill="#eeeeee" stroke="none" font-family="Arial" font-size="24px" font-style="normal" font-weight="normal" text-decoration="none" x="200" y="90">UNREGISTERED</text><text fill="#eeeeee" stroke="none" font-family="Arial" font-size="24px" font-style="normal" font-weight="normal" text-decoration="none" x="200" y="120">UNREGISTERED</text><text fill="#eeeeee" stroke="none" font-family="Arial" font-size="24px" font-style="normal" font-weight="normal" text-decoration="none" x="200" y="150">UNREGISTERED</text><text fill="#eeeeee" stroke="none" font-family="Arial" font-size="24px" font-style="normal" font-weight="normal" text-decoration="none" x="200" y="180">UNREGISTERED</text><text fill="#eeeeee" stroke="none" font-family="Arial" font-size="24px" font-style="normal" font-weight="normal" text-decoration="none" x="200" y="210">UNREGISTERED</text><text fill="#eeeeee" stroke="none" font-family="Arial" font-size="24px" font-style="normal" font-weight="normal" text-decoration="none" x="200" y="240">UNREGISTERED</text><text fill="#eeeeee" stroke="none" font-family="Arial" font-size="24px" font-style="normal" font-weight="normal" text-decoration="none" x="200" y="270">UNREGISTERED</text><text fill="#eeeeee" stroke="none" font-family="Arial" font-size="24px" font-style="normal" font-weight="normal" text-decoration="none" x="200" y="300">UNREGISTERED</text><text fill="#eeeeee" stroke="none" font-family="Arial" font-size="24px" font-style="normal" font-weight="normal" text-decoration="none" x="200" y="330">UNREGISTERED</text><text fill="#eeeeee" stroke="none" font-family="Arial" font-size="24px" font-style="normal" font-weight="normal" text-decoration="none" x="200" y="360">UNREGISTERED</text><text fill="#eeeeee" stroke="none" font-family="Arial" font-size="24px" font-style="normal" font-weight="normal" text-decoration="none" x="400" y="0">UNREGISTERED</text><text fill="#eeeeee" stroke="none" font-family="Arial" font-size="24px" font-style="normal" font-weight="normal" text-decoration="none" x="400" y="30">UNREGISTERED</text><text fill="#eeeeee" stroke="none" font-family="Arial" font-size="24px" font-style="normal" font-weight="normal" text-decoration="none" x="400" y="60">UNREGISTERED</text><text fill="#eeeeee" stroke="none" font-family="Arial" font-size="24px" font-style="normal" font-weight="normal" text-decoration="none" x="400" y="90">UNREGISTERED</text><text fill="#eeeeee" stroke="none" font-family="Arial" font-size="24px" font-style="normal" font-weight="normal" text-decoration="none" x="400" y="120">UNREGISTERED</text><text fill="#eeeeee" stroke="none" font-family="Arial" font-size="24px" font-style="normal" font-weight="normal" text-decoration="none" x="400" y="150">UNREGISTERED</text><text fill="#eeeeee" stroke="none" font-family="Arial" font-size="24px" font-style="normal" font-weight="normal" text-decoration="none" x="400" y="180">UNREGISTERED</text><text fill="#eeeeee" stroke="none" font-family="Arial" font-size="24px" font-style="normal" font-weight="normal" text-decoration="none" x="400" y="210">UNREGISTERED</text><text fill="#eeeeee" stroke="none" font-family="Arial" font-size="24px" font-style="normal" font-weight="normal" text-decoration="none" x="400" y="240">UNREGISTERED</text><text fill="#eeeeee" stroke="none" font-family="Arial" font-size="24px" font-style="normal" font-weight="normal" text-decoration="none" x="400" y="270">UNREGISTERED</text><text fill="#eeeeee" stroke="none" font-family="Arial" font-size="24px" font-style="normal" font-weight="normal" text-decoration="none" x="400" y="300">UNREGISTERED</text><text fill="#eeeeee" stroke="none" font-family="Arial" font-size="24px" font-style="normal" font-weight="normal" text-decoration="none" x="400" y="330">UNREGISTERED</text><text fill="#eeeeee" stroke="none" font-family="Arial" font-size="24px" font-style="normal" font-weight="normal" text-decoration="none" x="400" y="360">UNREGISTERED</text><g transform="translate(-214,-214) scale(1,1)"><rect fill="#C0C0C0" stroke="none" x="367" y="231" width="368" height="368" opacity="0.2"/></g><g transform="translate(-214,-214) scale(1,1)"><rect fill="#ffffff" stroke="none" x="360" y="224" width="368" height="368"/></g><g transform="translate(-214,-214) scale(1,1)"><path fill="none" stroke="#000000" d="M 360 224 L 728 224 L 728 592 L 360 592 L 360 224 Z Z" stroke-miterlimit="10"/></g><g transform="translate(-214,-214) scale(1,1)"><g><path fill="none" stroke="none"/><text fill="#000000" stroke="none" font-family="Arial" font-size="13px" font-style="normal" font-weight="bold" text-decoration="none" x="421.912353515625" y="242">Recibir notificación de ofertas _ TR-008</text></g></g><g transform="translate(-214,-214) scale(1,1)"><path fill="#ffffff" stroke="none" d="M 254.85026828835228 369.68 C 254.85026828835228 364.886167936 258.73611061329774 361 263.529541015625 361 C 268.32297141795226 361 272.20881374289775 364.886167936 272.20881374289775 369.68 C 272.20881374289775 374.473832064 268.32297141795226 378.36 263.529541015625 378.36 C 258.73611061329774 378.36 254.85026828835228 374.473832064 254.85026828835228 369.68 Z"/></g><g transform="translate(-214,-214) scale(1,1)"><path fill="none" stroke="#000000" d="M 254.85026828835228 369.68 C 254.85026828835228 364.886167936 258.73611061329774 361 263.529541015625 361 C 268.32297141795226 361 272.20881374289775 364.886167936 272.20881374289775 369.68 C 272.20881374289775 374.473832064 268.32297141795226 378.36 263.529541015625 378.36 C 258.73611061329774 378.36 254.85026828835228 374.473832064 254.85026828835228 369.68 Z" stroke-miterlimit="10"/></g><g transform="translate(-214,-214) scale(1,1)"><path fill="none" stroke="#000000" d="M 263.529541015625 378.36 L 263.529541015625 395.64" stroke-miterlimit="10"/></g><g transform="translate(-214,-214) scale(1,1)"><path fill="none" stroke="#000000" d="M 254.33972283380683 384.84 L 272.71935919744317 384.84" stroke-miterlimit="10"/></g><g transform="translate(-214,-214) scale(1,1)"><path fill="none" stroke="#000000" d="M 263.529541015625 395.64 L 250.76590465198865 413" stroke-miterlimit="10"/></g><g transform="translate(-214,-214) scale(1,1)"><path fill="none" stroke="#000000" d="M 263.529541015625 395.64 L 276.29317737926135 413" stroke-miterlimit="10"/></g><g transform="translate(-214,-214) scale(1,1)"><g><path fill="none" stroke="none"/><text fill="#000000" stroke="none" font-family="Arial" font-size="13px" font-style="normal" font-weight="bold" text-decoration="none" x="228.5" y="432">Comprador</text></g></g><g transform="translate(-214,-214) scale(1,1)"><path fill="#C0C0C0" stroke="none" d="M 463 320 C 463 310.6111584 504.413656 303 555.5 303 C 606.586344 303 648 310.6111584 648 320 C 648 329.3888416 606.586344 337 555.5 337 C 504.413656 337 463 329.3888416 463 320 Z" opacity="0.2"/></g><g transform="translate(-214,-214) scale(1,1)"><path fill="#ffffff" stroke="none" d="M 456 313 C 456 303.6111584 497.413656 296 548.5 296 C 599.586344 296 641 303.6111584 641 313 C 641 322.3888416 599.586344 330 548.5 330 C 497.413656 330 456 322.3888416 456 313 Z"/></g><g transform="translate(-214,-214) scale(1,1)"><path fill="none" stroke="#000000" d="M 456 313 C 456 303.6111584 497.413656 296 548.5 296 C 599.586344 296 641 303.6111584 641 313 C 641 322.3888416 599.586344 330 548.5 330 C 497.413656 330 456 322.3888416 456 313 Z" stroke-miterlimit="10"/></g><g transform="translate(-214,-214) scale(1,1)"><g><path fill="none" stroke="none"/><text fill="#000000" stroke="none" font-family="Arial" font-size="13px" font-style="normal" font-weight="bold" text-decoration="none" x="511.302734375" y="318.5">Notificación</text></g></g><g transform="translate(-214,-214) scale(1,1)"><path fill="#C0C0C0" stroke="none" d="M 471 400 C 471 390.6111584 506.1456432 383 549.5 383 C 592.8543568 383 628 390.6111584 628 400 C 628 409.3888416 592.8543568 417 549.5 417 C 506.1456432 417 471 409.3888416 471 400 Z" opacity="0.2"/></g><g transform="translate(-214,-214) scale(1,1)"><path fill="#ffffff" stroke="none" d="M 464 393 C 464 383.6111584 499.1456432 376 542.5 376 C 585.8543568 376 621 383.6111584 621 393 C 621 402.3888416 585.8543568 410 542.5 410 C 499.1456432 410 464 402.3888416 464 393 Z"/></g><g transform="translate(-214,-214) scale(1,1)"><path fill="none" stroke="#000000" d="M 464 393 C 464 383.6111584 499.1456432 376 542.5 376 C 585.8543568 376 621 383.6111584 621 393 C 621 402.3888416 585.8543568 410 542.5 410 C 499.1456432 410 464 402.3888416 464 393 Z" stroke-miterlimit="10"/></g><g transform="translate(-214,-214) scale(1,1)"><g><path fill="none" stroke="none"/><text fill="#000000" stroke="none" font-family="Arial" font-size="13px" font-style="normal" font-weight="bold" text-decoration="none" x="491.31884765625" y="398.5">Visualizar Oferta</text></g></g><g transform="translate(-214,-214) scale(1,1)"><path fill="#C0C0C0" stroke="none" d="M 487 488 C 487 478.6111584 516.5492032 471 553 471 C 589.4507968 471 619 478.6111584 619 488 C 619 497.3888416 589.4507968 505 553 505 C 516.5492032 505 487 497.3888416 487 488 Z" opacity="0.2"/></g><g transform="translate(-214,-214) scale(1,1)"><path fill="#ffffff" stroke="none" d="M 480 481 C 480 471.6111584 509.5492032 464 546 464 C 582.4507968 464 612 471.6111584 612 481 C 612 490.3888416 582.4507968 498 546 498 C 509.5492032 498 480 490.3888416 480 481 Z"/></g><g transform="translate(-214,-214) scale(1,1)"><path fill="none" stroke="#000000" d="M 480 481 C 480 471.6111584 509.5492032 464 546 464 C 582.4507968 464 612 471.6111584 612 481 C 612 490.3888416 582.4507968 498 546 498 C 509.5492032 498 480 490.3888416 480 481 Z" stroke-miterlimit="10"/></g><g transform="translate(-214,-214) scale(1,1)"><g><path fill="none" stroke="none"/><text fill="#000000" stroke="none" font-family="Arial" font-size="13px" font-style="normal" font-weight="bold" text-decoration="none" x="503.734130859375" y="486.5">Listar Ofertas</text></g></g><g transform="translate(-214,-214) scale(1,1)"><path fill="none" stroke="#000000" d="M 304 387 L 488 331" stroke-miterlimit="10"/></g><g transform="translate(-214,-214) scale(1,1)"><path fill="none" stroke="#000000" d="M 304 411 L 484 463" stroke-miterlimit="10"/></g><g transform="translate(-214,-214) scale(1,1)"><path fill="none" stroke="#000000" d="M 304 398 L 463 395" stroke-miterlimit="10"/></g></g></svg>