<svg version="1.1" xmlns="http://www.w3.org/2000/svg" xmlns:xlink="http://www.w3.org/1999/xlink" width="704.236328125" height="468"><defs/><g><text fill="#eeeeee" stroke="none" font-family="Arial" font-size="24px" font-style="normal" font-weight="normal" text-decoration="none" x="0" y="0">UNREGISTERED</text><text fill="#eeeeee" stroke="none" font-family="Arial" font-size="24px" font-style="normal" font-weight="normal" text-decoration="none" x="0" y="30">UNREGISTERED</text><text fill="#eeeeee" stroke="none" font-family="Arial" font-size="24px" font-style="normal" font-weight="normal" text-decoration="none" x="0" y="60">UNREGISTERED</text><text fill="#eeeeee" stroke="none" font-family="Arial" font-size="24px" font-style="normal" font-weight="normal" text-decoration="none" x="0" y="90">UNREGISTERED</text><text fill="#eeeeee" stroke="none" font-family="Arial" font-size="24px" font-style="normal" font-weight="normal" text-decoration="none" x="0" y="120">UNREGISTERED</text><text fill="#eeeeee" stroke="none" font-family="Arial" font-size="24px" font-style="normal" font-weight="normal" text-decoration="none" x="0" y="150">UNREGISTERED</text><text fill="#eeeeee" stroke="none" font-family="Arial" font-size="24px" font-style="normal" font-weight="normal" text-decoration="none" x="0" y="180">UNREGISTERED</text><text fill="#eeeeee" stroke="none" font-family="Arial" font-size="24px" font-style="normal" font-weight="normal" text-decoration="none" x="0" y="210">UNREGISTERED</text><text fill="#eeeeee" stroke="none" font-family="Arial" font-size="24px" font-style="normal" font-weight="normal" text-decoration="none" x="0" y="240">UNREGISTERED</text><text fill="#eeeeee" stroke="none" font-family="Arial" font-size="24px" font-style="normal" font-weight="normal" text-decoration="none" x="0" y="270">UNREGISTERED</text><text fill="#eeeeee" stroke="none" font-family="Arial" font-size="24px" font-style="normal" font-weight="normal" text-decoration="none" x="0" y="300">UNREGISTERED</text><text fill="#eeeeee" stroke="none" font-family="Arial" font-size="24px" font-style="normal" font-weight="normal" text-decoration="none" x="0" y="330">UNREGISTERED</text><text fill="#eeeeee" stroke="none" font-family="Arial" font-size="24px" font-style="normal" font-weight="normal" text-decoration="none" x="0" y="360">UNREGISTERED</text><text fill="#eeeeee" stroke="none" font-family="Arial" font-size="24px" font-style="normal" font-weight="normal" text-decoration="none" x="0" y="390">UNREGISTERED</text><text fill="#eeeeee" stroke="none" font-family="Arial" font-size="24px" font-style="normal" font-weight="normal" text-decoration="none" x="0" y="420">UNREGISTERED</text><text fill="#eeeeee" stroke="none" font-family="Arial" font-size="24px" font-style="normal" font-weight="normal" text-decoration="none" x="0" y="450">UNREGISTERED</text><text fill="#eeeeee" stroke="none" font-family="Arial" font-size="24px" font-style="normal" font-weight="normal" text-decoration="none" x="200" y="0">UNREGISTERED</text><text fill="#eeeeee" stroke="none" font-family="Arial" font-size="24px" font-style="normal" font-weight="normal" text-decoration="none" x="200" y="30">UNREGISTERED</text><text fill="#eeeeee" stroke="none" font-family="Arial" font-size="24px" font-style="normal" font-weight="normal" text-decoration="none" x="200" y="60">UNREGISTERED</text><text fill="#eeeeee" stroke="none" font-family="Arial" font-size="24px" font-style="normal" font-weight="normal" text-decoration="none" x="200" y="90">UNREGISTERED</text><text fill="#eeeeee" stroke="none" font-family="Arial" font-size="24px" font-style="normal" font-weight="normal" text-decoration="none" x="200" y="120">UNREGISTERED</text><text fill="#eeeeee" stroke="none" font-family="Arial" font-size="24px" font-style="normal" font-weight="normal" text-decoration="none" x="200" y="150">UNREGISTERED</text><text fill="#eeeeee" stroke="none" font-family="Arial" font-size="24px" font-style="normal" font-weight="normal" text-decoration="none" x="200" y="180">UNREGISTERED</text><text fill="#eeeeee" stroke="none" font-family="Arial" font-size="24px" font-style="normal" font-weight="normal" text-decoration="none" x="200" y="210">UNREGISTERED</text><text fill="#eeeeee" stroke="none" font-family="Arial" font-size="24px" font-style="normal" font-weight="normal" text-decoration="none" x="200" y="240">UNREGISTERED</text><text fill="#eeeeee" stroke="none" font-family="Arial" font-size="24px" font-style="normal" font-weight="normal" text-decoration="none" x="200" y="270">UNREGISTERED</text><text fill="#eeeeee" stroke="none" font-family="Arial" font-size="24px" font-style="normal" font-weight="normal" text-decoration="none" x="200" y="300">UNREGISTERED</text><text fill="#eeeeee" stroke="none" font-family="Arial" font-size="24px" font-style="normal" font-weight="normal" text-decoration="none" x="200" y="330">UNREGISTERED</text><text fill="#eeeeee" stroke="none" font-family="Arial" font-size="24px" font-style="normal" font-weight="normal" text-decoration="none" x="200" y="360">UNREGISTERED</text><text fill="#eeeeee" stroke="none" font-family="Arial" font-size="24px" font-style="normal" font-weight="normal" text-decoration="none" x="200" y="390">UNREGISTERED</text><text fill="#eeeeee" stroke="none" font-family="Arial" font-size="24px" font-style="normal" font-weight="normal" text-decoration="none" x="200" y="420">UNREGISTERED</text><text fill="#eeeeee" stroke="none" font-family="Arial" font-size="24px" font-style="normal" font-weight="normal" text-decoration="none" x="200" y="450">UNREGISTERED</text><text fill="#eeeeee" stroke="none" font-family="Arial" font-size="24px" font-style="normal" font-weight="normal" text-decoration="none" x="400" y="0">UNREGISTERED</text><text fill="#eeeeee" stroke="none" font-family="Arial" font-size="24px" font-style="normal" font-weight="normal" text-decoration="none" x="400" y="30">UNREGISTERED</text><text fill="#eeeeee" stroke="none" font-family="Arial" font-size="24px" font-style="normal" font-weight="normal" text-decoration="none" x="400" y="60">UNREGISTERED</text><text fill="#eeeeee" stroke="none" font-family="Arial" font-size="24px" font-style="normal" font-weight="normal" text-decoration="none" x="400" y="90">UNREGISTERED</text><text fill="#eeeeee" stroke="none" font-family="Arial" font-size="24px" font-style="normal" font-weight="normal" text-decoration="none" x="400" y="120">UNREGISTERED</text><text fill="#eeeeee" stroke="none" font-family="Arial" font-size="24px" font-style="normal" font-weight="normal" text-decoration="none" x="400" y="150">UNREGISTERED</text><text fill="#eeeeee" stroke="none" font-family="Arial" font-size="24px" font-style="normal" font-weight="normal" text-decoration="none" x="400" y="180">UNREGISTERED</text><text fill="#eeeeee" stroke="none" font-family="Arial" font-size="24px" font-style="normal" font-weight="normal" text-decoration="none" x="400" y="210">UNREGISTERED</text><text fill="#eeeeee" stroke="none" font-family="Arial" font-size="24px" font-style="normal" font-weight="normal" text-decoration="none" x="400" y="240">UNREGISTERED</text><text fill="#eeeeee" stroke="none" font-family="Arial" font-size="24px" font-style="normal" font-weight="normal" text-decoration="none" x="400" y="270">UNREGISTERED</text><text fill="#eeeeee" stroke="none" font-family="Arial" font-size="24px" font-style="normal" font-weight="normal" text-decoration="none" x="400" y="300">UNREGISTERED</text><text fill="#eeeeee" stroke="none" font-family="Arial" font-size="24px" font-style="normal" font-weight="normal" text-decoration="none" x="400" y="330">UNREGISTERED</text><text fill="#eeeeee" stroke="none" font-family="Arial" font-size="24px" font-style="normal" font-weight="normal" text-decoration="none" x="400" y="360">UNREGISTERED</text><text fill="#eeeeee" stroke="none" font-family="Arial" font-size="24px" font-style="normal" font-weight="normal" text-decoration="none" x="400" y="390">UNREGISTERED</text><text fill="#eeeeee" stroke="none" font-family="Arial" font-size="24px" font-style="normal" font-weight="normal" text-decoration="none" x="400" y="420">UNREGISTERED</text><text fill="#eeeeee" stroke="none" font-family="Arial" font-size="24px" font-style="normal" font-weight="normal" text-decoration="none" x="400" y="450">UNREGISTERED</text><text fill="#eeeeee" stroke="none" font-family="Arial" font-size="24px" font-style="normal" font-weight="normal" text-decoration="none" x="600" y="0">UNREGISTERED</text><text fill="#eeeeee" stroke="none" font-family="Arial" font-size="24px" font-style="normal" font-weight="normal" text-decoration="none" x="600" y="30">UNREGISTERED</text><text fill="#eeeeee" stroke="none" font-family="Arial" font-size="24px" font-style="normal" font-weight="normal" text-decoration="none" x="600" y="60">UNREGISTERED</text><text fill="#eeeeee" stroke="none" font-family="Arial" font-size="24px" font-style="normal" font-weight="normal" text-decoration="none" x="600" y="90">UNREGISTERED</text><text fill="#eeeeee" stroke="none" font-family="Arial" font-size="24px" font-style="normal" font-weight="normal" text-decoration="none" x="600" y="120">UNREGISTERED</text><text fill="#eeeeee" stroke="none" font-family="Arial" font-size="24px" font-style="normal" font-weight="normal" text-decoration="none" x="600" y="150">UNREGISTERED</text><text fill="#eeeeee" stroke="none" font-family="Arial" font-size="24px" font-style="normal" font-weight="normal" text-decoration="none" x="600" y="180">UNREGISTERED</text><text fill="#eeeeee" stroke="none" font-family="Arial" font-size="24px" font-style="normal" font-weight="normal" text-decoration="none" x="600" y="210">UNREGISTERED</text><text fill="#eeeeee" stroke="none" font-family="Arial" font-size="24px" font-style="normal" font-weight="normal" text-decoration="none" x="600" y="240">UNREGISTERED</text><text fill="#eeeeee" stroke="none" font-family="Arial" font-size="24px" font-style="normal" font-weight="normal" text-decoration="none" x="600" y="270">UNREGISTERED</text><text fill="#eeeeee" stroke="none" font-family="Arial" font-size="24px" font-style="normal" font-weight="normal" text-decoration="none" x="600" y="300">UNREGISTERED</text><text fill="#eeeeee" stroke="none" font-family="Arial" font-size="24px" font-style="normal" font-weight="normal" text-decoration="none" x="600" y="330">UNREGISTERED</text><text fill="#eeeeee" stroke="none" font-family="Arial" font-size="24px" font-style="normal" font-weight="normal" text-decoration="none" x="600" y="360">UNREGISTERED</text><text fill="#eeeeee" stroke="none" font-family="Arial" font-size="24px" font-style="normal" font-weight="normal" text-decoration="none" x="600" y="390">UNREGISTERED</text><text fill="#eeeeee" stroke="none" font-family="Arial" font-size="24px" font-style="normal" font-weight="normal" text-decoration="none" x="600" y="420">UNREGISTERED</text><text fill="#eeeeee" stroke="none" font-family="Arial" font-size="24px" font-style="normal" font-weight="normal" text-decoration="none" x="600" y="450">UNREGISTERED</text><g transform="translate(-270,-270) scale(1,1)"><rect fill="#C0C0C0" stroke="none" x="407" y="287" width="440" height="448" opacity="0.2"/></g><g transform="translate(-270,-270) scale(1,1)"><rect fill="#ffffff" stroke="none" x="400" y="280" width="440" height="448"/></g><g transform="translate(-270,-270) scale(1,1)"><path fill="none" stroke="#000000" d="M 400 280 L 840 280 L 840 728 L 400 728 L 400 280 Z Z" stroke-miterlimit="10"/></g><g transform="translate(-270,-270) scale(1,1)"><g><path fill="none" stroke="none"/><text fill="#000000" stroke="none" font-family="Arial" font-size="13px" font-style="normal" font-weight="bold" text-decoration="none" x="509.83642578125" y="298">Mostrar datos de contacto _ TR-012</text></g></g><g transform="translate(-270,-270) scale(1,1)"><path fill="#ffffff" stroke="none" d="M 310.85026828835225 377.68 C 310.85026828835225 372.886167936 314.73611061329774 369 319.529541015625 369 C 324.32297141795226 369 328.20881374289775 372.886167936 328.20881374289775 377.68 C 328.20881374289775 382.473832064 324.32297141795226 386.36 319.529541015625 386.36 C 314.73611061329774 386.36 310.85026828835225 382.473832064 310.85026828835225 377.68 Z"/></g><g transform="translate(-270,-270) scale(1,1)"><path fill="none" stroke="#000000" d="M 310.85026828835225 377.68 C 310.85026828835225 372.886167936 314.73611061329774 369 319.529541015625 369 C 324.32297141795226 369 328.20881374289775 372.886167936 328.20881374289775 377.68 C 328.20881374289775 382.473832064 324.32297141795226 386.36 319.529541015625 386.36 C 314.73611061329774 386.36 310.85026828835225 382.473832064 310.85026828835225 377.68 Z" stroke-miterlimit="10"/></g><g transform="translate(-270,-270) scale(1,1)"><path fill="none" stroke="#000000" d="M 319.529541015625 386.36 L 319.529541015625 403.64" stroke-miterlimit="10"/></g><g transform="translate(-270,-270) scale(1,1)"><path fill="none" stroke="#000000" d="M 310.33972283380683 392.84 L 328.71935919744317 392.84" stroke-miterlimit="10"/></g><g transform="translate(-270,-270) scale(1,1)"><path fill="none" stroke="#000000" d="M 319.529541015625 403.64 L 306.76590465198865 421" stroke-miterlimit="10"/></g><g transform="translate(-270,-270) scale(1,1)"><path fill="none" stroke="#000000" d="M 319.529541015625 403.64 L 332.29317737926135 421" stroke-miterlimit="10"/></g><g transform="translate(-270,-270) scale(1,1)"><g><path fill="none" stroke="none"/><text fill="#000000" stroke="none" font-family="Arial" font-size="13px" font-style="normal" font-weight="bold" text-decoration="none" x="284.5" y="440">Comprador</text></g></g><g transform="translate(-270,-270) scale(1,1)"><path fill="#ffffff" stroke="none" d="M 921.4388913352273 633.6800000000001 C 921.4388913352273 628.8861679360001 925.3247336601727 625 930.1181640625 625 C 934.9115944648273 625 938.7974367897727 628.8861679360001 938.7974367897727 633.6800000000001 C 938.7974367897727 638.473832064 934.9115944648273 642.36 930.1181640625 642.36 C 925.3247336601727 642.36 921.4388913352273 638.473832064 921.4388913352273 633.6800000000001 Z"/></g><g transform="translate(-270,-270) scale(1,1)"><path fill="none" stroke="#000000" d="M 921.4388913352273 633.6800000000001 C 921.4388913352273 628.8861679360001 925.3247336601727 625 930.1181640625 625 C 934.9115944648273 625 938.7974367897727 628.8861679360001 938.7974367897727 633.6800000000001 C 938.7974367897727 638.473832064 934.9115944648273 642.36 930.1181640625 642.36 C 925.3247336601727 642.36 921.4388913352273 638.473832064 921.4388913352273 633.6800000000001 Z" stroke-miterlimit="10"/></g><g transform="translate(-270,-270) scale(1,1)"><path fill="none" stroke="#000000" d="M 930.1181640625 642.36 L 930.1181640625 659.64" stroke-miterlimit="10"/></g><g transform="translate(-270,-270) scale(1,1)"><path fill="none" stroke="#000000" d="M 920.9283458806818 648.84 L 939.3079822443182 648.84" stroke-miterlimit="10"/></g><g transform="translate(-270,-270) scale(1,1)"><path fill="none" stroke="#000000" d="M 930.1181640625 659.64 L 917.3545276988636 677" stroke-miterlimit="10"/></g><g transform="translate(-270,-270) scale(1,1)"><path fill="none" stroke="#000000" d="M 930.1181640625 659.64 L 942.8818004261364 677" stroke-miterlimit="10"/></g><g transform="translate(-270,-270) scale(1,1)"><g><path fill="none" stroke="none"/><text fill="#000000" stroke="none" font-family="Arial" font-size="13px" font-style="normal" font-weight="bold" text-decoration="none" x="900.5" y="696">Vendedor</text></g></g><g transform="translate(-270,-270) scale(1,1)"><path fill="#C0C0C0" stroke="none" d="M 599 392 C 599 382.6111584 626.0867696 375 659.5 375 C 692.9132304 375 720 382.6111584 720 392 C 720 401.3888416 692.9132304 409 659.5 409 C 626.0867696 409 599 401.3888416 599 392 Z" opacity="0.2"/></g><g transform="translate(-270,-270) scale(1,1)"><path fill="#ffffff" stroke="none" d="M 592 385 C 592 375.6111584 619.0867696 368 652.5 368 C 685.9132304 368 713 375.6111584 713 385 C 713 394.3888416 685.9132304 402 652.5 402 C 619.0867696 402 592 394.3888416 592 385 Z"/></g><g transform="translate(-270,-270) scale(1,1)"><path fill="none" stroke="#000000" d="M 592 385 C 592 375.6111584 619.0867696 368 652.5 368 C 685.9132304 368 713 375.6111584 713 385 C 713 394.3888416 685.9132304 402 652.5 402 C 619.0867696 402 592 394.3888416 592 385 Z" stroke-miterlimit="10"/></g><g transform="translate(-270,-270) scale(1,1)"><g><path fill="none" stroke="none"/><text fill="#000000" stroke="none" font-family="Arial" font-size="13px" font-style="normal" font-weight="bold" text-decoration="none" x="614.20458984375" y="390.5">hacer match</text></g></g><g transform="translate(-270,-270) scale(1,1)"><path fill="#C0C0C0" stroke="none" d="M 471 648 C 471 638.6111584 511.294368 631 561 631 C 610.705632 631 651 638.6111584 651 648 C 651 657.3888416 610.705632 665 561 665 C 511.294368 665 471 657.3888416 471 648 Z" opacity="0.2"/></g><g transform="translate(-270,-270) scale(1,1)"><path fill="#ffffff" stroke="none" d="M 464 641 C 464 631.6111584 504.294368 624 554 624 C 603.705632 624 644 631.6111584 644 641 C 644 650.3888416 603.705632 658 554 658 C 504.294368 658 464 650.3888416 464 641 Z"/></g><g transform="translate(-270,-270) scale(1,1)"><path fill="none" stroke="#000000" d="M 464 641 C 464 631.6111584 504.294368 624 554 624 C 603.705632 624 644 631.6111584 644 641 C 644 650.3888416 603.705632 658 554 658 C 504.294368 658 464 650.3888416 464 641 Z" stroke-miterlimit="10"/></g><g transform="translate(-270,-270) scale(1,1)"><g><path fill="none" stroke="none"/><text fill="#000000" stroke="none" font-family="Arial" font-size="13px" font-style="normal" font-weight="bold" text-decoration="none" x="494.763671875" y="646.5">Formalizar Compra</text></g></g><g transform="translate(-270,-270) scale(1,1)"><path fill="none" stroke="#000000" d="M 360 404 L 591 389" stroke-miterlimit="10"/></g><g transform="translate(-270,-270) scale(1,1)"><path fill="none" stroke="#000000" d="M 360 448 L 536 623" stroke-miterlimit="10"/></g><g transform="translate(-270,-270) scale(1,1)"><path fill="none" stroke="#000000" d="M 895 661 L 645 646" stroke-miterlimit="10"/></g><g transform="translate(-270,-270) scale(1,1)"><path fill="none" stroke="#000000" d="M 895 628 L 670 403" stroke-miterlimit="10"/></g><g transform="translate(-270,-270) scale(1,1)"><path fill="#C0C0C0" stroke="none" d="M 535 520 C 535 510.6111584 571.936504 503 617.5 503 C 663.063496 503 700 510.6111584 700 520 C 700 529.3888416 663.063496 537 617.5 537 C 571.936504 537 535 529.3888416 535 520 Z" opacity="0.2"/></g><g transform="translate(-270,-270) scale(1,1)"><path fill="#ffffff" stroke="none" d="M 528 513 C 528 503.6111584 564.936504 496 610.5 496 C 656.063496 496 693 503.6111584 693 513 C 693 522.3888416 656.063496 530 610.5 530 C 564.936504 530 528 522.3888416 528 513 Z"/></g><g transform="translate(-270,-270) scale(1,1)"><path fill="none" stroke="#000000" d="M 528 513 C 528 503.6111584 564.936504 496 610.5 496 C 656.063496 496 693 503.6111584 693 513 C 693 522.3888416 656.063496 530 610.5 530 C 564.936504 530 528 522.3888416 528 513 Z" stroke-miterlimit="10"/></g><g transform="translate(-270,-270) scale(1,1)"><g><path fill="none" stroke="none"/><text fill="#000000" stroke="none" font-family="Arial" font-size="13px" font-style="normal" font-weight="bold" text-decoration="none" x="556.69091796875" y="518.5">Mostrar Contacto</text></g></g><g transform="translate(-270,-270) scale(1,1)"><path fill="none" stroke="#000000" d="M 646 403 L 616 495" stroke-miterlimit="10" stroke-dasharray="3"/></g><g transform="translate(-270,-270) scale(1,1)"><path fill="none" stroke="#000000" d="M 615.1485244147757 484.03300454418957 L 616 495 L 623.1527526957187 486.6430789836275" stroke-miterlimit="10"/></g><g transform="translate(-270,-270) scale(1,1)"><g><path fill="none" stroke="none"/><text fill="#000000" stroke="none" font-family="Arial" font-size="13px" font-style="normal" font-weight="normal" text-decoration="none" x="631.5" y="463">«include»</text></g></g></g></svg>