<svg version="1.1" xmlns="http://www.w3.org/2000/svg" xmlns:xlink="http://www.w3.org/1999/xlink" width="644" height="508"><defs/><g><text fill="#eeeeee" stroke="none" font-family="Arial" font-size="24px" font-style="normal" font-weight="normal" text-decoration="none" x="0" y="0">UNREGISTERED</text><text fill="#eeeeee" stroke="none" font-family="Arial" font-size="24px" font-style="normal" font-weight="normal" text-decoration="none" x="0" y="30">UNREGISTERED</text><text fill="#eeeeee" stroke="none" font-family="Arial" font-size="24px" font-style="normal" font-weight="normal" text-decoration="none" x="0" y="60">UNREGISTERED</text><text fill="#eeeeee" stroke="none" font-family="Arial" font-size="24px" font-style="normal" font-weight="normal" text-decoration="none" x="0" y="90">UNREGISTERED</text><text fill="#eeeeee" stroke="none" font-family="Arial" font-size="24px" font-style="normal" font-weight="normal" text-decoration="none" x="0" y="120">UNREGISTERED</text><text fill="#eeeeee" stroke="none" font-family="Arial" font-size="24px" font-style="normal" font-weight="normal" text-decoration="none" x="0" y="150">UNREGISTERED</text><text fill="#eeeeee" stroke="none" font-family="Arial" font-size="24px" font-style="normal" font-weight="normal" text-decoration="none" x="0" y="180">UNREGISTERED</text><text fill="#eeeeee" stroke="none" font-family="Arial" font-size="24px" font-style="normal" font-weight="normal" text-decoration="none" x="0" y="210">UNREGISTERED</text><text fill="#eeeeee" stroke="none" font-family="Arial" font-size="24px" font-style="normal" font-weight="normal" text-decoration="none" x="0" y="240">UNREGISTERED</text><text fill="#eeeeee" stroke="none" font-family="Arial" font-size="24px" font-style="normal" font-weight="normal" text-decoration="none" x="0" y="270">UNREGISTERED</text><text fill="#eeeeee" stroke="none" font-family="Arial" font-size="24px" font-style="normal" font-weight="normal" text-decoration="none" x="0" y="300">UNREGISTERED</text><text fill="#eeeeee" stroke="none" font-family="Arial" font-size="24px" font-style="normal" font-weight="normal" text-decoration="none" x="0" y="330">UNREGISTERED</text><text fill="#eeeeee" stroke="none" font-family="Arial" font-size="24px" font-style="normal" font-weight="normal" text-decoration="none" x="0" y="360">UNREGISTERED</text><text fill="#eeeeee" stroke="none" font-family="Arial" font-size="24px" font-style="normal" font-weight="normal" text-decoration="none" x="0" y="390">UNREGISTERED</text><text fill="#eeeeee" stroke="none" font-family="Arial" font-size="24px" font-style="normal" font-weight="normal" text-decoration="none" x="0" y="420">UNREGISTERED</text><text fill="#eeeeee" stroke="none" font-family="Arial" font-size="24px" font-style="normal" font-weight="normal" text-decoration="none" x="0" y="450">UNREGISTERED</text><text fill="#eeeeee" stroke="none" font-family="Arial" font-size="24px" font-style="normal" font-weight="normal" text-decoration="none" x="0" y="480">UNREGISTERED</text><text fill="#eeeeee" stroke="none" font-family="Arial" font-size="24px" font-style="normal" font-weight="normal" text-decoration="none" x="200" y="0">UNREGISTERED</text><text fill="#eeeeee" stroke="none" font-family="Arial" font-size="24px" font-style="normal" font-weight="normal" text-decoration="none" x="200" y="30">UNREGISTERED</text><text fill="#eeeeee" stroke="none" font-family="Arial" font-size="24px" font-style="normal" font-weight="normal" text-decoration="none" x="200" y="60">UNREGISTERED</text><text fill="#eeeeee" stroke="none" font-family="Arial" font-size="24px" font-style="normal" font-weight="normal" text-decoration="none" x="200" y="90">UNREGISTERED</text><text fill="#eeeeee" stroke="none" font-family="Arial" font-size="24px" font-style="normal" font-weight="normal" text-decoration="none" x="200" y="120">UNREGISTERED</text><text fill="#eeeeee" stroke="none" font-family="Arial" font-size="24px" font-style="normal" font-weight="normal" text-decoration="none" x="200" y="150">UNREGISTERED</text><text fill="#eeeeee" stroke="none" font-family="Arial" font-size="24px" font-style="normal" font-weight="normal" text-decoration="none" x="200" y="180">UNREGISTERED</text><text fill="#eeeeee" stroke="none" font-family="Arial" font-size="24px" font-style="normal" font-weight="normal" text-decoration="none" x="200" y="210">UNREGISTERED</text><text fill="#eeeeee" stroke="none" font-family="Arial" font-size="24px" font-style="normal" font-weight="normal" text-decoration="none" x="200" y="240">UNREGISTERED</text><text fill="#eeeeee" stroke="none" font-family="Arial" font-size="24px" font-style="normal" font-weight="normal" text-decoration="none" x="200" y="270">UNREGISTERED</text><text fill="#eeeeee" stroke="none" font-family="Arial" font-size="24px" font-style="normal" font-weight="normal" text-decoration="none" x="200" y="300">UNREGISTERED</text><text fill="#eeeeee" stroke="none" font-family="Arial" font-size="24px" font-style="normal" font-weight="normal" text-decoration="none" x="200" y="330">UNREGISTERED</text><text fill="#eeeeee" stroke="none" font-family="Arial" font-size="24px" font-style="normal" font-weight="normal" text-decoration="none" x="200" y="360">UNREGISTERED</text><text fill="#eeeeee" stroke="none" font-family="Arial" font-size="24px" font-style="normal" font-weight="normal" text-decoration="none" x="200" y="390">UNREGISTERED</text><text fill="#eeeeee" stroke="none" font-family="Arial" font-size="24px" font-style="normal" font-weight="normal" text-decoration="none" x="200" y="420">UNREGISTERED</text><text fill="#eeeeee" stroke="none" font-family="Arial" font-size="24px" font-style="normal" font-weight="normal" text-decoration="none" x="200" y="450">UNREGISTERED</text><text fill="#eeeeee" stroke="none" font-family="Arial" font-size="24px" font-style="normal" font-weight="normal" text-decoration="none" x="200" y="480">UNREGISTERED</text><text fill="#eeeeee" stroke="none" font-family="Arial" font-size="24px" font-style="normal" font-weight="normal" text-decoration="none" x="400" y="0">UNREGISTERED</text><text fill="#eeeeee" stroke="none" font-family="Arial" font-size="24px" font-style="normal" font-weight="normal" text-decoration="none" x="400" y="30">UNREGISTERED</text><text fill="#eeeeee" stroke="none" font-family="Arial" font-size="24px" font-style="normal" font-weight="normal" text-decoration="none" x="400" y="60">UNREGISTERED</text><text fill="#eeeeee" stroke="none" font-family="Arial" font-size="24px" font-style="normal" font-weight="normal" text-decoration="none" x="400" y="90">UNREGISTERED</text><text fill="#eeeeee" stroke="none" font-family="Arial" font-size="24px" font-style="normal" font-weight="normal" text-decoration="none" x="400" y="120">UNREGISTERED</text><text fill="#eeeeee" stroke="none" font-family="Arial" font-size="24px" font-style="normal" font-weight="normal" text-decoration="none" x="400" y="150">UNREGISTERED</text><text fill="#eeeeee" stroke="none" font-family="Arial" font-size="24px" font-style="normal" font-weight="normal" text-decoration="none" x="400" y="180">UNREGISTERED</text><text fill="#eeeeee" stroke="none" font-family="Arial" font-size="24px" font-style="normal" font-weight="normal" text-decoration="none" x="400" y="210">UNREGISTERED</text><text fill="#eeeeee" stroke="none" font-family="Arial" font-size="24px" font-style="normal" font-weight="normal" text-decoration="none" x="400" y="240">UNREGISTERED</text><text fill="#eeeeee" stroke="none" font-family="Arial" font-size="24px" font-style="normal" font-weight="normal" text-decoration="none" x="400" y="270">UNREGISTERED</text><text fill="#eeeeee" stroke="none" font-family="Arial" font-size="24px" font-style="normal" font-weight="normal" text-decoration="none" x="400" y="300">UNREGISTERED</text><text fill="#eeeeee" stroke="none" font-family="Arial" font-size="24px" font-style="normal" font-weight="normal" text-decoration="none" x="400" y="330">UNREGISTERED</text><text fill="#eeeeee" stroke="none" font-family="Arial" font-size="24px" font-style="normal" font-weight="normal" text-decoration="none" x="400" y="360">UNREGISTERED</text><text fill="#eeeeee" stroke="none" font-family="Arial" font-size="24px" font-style="normal" font-weight="normal" text-decoration="none" x="400" y="390">UNREGISTERED</text><text fill="#eeeeee" stroke="none" font-family="Arial" font-size="24px" font-style="normal" font-weight="normal" text-decoration="none" x="400" y="420">UNREGISTERED</text><text fill="#eeeeee" stroke="none" font-family="Arial" font-size="24px" font-style="normal" font-weight="normal" text-decoration="none" x="400" y="450">UNREGISTERED</text><text fill="#eeeeee" stroke="none" font-family="Arial" font-size="24px" font-style="normal" font-weight="normal" text-decoration="none" x="400" y="480">UNREGISTERED</text><text fill="#eeeeee" stroke="none" font-family="Arial" font-size="24px" font-style="normal" font-weight="normal" text-decoration="none" x="600" y="0">UNREGISTERED</text><text fill="#eeeeee" stroke="none" font-family="Arial" font-size="24px" font-style="normal" font-weight="normal" text-decoration="none" x="600" y="30">UNREGISTERED</text><text fill="#eeeeee" stroke="none" font-family="Arial" font-size="24px" font-style="normal" font-weight="normal" text-decoration="none" x="600" y="60">UNREGISTERED</text><text fill="#eeeeee" stroke="none" font-family="Arial" font-size="24px" font-style="normal" font-weight="normal" text-decoration="none" x="600" y="90">UNREGISTERED</text><text fill="#eeeeee" stroke="none" font-family="Arial" font-size="24px" font-style="normal" font-weight="normal" text-decoration="none" x="600" y="120">UNREGISTERED</text><text fill="#eeeeee" stroke="none" font-family="Arial" font-size="24px" font-style="normal" font-weight="normal" text-decoration="none" x="600" y="150">UNREGISTERED</text><text fill="#eeeeee" stroke="none" font-family="Arial" font-size="24px" font-style="normal" font-weight="normal" text-decoration="none" x="600" y="180">UNREGISTERED</text><text fill="#eeeeee" stroke="none" font-family="Arial" font-size="24px" font-style="normal" font-weight="normal" text-decoration="none" x="600" y="210">UNREGISTERED</text><text fill="#eeeeee" stroke="none" font-family="Arial" font-size="24px" font-style="normal" font-weight="normal" text-decoration="none" x="600" y="240">UNREGISTERED</text><text fill="#eeeeee" stroke="none" font-family="Arial" font-size="24px" font-style="normal" font-weight="normal" text-decoration="none" x="600" y="270">UNREGISTERED</text><text fill="#eeeeee" stroke="none" font-family="Arial" font-size="24px" font-style="normal" font-weight="normal" text-decoration="none" x="600" y="300">UNREGISTERED</text><text fill="#eeeeee" stroke="none" font-family="Arial" font-size="24px" font-style="normal" font-weight="normal" text-decoration="none" x="600" y="330">UNREGISTERED</text><text fill="#eeeeee" stroke="none" font-family="Arial" font-size="24px" font-style="normal" font-weight="normal" text-decoration="none" x="600" y="360">UNREGISTERED</text><text fill="#eeeeee" stroke="none" font-family="Arial" font-size="24px" font-style="normal" font-weight="normal" text-decoration="none" x="600" y="390">UNREGISTERED</text><text fill="#eeeeee" stroke="none" font-family="Arial" font-size="24px" font-style="normal" font-weight="normal" text-decoration="none" x="600" y="420">UNREGISTERED</text><text fill="#eeeeee" stroke="none" font-family="Arial" font-size="24px" font-style="normal" font-weight="normal" text-decoration="none" x="600" y="450">UNREGISTERED</text><text fill="#eeeeee" stroke="none" font-family="Arial" font-size="24px" font-style="normal" font-weight="normal" text-decoration="none" x="600" y="480">UNREGISTERED</text><g transform="translate(-318,-214) scale(1,1)"><rect fill="#C0C0C0" stroke="none" x="471" y="231" width="488" height="488" opacity="0.2"/></g><g transform="translate(-318,-214) scale(1,1)"><rect fill="#ffffff" stroke="none" x="464" y="224" width="488" height="488"/></g><g transform="translate(-318,-214) scale(1,1)"><path fill="none" stroke="#000000" d="M 464 224 L 952 224 L 952 712 L 464 712 L 464 224 Z Z" stroke-miterlimit="10"/></g><g transform="translate(-318,-214) scale(1,1)"><g><path fill="none" stroke="none"/><text fill="#000000" stroke="none" font-family="Arial" font-size="13px" font-style="normal" font-weight="bold" text-decoration="none" x="628.16552734375" y="242">Publicar compra _ TR-005</text></g></g><g transform="translate(-318,-214) scale(1,1)"><path fill="#ffffff" stroke="none" d="M 358.85026828835225 345.68 C 358.85026828835225 340.886167936 362.73611061329774 337 367.529541015625 337 C 372.32297141795226 337 376.20881374289775 340.886167936 376.20881374289775 345.68 C 376.20881374289775 350.473832064 372.32297141795226 354.36 367.529541015625 354.36 C 362.73611061329774 354.36 358.85026828835225 350.473832064 358.85026828835225 345.68 Z"/></g><g transform="translate(-318,-214) scale(1,1)"><path fill="none" stroke="#000000" d="M 358.85026828835225 345.68 C 358.85026828835225 340.886167936 362.73611061329774 337 367.529541015625 337 C 372.32297141795226 337 376.20881374289775 340.886167936 376.20881374289775 345.68 C 376.20881374289775 350.473832064 372.32297141795226 354.36 367.529541015625 354.36 C 362.73611061329774 354.36 358.85026828835225 350.473832064 358.85026828835225 345.68 Z" stroke-miterlimit="10"/></g><g transform="translate(-318,-214) scale(1,1)"><path fill="none" stroke="#000000" d="M 367.529541015625 354.36 L 367.529541015625 371.64" stroke-miterlimit="10"/></g><g transform="translate(-318,-214) scale(1,1)"><path fill="none" stroke="#000000" d="M 358.33972283380683 360.84 L 376.71935919744317 360.84" stroke-miterlimit="10"/></g><g transform="translate(-318,-214) scale(1,1)"><path fill="none" stroke="#000000" d="M 367.529541015625 371.64 L 354.76590465198865 389" stroke-miterlimit="10"/></g><g transform="translate(-318,-214) scale(1,1)"><path fill="none" stroke="#000000" d="M 367.529541015625 371.64 L 380.29317737926135 389" stroke-miterlimit="10"/></g><g transform="translate(-318,-214) scale(1,1)"><g><path fill="none" stroke="none"/><text fill="#000000" stroke="none" font-family="Arial" font-size="13px" font-style="normal" font-weight="bold" text-decoration="none" x="332.5" y="408">Comprador</text></g></g><g transform="translate(-318,-214) scale(1,1)"><path fill="#C0C0C0" stroke="none" d="M 639 320 C 639 310.6111584 674.817216 303 719 303 C 763.182784 303 799 310.6111584 799 320 C 799 329.3888416 763.182784 337 719 337 C 674.817216 337 639 329.3888416 639 320 Z" opacity="0.2"/></g><g transform="translate(-318,-214) scale(1,1)"><path fill="#ffffff" stroke="none" d="M 632 313 C 632 303.6111584 667.817216 296 712 296 C 756.182784 296 792 303.6111584 792 313 C 792 322.3888416 756.182784 330 712 330 C 667.817216 330 632 322.3888416 632 313 Z"/></g><g transform="translate(-318,-214) scale(1,1)"><path fill="none" stroke="#000000" d="M 632 313 C 632 303.6111584 667.817216 296 712 296 C 756.182784 296 792 303.6111584 792 313 C 792 322.3888416 756.182784 330 712 330 C 667.817216 330 632 322.3888416 632 313 Z" stroke-miterlimit="10"/></g><g transform="translate(-318,-214) scale(1,1)"><g><path fill="none" stroke="none"/><text fill="#000000" stroke="none" font-family="Arial" font-size="13px" font-style="normal" font-weight="bold" text-decoration="none" x="659.9873046875" y="318.5">Publicar Compra</text></g></g><g transform="translate(-318,-214) scale(1,1)"><path fill="none" stroke="#000000" d="M 408 368 L 631 328" stroke-miterlimit="10"/></g><g transform="translate(-318,-214) scale(1,1)"><path fill="#C0C0C0" stroke="none" d="M 511 480 C 511 470.6111584 555.0999472 463 609.5 463 C 663.9000528 463 708 470.6111584 708 480 C 708 489.3888416 663.9000528 497 609.5 497 C 555.0999472 497 511 489.3888416 511 480 Z" opacity="0.2"/></g><g transform="translate(-318,-214) scale(1,1)"><path fill="#ffffff" stroke="none" d="M 504 473 C 504 463.6111584 548.0999472 456 602.5 456 C 656.9000528 456 701 463.6111584 701 473 C 701 482.3888416 656.9000528 490 602.5 490 C 548.0999472 490 504 482.3888416 504 473 Z"/></g><g transform="translate(-318,-214) scale(1,1)"><path fill="none" stroke="#000000" d="M 504 473 C 504 463.6111584 548.0999472 456 602.5 456 C 656.9000528 456 701 463.6111584 701 473 C 701 482.3888416 656.9000528 490 602.5 490 C 548.0999472 490 504 482.3888416 504 473 Z" stroke-miterlimit="10"/></g><g transform="translate(-318,-214) scale(1,1)"><g><path fill="none" stroke="none"/><text fill="#000000" stroke="none" font-family="Arial" font-size="13px" font-style="normal" font-weight="bold" text-decoration="none" x="537.48095703125" y="478.5">Notificar Vendedores</text></g></g><g transform="translate(-318,-214) scale(1,1)"><path fill="#C0C0C0" stroke="none" d="M 807 480 C 807 470.6111584 829.6096176 463 857.5 463 C 885.3903824 463 908 470.6111584 908 480 C 908 489.3888416 885.3903824 497 857.5 497 C 829.6096176 497 807 489.3888416 807 480 Z" opacity="0.2"/></g><g transform="translate(-318,-214) scale(1,1)"><path fill="#ffffff" stroke="none" d="M 800 473 C 800 463.6111584 822.6096176 456 850.5 456 C 878.3903824 456 901 463.6111584 901 473 C 901 482.3888416 878.3903824 490 850.5 490 C 822.6096176 490 800 482.3888416 800 473 Z"/></g><g transform="translate(-318,-214) scale(1,1)"><path fill="none" stroke="#000000" d="M 800 473 C 800 463.6111584 822.6096176 456 850.5 456 C 878.3903824 456 901 463.6111584 901 473 C 901 482.3888416 878.3903824 490 850.5 490 C 822.6096176 490 800 482.3888416 800 473 Z" stroke-miterlimit="10"/></g><g transform="translate(-318,-214) scale(1,1)"><g><path fill="none" stroke="none"/><text fill="#000000" stroke="none" font-family="Arial" font-size="13px" font-style="normal" font-weight="bold" text-decoration="none" x="834.60546875" y="478.5">Error</text></g></g><g transform="translate(-318,-214) scale(1,1)"><path fill="none" stroke="#000000" d="M 614 455 L 700 331" stroke-miterlimit="10" stroke-dasharray="3"/></g><g transform="translate(-318,-214) scale(1,1)"><path fill="none" stroke="#000000" d="M 697.6673251267546 341.7498199024788 L 700 331 L 690.7492792292478 336.95182032840154" stroke-miterlimit="10"/></g><g transform="translate(-318,-214) scale(1,1)"><g><path fill="none" stroke="none"/><text fill="#000000" stroke="none" font-family="Arial" font-size="13px" font-style="normal" font-weight="normal" text-decoration="none" x="605.5" y="380">«extend»</text></g></g><g transform="translate(-318,-214) scale(1,1)"><path fill="none" stroke="#000000" d="M 834 455 L 728 331" stroke-miterlimit="10" stroke-dasharray="3"/></g><g transform="translate(-318,-214) scale(1,1)"><path fill="none" stroke="#000000" d="M 737.8032588437488 335.989600789889 L 728 331 L 731.4037702521975 341.46013136008605" stroke-miterlimit="10"/></g><g transform="translate(-318,-214) scale(1,1)"><g><path fill="none" stroke="none"/><text fill="#000000" stroke="none" font-family="Arial" font-size="13px" font-style="normal" font-weight="normal" text-decoration="none" x="731.5" y="417">«extend»</text></g></g></g></svg>