<svg version="1.1" xmlns="http://www.w3.org/2000/svg" xmlns:xlink="http://www.w3.org/1999/xlink" width="684" height="484"><defs/><g><text fill="#eeeeee" stroke="none" font-family="Arial" font-size="24px" font-style="normal" font-weight="normal" text-decoration="none" x="0" y="0">UNREGISTERED</text><text fill="#eeeeee" stroke="none" font-family="Arial" font-size="24px" font-style="normal" font-weight="normal" text-decoration="none" x="0" y="30">UNREGISTERED</text><text fill="#eeeeee" stroke="none" font-family="Arial" font-size="24px" font-style="normal" font-weight="normal" text-decoration="none" x="0" y="60">UNREGISTERED</text><text fill="#eeeeee" stroke="none" font-family="Arial" font-size="24px" font-style="normal" font-weight="normal" text-decoration="none" x="0" y="90">UNREGISTERED</text><text fill="#eeeeee" stroke="none" font-family="Arial" font-size="24px" font-style="normal" font-weight="normal" text-decoration="none" x="0" y="120">UNREGISTERED</text><text fill="#eeeeee" stroke="none" font-family="Arial" font-size="24px" font-style="normal" font-weight="normal" text-decoration="none" x="0" y="150">UNREGISTERED</text><text fill="#eeeeee" stroke="none" font-family="Arial" font-size="24px" font-style="normal" font-weight="normal" text-decoration="none" x="0" y="180">UNREGISTERED</text><text fill="#eeeeee" stroke="none" font-family="Arial" font-size="24px" font-style="normal" font-weight="normal" text-decoration="none" x="0" y="210">UNREGISTERED</text><text fill="#eeeeee" stroke="none" font-family="Arial" font-size="24px" font-style="normal" font-weight="normal" text-decoration="none" x="0" y="240">UNREGISTERED</text><text fill="#eeeeee" stroke="none" font-family="Arial" font-size="24px" font-style="normal" font-weight="normal" text-decoration="none" x="0" y="270">UNREGISTERED</text><text fill="#eeeeee" stroke="none" font-family="Arial" font-size="24px" font-style="normal" font-weight="normal" text-decoration="none" x="0" y="300">UNREGISTERED</text><text fill="#eeeeee" stroke="none" font-family="Arial" font-size="24px" font-style="normal" font-weight="normal" text-decoration="none" x="0" y="330">UNREGISTERED</text><text fill="#eeeeee" stroke="none" font-family="Arial" font-size="24px" font-style="normal" font-weight="normal" text-decoration="none" x="0" y="360">UNREGISTERED</text><text fill="#eeeeee" stroke="none" font-family="Arial" font-size="24px" font-style="normal" font-weight="normal" text-decoration="none" x="0" y="390">UNREGISTERED</text><text fill="#eeeeee" stroke="none" font-family="Arial" font-size="24px" font-style="normal" font-weight="normal" text-decoration="none" x="0" y="420">UNREGISTERED</text><text fill="#eeeeee" stroke="none" font-family="Arial" font-size="24px" font-style="normal" font-weight="normal" text-decoration="none" x="0" y="450">UNREGISTERED</text><text fill="#eeeeee" stroke="none" font-family="Arial" font-size="24px" font-style="normal" font-weight="normal" text-decoration="none" x="0" y="480">UNREGISTERED</text><text fill="#eeeeee" stroke="none" font-family="Arial" font-size="24px" font-style="normal" font-weight="normal" text-decoration="none" x="200" y="0">UNREGISTERED</text><text fill="#eeeeee" stroke="none" font-family="Arial" font-size="24px" font-style="normal" font-weight="normal" text-decoration="none" x="200" y="30">UNREGISTERED</text><text fill="#eeeeee" stroke="none" font-family="Arial" font-size="24px" font-style="normal" font-weight="normal" text-decoration="none" x="200" y="60">UNREGISTERED</text><text fill="#eeeeee" stroke="none" font-family="Arial" font-size="24px" font-style="normal" font-weight="normal" text-decoration="none" x="200" y="90">UNREGISTERED</text><text fill="#eeeeee" stroke="none" font-family="Arial" font-size="24px" font-style="normal" font-weight="normal" text-decoration="none" x="200" y="120">UNREGISTERED</text><text fill="#eeeeee" stroke="none" font-family="Arial" font-size="24px" font-style="normal" font-weight="normal" text-decoration="none" x="200" y="150">UNREGISTERED</text><text fill="#eeeeee" stroke="none" font-family="Arial" font-size="24px" font-style="normal" font-weight="normal" text-decoration="none" x="200" y="180">UNREGISTERED</text><text fill="#eeeeee" stroke="none" font-family="Arial" font-size="24px" font-style="normal" font-weight="normal" text-decoration="none" x="200" y="210">UNREGISTERED</text><text fill="#eeeeee" stroke="none" font-family="Arial" font-size="24px" font-style="normal" font-weight="normal" text-decoration="none" x="200" y="240">UNREGISTERED</text><text fill="#eeeeee" stroke="none" font-family="Arial" font-size="24px" font-style="normal" font-weight="normal" text-decoration="none" x="200" y="270">UNREGISTERED</text><text fill="#eeeeee" stroke="none" font-family="Arial" font-size="24px" font-style="normal" font-weight="normal" text-decoration="none" x="200" y="300">UNREGISTERED</text><text fill="#eeeeee" stroke="none" font-family="Arial" font-size="24px" font-style="normal" font-weight="normal" text-decoration="none" x="200" y="330">UNREGISTERED</text><text fill="#eeeeee" stroke="none" font-family="Arial" font-size="24px" font-style="normal" font-weight="normal" text-decoration="none" x="200" y="360">UNREGISTERED</text><text fill="#eeeeee" stroke="none" font-family="Arial" font-size="24px" font-style="normal" font-weight="normal" text-decoration="none" x="200" y="390">UNREGISTERED</text><text fill="#eeeeee" stroke="none" font-family="Arial" font-size="24px" font-style="normal" font-weight="normal" text-decoration="none" x="200" y="420">UNREGISTERED</text><text fill="#eeeeee" stroke="none" font-family="Arial" font-size="24px" font-style="normal" font-weight="normal" text-decoration="none" x="200" y="450">UNREGISTERED</text><text fill="#eeeeee" stroke="none" font-family="Arial" font-size="24px" font-style="normal" font-weight="normal" text-decoration="none" x="200" y="480">UNREGISTERED</text><text fill="#eeeeee" stroke="none" font-family="Arial" font-size="24px" font-style="normal" font-weight="normal" text-decoration="none" x="400" y="0">UNREGISTERED</text><text fill="#eeeeee" stroke="none" font-family="Arial" font-size="24px" font-style="normal" font-weight="normal" text-decoration="none" x="400" y="30">UNREGISTERED</text><text fill="#eeeeee" stroke="none" font-family="Arial" font-size="24px" font-style="normal" font-weight="normal" text-decoration="none" x="400" y="60">UNREGISTERED</text><text fill="#eeeeee" stroke="none" font-family="Arial" font-size="24px" font-style="normal" font-weight="normal" text-decoration="none" x="400" y="90">UNREGISTERED</text><text fill="#eeeeee" stroke="none" font-family="Arial" font-size="24px" font-style="normal" font-weight="normal" text-decoration="none" x="400" y="120">UNREGISTERED</text><text fill="#eeeeee" stroke="none" font-family="Arial" font-size="24px" font-style="normal" font-weight="normal" text-decoration="none" x="400" y="150">UNREGISTERED</text><text fill="#eeeeee" stroke="none" font-family="Arial" font-size="24px" font-style="normal" font-weight="normal" text-decoration="none" x="400" y="180">UNREGISTERED</text><text fill="#eeeeee" stroke="none" font-family="Arial" font-size="24px" font-style="normal" font-weight="normal" text-decoration="none" x="400" y="210">UNREGISTERED</text><text fill="#eeeeee" stroke="none" font-family="Arial" font-size="24px" font-style="normal" font-weight="normal" text-decoration="none" x="400" y="240">UNREGISTERED</text><text fill="#eeeeee" stroke="none" font-family="Arial" font-size="24px" font-style="normal" font-weight="normal" text-decoration="none" x="400" y="270">UNREGISTERED</text><text fill="#eeeeee" stroke="none" font-family="Arial" font-size="24px" font-style="normal" font-weight="normal" text-decoration="none" x="400" y="300">UNREGISTERED</text><text fill="#eeeeee" stroke="none" font-family="Arial" font-size="24px" font-style="normal" font-weight="normal" text-decoration="none" x="400" y="330">UNREGISTERED</text><text fill="#eeeeee" stroke="none" font-family="Arial" font-size="24px" font-style="normal" font-weight="normal" text-decoration="none" x="400" y="360">UNREGISTERED</text><text fill="#eeeeee" stroke="none" font-family="Arial" font-size="24px" font-style="normal" font-weight="normal" text-decoration="none" x="400" y="390">UNREGISTERED</text><text fill="#eeeeee" stroke="none" font-family="Arial" font-size="24px" font-style="normal" font-weight="normal" text-decoration="none" x="400" y="420">UNREGISTERED</text><text fill="#eeeeee" stroke="none" font-family="Arial" font-size="24px" font-style="normal" font-weight="normal" text-decoration="none" x="400" y="450">UNREGISTERED</text><text fill="#eeeeee" stroke="none" font-family="Arial" font-size="24px" font-style="normal" font-weight="normal" text-decoration="none" x="400" y="480">UNREGISTERED</text><text fill="#eeeeee" stroke="none" font-family="Arial" font-size="24px" font-style="normal" font-weight="normal" text-decoration="none" x="600" y="0">UNREGISTERED</text><text fill="#eeeeee" stroke="none" font-family="Arial" font-size="24px" font-style="normal" font-weight="normal" text-decoration="none" x="600" y="30">UNREGISTERED</text><text fill="#eeeeee" stroke="none" font-family="Arial" font-size="24px" font-style="normal" font-weight="normal" text-decoration="none" x="600" y="60">UNREGISTERED</text><text fill="#eeeeee" stroke="none" font-family="Arial" font-size="24px" font-style="normal" font-weight="normal" text-decoration="none" x="600" y="90">UNREGISTERED</text><text fill="#eeeeee" stroke="none" font-family="Arial" font-size="24px" font-style="normal" font-weight="normal" text-decoration="none" x="600" y="120">UNREGISTERED</text><text fill="#eeeeee" stroke="none" font-family="Arial" font-size="24px" font-style="normal" font-weight="normal" text-decoration="none" x="600" y="150">UNREGISTERED</text><text fill="#eeeeee" stroke="none" font-family="Arial" font-size="24px" font-style="normal" font-weight="normal" text-decoration="none" x="600" y="180">UNREGISTERED</text><text fill="#eeeeee" stroke="none" font-family="Arial" font-size="24px" font-style="normal" font-weight="normal" text-decoration="none" x="600" y="210">UNREGISTERED</text><text fill="#eeeeee" stroke="none" font-family="Arial" font-size="24px" font-style="normal" font-weight="normal" text-decoration="none" x="600" y="240">UNREGISTERED</text><text fill="#eeeeee" stroke="none" font-family="Arial" font-size="24px" font-style="normal" font-weight="normal" text-decoration="none" x="600" y="270">UNREGISTERED</text><text fill="#eeeeee" stroke="none" font-family="Arial" font-size="24px" font-style="normal" font-weight="normal" text-decoration="none" x="600" y="300">UNREGISTERED</text><text fill="#eeeeee" stroke="none" font-family="Arial" font-size="24px" font-style="normal" font-weight="normal" text-decoration="none" x="600" y="330">UNREGISTERED</text><text fill="#eeeeee" stroke="none" font-family="Arial" font-size="24px" font-style="normal" font-weight="normal" text-decoration="none" x="600" y="360">UNREGISTERED</text><text fill="#eeeeee" stroke="none" font-family="Arial" font-size="24px" font-style="normal" font-weight="normal" text-decoration="none" x="600" y="390">UNREGISTERED</text><text fill="#eeeeee" stroke="none" font-family="Arial" font-size="24px" font-style="normal" font-weight="normal" text-decoration="none" x="600" y="420">UNREGISTERED</text><text fill="#eeeeee" stroke="none" font-family="Arial" font-size="24px" font-style="normal" font-weight="normal" text-decoration="none" x="600" y="450">UNREGISTERED</text><text fill="#eeeeee" stroke="none" font-family="Arial" font-size="24px" font-style="normal" font-weight="normal" text-decoration="none" x="600" y="480">UNREGISTERED</text><g transform="translate(-334,-278) scale(1,1)"><rect fill="#C0C0C0" stroke="none" x="487" y="295" width="528" height="464" opacity="0.2"/></g><g transform="translate(-334,-278) scale(1,1)"><rect fill="#ffffff" stroke="none" x="480" y="288" width="528" height="464"/></g><g transform="translate(-334,-278) scale(1,1)"><path fill="none" stroke="#000000" d="M 480 288 L 1008 288 L 1008 752 L 480 752 L 480 288 Z Z" stroke-miterlimit="10"/></g><g transform="translate(-334,-278) scale(1,1)"><g><path fill="none" stroke="none"/><text fill="#000000" stroke="none" font-family="Arial" font-size="13px" font-style="normal" font-weight="bold" text-decoration="none" x="540.624267578125" y="306">Asistente de búsqueda de accesorio y repuesto _ TR-002 _TR-003</text></g></g><g transform="translate(-334,-278) scale(1,1)"><path fill="#ffffff" stroke="none" d="M 374.85026828835225 433.68 C 374.85026828835225 428.886167936 378.73611061329774 425 383.529541015625 425 C 388.32297141795226 425 392.20881374289775 428.886167936 392.20881374289775 433.68 C 392.20881374289775 438.473832064 388.32297141795226 442.36 383.529541015625 442.36 C 378.73611061329774 442.36 374.85026828835225 438.473832064 374.85026828835225 433.68 Z"/></g><g transform="translate(-334,-278) scale(1,1)"><path fill="none" stroke="#000000" d="M 374.85026828835225 433.68 C 374.85026828835225 428.886167936 378.73611061329774 425 383.529541015625 425 C 388.32297141795226 425 392.20881374289775 428.886167936 392.20881374289775 433.68 C 392.20881374289775 438.473832064 388.32297141795226 442.36 383.529541015625 442.36 C 378.73611061329774 442.36 374.85026828835225 438.473832064 374.85026828835225 433.68 Z" stroke-miterlimit="10"/></g><g transform="translate(-334,-278) scale(1,1)"><path fill="none" stroke="#000000" d="M 383.529541015625 442.36 L 383.529541015625 459.64" stroke-miterlimit="10"/></g><g transform="translate(-334,-278) scale(1,1)"><path fill="none" stroke="#000000" d="M 374.33972283380683 448.84 L 392.71935919744317 448.84" stroke-miterlimit="10"/></g><g transform="translate(-334,-278) scale(1,1)"><path fill="none" stroke="#000000" d="M 383.529541015625 459.64 L 370.76590465198865 477" stroke-miterlimit="10"/></g><g transform="translate(-334,-278) scale(1,1)"><path fill="none" stroke="#000000" d="M 383.529541015625 459.64 L 396.29317737926135 477" stroke-miterlimit="10"/></g><g transform="translate(-334,-278) scale(1,1)"><g><path fill="none" stroke="none"/><text fill="#000000" stroke="none" font-family="Arial" font-size="13px" font-style="normal" font-weight="bold" text-decoration="none" x="348.5" y="496">Comprador</text></g></g><g transform="translate(-334,-278) scale(1,1)"><path fill="#C0C0C0" stroke="none" d="M 687 360 C 687 350.6111584 723.7126464 343 769 343 C 814.2873536 343 851 350.6111584 851 360 C 851 369.3888416 814.2873536 377 769 377 C 723.7126464 377 687 369.3888416 687 360 Z" opacity="0.2"/></g><g transform="translate(-334,-278) scale(1,1)"><path fill="#ffffff" stroke="none" d="M 680 353 C 680 343.6111584 716.7126464 336 762 336 C 807.2873536 336 844 343.6111584 844 353 C 844 362.3888416 807.2873536 370 762 370 C 716.7126464 370 680 362.3888416 680 353 Z"/></g><g transform="translate(-334,-278) scale(1,1)"><path fill="none" stroke="#000000" d="M 680 353 C 680 343.6111584 716.7126464 336 762 336 C 807.2873536 336 844 343.6111584 844 353 C 844 362.3888416 807.2873536 370 762 370 C 716.7126464 370 680 362.3888416 680 353 Z" stroke-miterlimit="10"/></g><g transform="translate(-334,-278) scale(1,1)"><g><path fill="none" stroke="none"/><text fill="#000000" stroke="none" font-family="Arial" font-size="13px" font-style="normal" font-weight="bold" text-decoration="none" x="739.9609375" y="358.5">Buscar</text></g></g><g transform="translate(-334,-278) scale(1,1)"><path fill="#C0C0C0" stroke="none" d="M 823 432 C 823 422.6111584 863.0705104 415 912.5 415 C 961.9294896 415 1002 422.6111584 1002 432 C 1002 441.3888416 961.9294896 449 912.5 449 C 863.0705104 449 823 441.3888416 823 432 Z" opacity="0.2"/></g><g transform="translate(-334,-278) scale(1,1)"><path fill="#ffffff" stroke="none" d="M 816 425 C 816 415.6111584 856.0705104 408 905.5 408 C 954.9294896 408 995 415.6111584 995 425 C 995 434.3888416 954.9294896 442 905.5 442 C 856.0705104 442 816 434.3888416 816 425 Z"/></g><g transform="translate(-334,-278) scale(1,1)"><path fill="none" stroke="#000000" d="M 816 425 C 816 415.6111584 856.0705104 408 905.5 408 C 954.9294896 408 995 415.6111584 995 425 C 995 434.3888416 954.9294896 442 905.5 442 C 856.0705104 442 816 434.3888416 816 425 Z" stroke-miterlimit="10"/></g><g transform="translate(-334,-278) scale(1,1)"><g><path fill="none" stroke="none"/><text fill="#000000" stroke="none" font-family="Arial" font-size="13px" font-style="normal" font-weight="bold" text-decoration="none" x="874.069580078125" y="430.5">Accesorio</text></g></g><g transform="translate(-334,-278) scale(1,1)"><path fill="none" stroke="#000000" d="M 424 451 L 700 371" stroke-miterlimit="10"/></g><g transform="translate(-334,-278) scale(1,1)"><path fill="#C0C0C0" stroke="none" d="M 743 552 C 743 542.6111584 790.9055264 535 850 535 C 909.0944736 535 957 542.6111584 957 552 C 957 561.3888416 909.0944736 569 850 569 C 790.9055264 569 743 561.3888416 743 552 Z" opacity="0.2"/></g><g transform="translate(-334,-278) scale(1,1)"><path fill="#ffffff" stroke="none" d="M 736 545 C 736 535.6111584 783.9055264 528 843 528 C 902.0944736 528 950 535.6111584 950 545 C 950 554.3888416 902.0944736 562 843 562 C 783.9055264 562 736 554.3888416 736 545 Z"/></g><g transform="translate(-334,-278) scale(1,1)"><path fill="none" stroke="#000000" d="M 736 545 C 736 535.6111584 783.9055264 528 843 528 C 902.0944736 528 950 535.6111584 950 545 C 950 554.3888416 902.0944736 562 843 562 C 783.9055264 562 736 554.3888416 736 545 Z" stroke-miterlimit="10"/></g><g transform="translate(-334,-278) scale(1,1)"><g><path fill="none" stroke="none"/><text fill="#000000" stroke="none" font-family="Arial" font-size="13px" font-style="normal" font-weight="bold" text-decoration="none" x="771.845947265625" y="550.5">Asistente de búsqueda</text></g></g><g transform="translate(-334,-278) scale(1,1)"><path fill="#C0C0C0" stroke="none" d="M 511 608 C 511 598.6111584 555.9953776 591 611.5 591 C 667.0046224 591 712 598.6111584 712 608 C 712 617.3888416 667.0046224 625 611.5 625 C 555.9953776 625 511 617.3888416 511 608 Z" opacity="0.2"/></g><g transform="translate(-334,-278) scale(1,1)"><path fill="#ffffff" stroke="none" d="M 504 601 C 504 591.6111584 548.9953776 584 604.5 584 C 660.0046224 584 705 591.6111584 705 601 C 705 610.3888416 660.0046224 618 604.5 618 C 548.9953776 618 504 610.3888416 504 601 Z"/></g><g transform="translate(-334,-278) scale(1,1)"><path fill="none" stroke="#000000" d="M 504 601 C 504 591.6111584 548.9953776 584 604.5 584 C 660.0046224 584 705 591.6111584 705 601 C 705 610.3888416 660.0046224 618 604.5 618 C 548.9953776 618 504 610.3888416 504 601 Z" stroke-miterlimit="10"/></g><g transform="translate(-334,-278) scale(1,1)"><g><path fill="none" stroke="none"/><text fill="#000000" stroke="none" font-family="Arial" font-size="13px" font-style="normal" font-weight="bold" text-decoration="none" x="538.0400390625" y="606.5">Seleccionar producto</text></g></g><g transform="translate(-334,-278) scale(1,1)"><path fill="#C0C0C0" stroke="none" d="M 735 648 C 735 638.6111584 757.6096176 631 785.5 631 C 813.3903824 631 836 638.6111584 836 648 C 836 657.3888416 813.3903824 665 785.5 665 C 757.6096176 665 735 657.3888416 735 648 Z" opacity="0.2"/></g><g transform="translate(-334,-278) scale(1,1)"><path fill="#ffffff" stroke="none" d="M 728 641 C 728 631.6111584 750.6096176 624 778.5 624 C 806.3903824 624 829 631.6111584 829 641 C 829 650.3888416 806.3903824 658 778.5 658 C 750.6096176 658 728 650.3888416 728 641 Z"/></g><g transform="translate(-334,-278) scale(1,1)"><path fill="none" stroke="#000000" d="M 728 641 C 728 631.6111584 750.6096176 624 778.5 624 C 806.3903824 624 829 631.6111584 829 641 C 829 650.3888416 806.3903824 658 778.5 658 C 750.6096176 658 728 650.3888416 728 641 Z" stroke-miterlimit="10"/></g><g transform="translate(-334,-278) scale(1,1)"><g><path fill="none" stroke="none"/><text fill="#000000" stroke="none" font-family="Arial" font-size="13px" font-style="normal" font-weight="bold" text-decoration="none" x="751.1669921875" y="646.5">Terminar</text></g></g><g transform="translate(-334,-278) scale(1,1)"><path fill="#C0C0C0" stroke="none" d="M 879 704 C 879 694.6111584 901.6096176 687 929.5 687 C 957.3903824 687 980 694.6111584 980 704 C 980 713.3888416 957.3903824 721 929.5 721 C 901.6096176 721 879 713.3888416 879 704 Z" opacity="0.2"/></g><g transform="translate(-334,-278) scale(1,1)"><path fill="#ffffff" stroke="none" d="M 872 697 C 872 687.6111584 894.6096176 680 922.5 680 C 950.3903824 680 973 687.6111584 973 697 C 973 706.3888416 950.3903824 714 922.5 714 C 894.6096176 714 872 706.3888416 872 697 Z"/></g><g transform="translate(-334,-278) scale(1,1)"><path fill="none" stroke="#000000" d="M 872 697 C 872 687.6111584 894.6096176 680 922.5 680 C 950.3903824 680 973 687.6111584 973 697 C 973 706.3888416 950.3903824 714 922.5 714 C 894.6096176 714 872 706.3888416 872 697 Z" stroke-miterlimit="10"/></g><g transform="translate(-334,-278) scale(1,1)"><g><path fill="none" stroke="none"/><text fill="#000000" stroke="none" font-family="Arial" font-size="13px" font-style="normal" font-weight="bold" text-decoration="none" x="904.44091796875" y="702.5">Home</text></g></g><g transform="translate(-334,-278) scale(1,1)"><path fill="#C0C0C0" stroke="none" d="M 719 472 C 719 462.6111584 741.6096176 455 769.5 455 C 797.3903824 455 820 462.6111584 820 472 C 820 481.3888416 797.3903824 489 769.5 489 C 741.6096176 489 719 481.3888416 719 472 Z" opacity="0.2"/></g><g transform="translate(-334,-278) scale(1,1)"><path fill="#ffffff" stroke="none" d="M 712 465 C 712 455.6111584 734.6096176 448 762.5 448 C 790.3903824 448 813 455.6111584 813 465 C 813 474.3888416 790.3903824 482 762.5 482 C 734.6096176 482 712 474.3888416 712 465 Z"/></g><g transform="translate(-334,-278) scale(1,1)"><path fill="none" stroke="#000000" d="M 712 465 C 712 455.6111584 734.6096176 448 762.5 448 C 790.3903824 448 813 455.6111584 813 465 C 813 474.3888416 790.3903824 482 762.5 482 C 734.6096176 482 712 474.3888416 712 465 Z" stroke-miterlimit="10"/></g><g transform="translate(-334,-278) scale(1,1)"><g><path fill="none" stroke="none"/><text fill="#000000" stroke="none" font-family="Arial" font-size="13px" font-style="normal" font-weight="bold" text-decoration="none" x="732.885009765625" y="470.5">Repuesto</text></g></g><g transform="translate(-334,-278) scale(1,1)"><path fill="none" stroke="#000000" d="M 762 447 L 762 371" stroke-miterlimit="10"/></g><g transform="translate(-334,-278) scale(1,1)"><path fill="#FFFFFF" stroke="none" d="M 770.419035512032 391.3253497152483 L 762 371 L 753.580964487968 391.3253497152483"/></g><g transform="translate(-334,-278) scale(1,1)"><path fill="none" stroke="#000000" d="M 770.419035512032 391.3253497152483 L 762 371 L 753.580964487968 391.3253497152483 L 770.419035512032 391.3253497152483" stroke-miterlimit="10"/></g><g transform="translate(-334,-278) scale(1,1)"><path fill="none" stroke="#000000" d="M 869 407 L 798 371" stroke-miterlimit="10"/></g><g transform="translate(-334,-278) scale(1,1)"><path fill="#FFFFFF" stroke="none" d="M 819.9355448710978 372.6828164510886 L 798 371 L 812.3208416033181 387.7007034514321"/></g><g transform="translate(-334,-278) scale(1,1)"><path fill="none" stroke="#000000" d="M 819.9355448710978 372.6828164510886 L 798 371 L 812.3208416033181 387.7007034514321 L 819.9355448710978 372.6828164510886" stroke-miterlimit="10"/></g><g transform="translate(-334,-278) scale(1,1)"><path fill="none" stroke="#000000" d="M 780 483 L 825 527" stroke-miterlimit="10" stroke-dasharray="3"/></g><g transform="translate(-334,-278) scale(1,1)"><path fill="none" stroke="#000000" d="M 814.79067161666 522.9049280884058 L 825 527 L 820.6765677869148 516.8852615506452" stroke-miterlimit="10"/></g><g transform="translate(-334,-278) scale(1,1)"><g><path fill="none" stroke="none"/><text fill="#000000" stroke="none" font-family="Arial" font-size="13px" font-style="normal" font-weight="normal" text-decoration="none" x="794.5" y="488">«include»</text></g></g><g transform="translate(-334,-278) scale(1,1)"><path fill="none" stroke="#000000" d="M 896 443 L 852 527" stroke-miterlimit="10" stroke-dasharray="3"/></g><g transform="translate(-334,-278) scale(1,1)"><path fill="none" stroke="#000000" d="M 852.9866286418995 516.0443364453364 L 852 527 L 860.444475795101 519.9508278112991" stroke-miterlimit="10"/></g><g transform="translate(-334,-278) scale(1,1)"><g><path fill="none" stroke="none"/><text fill="#000000" stroke="none" font-family="Arial" font-size="13px" font-style="normal" font-weight="normal" text-decoration="none" x="872.5" y="503">«include»</text></g></g><g transform="translate(-334,-278) scale(1,1)"><path fill="none" stroke="#000000" d="M 681 583 L 766 563" stroke-miterlimit="10" stroke-dasharray="3"/></g><g transform="translate(-334,-278) scale(1,1)"><path fill="none" stroke="#000000" d="M 757.0716229595404 569.4252691323707 L 766 563 L 755.1433326752529 561.2300354241486" stroke-miterlimit="10"/></g><g transform="translate(-334,-278) scale(1,1)"><g><path fill="none" stroke="none"/><text fill="#000000" stroke="none" font-family="Arial" font-size="13px" font-style="normal" font-weight="normal" text-decoration="none" x="663.5" y="562">«extend»</text></g></g><g transform="translate(-334,-278) scale(1,1)"><path fill="none" stroke="#000000" d="M 790 623 L 831 563" stroke-miterlimit="10" stroke-dasharray="3"/></g><g transform="translate(-334,-278) scale(1,1)"><path fill="none" stroke="#000000" d="M 828.7418811182237 573.7657279881931 L 831 563 L 821.7907495611094 569.0157880908317" stroke-miterlimit="10"/></g><g transform="translate(-334,-278) scale(1,1)"><g><path fill="none" stroke="none"/><text fill="#000000" stroke="none" font-family="Arial" font-size="13px" font-style="normal" font-weight="normal" text-decoration="none" x="758.5" y="580">«extend»</text></g></g><g transform="translate(-334,-278) scale(1,1)"><path fill="none" stroke="#000000" d="M 824 659 L 876 679" stroke-miterlimit="10" stroke-dasharray="3"/></g><g transform="translate(-334,-278) scale(1,1)"><path fill="none" stroke="#000000" d="M 865.0035832659772 679.280747238106 L 876 679 L 868.0258408827551 671.4228774344834" stroke-miterlimit="10"/></g><g transform="translate(-334,-278) scale(1,1)"><g><path fill="none" stroke="none"/><text fill="#000000" stroke="none" font-family="Arial" font-size="13px" font-style="normal" font-weight="normal" text-decoration="none" x="832.5" y="645">«include»</text></g></g><g transform="translate(-334,-278) scale(1,1)"><path fill="none" stroke="#000000" d="M 751 371 L 615 583" stroke-miterlimit="10" stroke-dasharray="3"/></g><g transform="translate(-334,-278) scale(1,1)"><path fill="none" stroke="#000000" d="M 616.9442578114216 572.1731878393164 L 615 583 L 624.0305101802835 576.7190855853787" stroke-miterlimit="10"/></g><g transform="translate(-334,-278) scale(1,1)"><g><path fill="none" stroke="none"/><text fill="#000000" stroke="none" font-family="Arial" font-size="13px" font-style="normal" font-weight="normal" text-decoration="none" x="592.5" y="517">«extend»</text></g></g></g></svg>